<svg width="190" height="38" fill="none" xmlns="http://www.w3.org/2000/svg"><g style="mix-blend-mode:luminosity" fill="#EF3124"><path fill-rule="evenodd" clip-rule="evenodd" d="M183.483 7.364L177 14.46V7.364h-4.691v17.91H177v-7.54l6.94 7.54H190l-8.535-9.384 7.917-8.526h-5.899zm-19.446 6.679h-6.482V7.364h-4.694v17.91h4.694v-7.062h6.482v7.061h4.692V7.364h-4.692v6.68zM27.856 17.066c-.112 3.34-.553 4.008-2.475 4.008v4.2h.717c4.796 0 5.949-2.42 6.126-7.795l.196-5.949h4.495v13.743h4.691V7.364H28.184l-.328 9.702zm25.05 4.263h-3.03V16.78h3.03c1.63 0 2.605.7 2.605 2.195.003 1.622-.941 2.353-2.605 2.353zm.36-8.526h-3.388V7.364h-4.691v17.912h8.144c5.114 0 6.94-3.244 6.94-6.3 0-3.944-2.543-6.173-7.005-6.173zm22.283 8.559V11.245c2.605.349 4.235 2.259 4.235 5.057 0 2.801-1.627 4.708-4.235 5.06zm-4.692 0c-2.605-.352-4.234-2.259-4.234-5.06 0-2.798 1.63-4.708 4.234-5.057v10.117zM75.55 6.949V.301h-4.692v6.648c-5.374.446-8.991 4.169-8.991 9.353 0 5.218 3.617 8.94 8.992 9.386v6.746h4.69v-6.746c5.375-.412 8.992-4.168 8.992-9.386.003-5.217-3.614-8.938-8.991-9.353zm21.894 11.645c0 2.068-1.5 3.244-3.453 3.244-1.695 0-3.03-.604-3.03-2.386 0-1.75 1.465-2.037 2.735-2.037h3.748v1.179zm4.691 1.176v-6.012c0-4.39-2.866-7.158-7.688-7.158-4.986 0-7.625 2.926-7.852 5.982h4.757c.161-.667.879-1.813 3.095-1.813 1.826 0 2.996.827 2.996 2.99h-4.66c-4.17 0-6.647 2.13-6.647 5.693 0 3.723 2.71 6.267 6.614 6.267 2.863 0 4.454-1.322 5.147-2.323.618 1.21 1.987 1.877 3.779 1.877h1.63v-4.135c-.845 0-1.171-.382-1.171-1.368zm19.873.986h-5.017v-6.488h5.017c2.605 0 4.074 1.176 4.074 3.244 0 2.131-1.466 3.244-4.074 3.244zm.23-10.848h-5.244V4.851h12.152V.301h-17.073v24.972h10.165c5.635 0 8.861-2.735 8.861-7.761 0-4.74-3.226-7.604-8.861-7.604zm22.121 8.686c0 2.068-1.499 3.244-3.452 3.244-1.695 0-3.031-.604-3.031-2.386 0-1.75 1.466-2.037 2.736-2.037h3.747v1.179zm4.692 1.176v-6.012c0-4.39-2.866-7.158-7.688-7.158-4.986 0-7.625 2.926-7.852 5.982h4.757c.161-.667.878-1.813 3.095-1.813 1.825 0 2.996.827 2.996 2.99h-4.66c-4.17 0-6.647 2.13-6.647 5.693 0 3.723 2.71 6.267 6.613 6.267 2.864 0 4.454-1.322 5.148-2.323.618 1.21 1.987 1.877 3.779 1.877h1.629v-4.135c-.844 0-1.17-.382-1.17-1.368z"/><path d="M25.087 32.91H0V38h25.087v-5.09z"/><path fill-rule="evenodd" clip-rule="evenodd" d="M8.96 15.826l3.518-10.211h.13l3.323 10.21H8.96zm8.144-12.098C16.387 1.645 15.563 0 12.74 0 9.915 0 9.036 1.637 8.285 3.728L.522 25.273h5.147l1.792-5.12h9.904l1.661 5.12H24.5L17.104 3.728z"/></g></svg>