<svg width="185" height="33" fill="none" xmlns="http://www.w3.org/2000/svg"><g style="mix-blend-mode:luminosity" clip-path="url(#clip0)" fill-rule="evenodd" clip-rule="evenodd"><path d="M163.479 12.048c.486-.035.936-.104 1.348-.104 1.728 0 2.971.277 2.456 2.214-.589 2.253-2.66 2.839-4.527 2.839h-.589l1.312-4.95zm-3.903 7.52c-.415 1.662-1 3.841-2.109 5.365 1.451 0 2.867.07 4.284.07 2.902 0 5.735-.973 6.597-4.329.624-2.322-.896-3.117-2.729-3.568v-.035c1.694-.625 3.388-1.524 3.873-3.395.481-1.837-.832-2.562-2.491-2.562-1.867 0-3.833.209-5.735.209.312.725 0 1.836-.238 2.804l-1.452 5.44zm2.383-1.803h.381c2.417 0 4.492.348 3.7 3.257-.59 2.288-2.14 3.152-4.319 3.152-1.417 0-1.278-.556-.624-3.013l.862-3.396zm-93.507.695c-.793 3.044-2.868 5.853-5.978 5.853-3.487 0-3.487-3.708-2.73-6.513.798-3.048 2.868-5.887 5.979-5.887 3.491 0 3.457 3.704 2.729 6.547zm2.421-.625c.966-3.777-.208-6.855-4.735-6.855-4.492 0-7.74 3.395-8.81 7.41-1.001 3.808.173 6.86 4.734 6.86 4.458-.004 7.741-3.364 8.811-7.415zm18.112-6.508c-.724.83-.966 1.975-1.243 3.048-.659 2.526-1.486 5.197-1.868 7.758-.138.968-.311 1.94-.069 2.805h-3.18c.694-1.073 1.105-2.666 1.417-3.843l1.867-7.063c.035-.209.104-.487-.035-.487-.173 0-.277.174-.38.313L77.717 25.15 76.37 14.692c-.069-.621-.104-1.142-.312-1.142-.173 0-.277.382-.38.694l-1.833 6.93c-.45 1.662-.793 3.047-.52 3.772H70.77l.278-.312c1.07-1.107 2.075-4.468 2.66-6.79l1.416-5.297c.138-.59.208-.899-.243-1.211h2.695c.242 0 .554.034.554.312l.758 9.317c.035.313 0 .66.174.66.207 0 .311-.208.52-.521l6.081-8.865c.312-.452.55-.9 1.105-.9l2.218-.012zm11.258 7.133c-.793 3.048-2.867 5.853-5.978 5.853-3.491 0-3.452-3.708-2.729-6.513.797-3.048 2.868-5.887 5.978-5.887 3.492 0 3.492 3.704 2.729 6.547zm2.422-.625c1-3.777-.174-6.855-4.735-6.855-4.458 0-7.741 3.395-8.811 7.41-.966 3.808.208 6.86 4.735 6.86 4.492-.004 7.736-3.364 8.811-7.415zm17.24 6.235h2.487c1.347 0 2.798-.313 4.046-1.212l-.897 1.94c-.589.07-1.312.14-2.075.14h-6.255c.658-.725 1.035-1.837 1.278-2.805l2.105-8.001c.243-.969.555-2.08.277-2.805h7.499l-.347 1.663c-.585-.66-1.693-.8-2.971-.8h-2.002l-1.347 5.094c1.659 0 3.422 0 5.112-.174-1.07 1.246-3.526 1.246-4.839 1.246h-.55l-1.521 5.713zm34.802-5.61c-.797 3.044-2.867 5.853-5.978 5.853-3.456 0-3.456-3.708-2.729-6.513.797-3.048 2.903-5.887 5.978-5.887 3.487 0 3.487 3.704 2.729 6.547zm2.418-.625c1.005-3.777-.174-6.855-4.7-6.855-4.493 0-7.776 3.395-8.811 7.41-1.001 3.808.173 6.86 4.7 6.86 4.492-.004 7.741-3.364 8.811-7.415zm25.155.625c-.793 3.048-2.903 5.853-5.978 5.853-3.492 0-3.492-3.708-2.729-6.513.797-3.048 2.867-5.887 5.978-5.887 3.456 0 3.456 3.704 2.729 6.547zm2.386-.625c1.001-3.777-.173-6.855-4.7-6.855-4.492 0-7.741 3.395-8.811 7.41-1 3.808.174 6.86 4.7 6.86 4.493-.004 7.772-3.364 8.811-7.415zm-69.907 6.2c-1.104-3.912-1.278-8.484-1.52-12.678h-2.556l-.173.59c-.451 1.664-6.632 9.943-8.638 12.088h-.793l-.381 1.42c.966-.487 1.971-.487 2.902-.487h9.089c.97 0 1.936 0 2.664.486l.381-1.42h-.975zm-7.741-5.054l3.665-5.405c.104-.104.312-.521.515-.521.208 0 .243.382.243.52 0 0 .173 3.118.416 5.128.173 1.455.52 4.016.693 5.336h-8.742c.377-1.216 1.828-3.226 3.21-5.058zm33.97 5.054c-1.104-3.912-1.277-8.484-1.555-12.678h-2.521l-.173.59c-.451 1.664-6.632 9.943-8.638 12.088h-.792l-.386 1.42c.966-.487 1.971-.487 2.902-.487h9.089c.966 0 1.932 0 2.659.486l.381-1.42h-.966zm-7.741-5.054l3.665-5.405c.07-.104.312-.521.52-.521.208 0 .208.382.243.52 0 0 .173 3.118.415 5.128.174 1.455.52 4.016.694 5.336h-8.742c.338-1.216 1.824-3.226 3.205-5.058zM54.49 23.757c-1.382-4.989-1.59-10.806-1.936-16.172h-3.249l-.208.76c-.554 2.08-8.43 12.677-11.024 15.412h-1.001l-.45 1.802c1.208-.626 2.486-.66 3.699-.66h11.575c1.208 0 2.456.034 3.387.66l.45-1.802H54.49zm-9.811-6.439l4.665-6.894c.104-.139.381-.66.658-.66.243 0 .278.452.278.66 0 0 .242 3.947.554 6.547.208 1.837.659 5.093.867 6.79H40.563c.486-1.558 2.353-4.159 4.116-6.443z" fill="#77787B"/><path d="M0 16.45c0 9.109 7.36 16.49 16.413 16.49 9.054 0 16.414-7.377 16.414-16.49C32.83 7.376 25.467 0 16.413 0 7.36 0 0 7.376 0 16.45zm.347 0C.347 7.55 7.533.308 16.413.308c8.88 0 16.102 7.238 16.102 16.142 0 8.935-7.221 16.177-16.102 16.177-8.88 0-16.066-7.238-16.066-16.177z" fill="#006469"/><path d="M1.967 16.45c0-8.001 6.463-14.514 14.442-14.514 7.984 0 14.481 6.513 14.481 14.514 0 8.036-6.497 14.55-14.48 14.55-7.98 0-14.442-6.513-14.442-14.549zm-1.209 0c0 8.692 7.018 15.76 15.655 15.76 8.638 0 15.656-7.064 15.656-15.76 0-8.66-7.014-15.725-15.656-15.725C7.776.73.758 7.793.758 16.45z" fill="#006469"/><path d="M11.852 15.378l-1.59 2.288 9.608-.035-.931-2.253h-7.087zm4.938-6.721l-1.59 2.288 3.319.07.277-2.323-2.006-.035zm-2.452 3.291l-1.897 2.492h6.25l-.272-2.492h-4.08zM7.256 22.03L5.63 24.316l20.737.03-3.214-2.283-15.898-.035zM20.247 3.842l-2.729 3.916h1.486l1.243-3.916zM9.569 18.734L7.945 21.09h14.303l-1.966-2.422-10.713.065zm27.572 10.198a.688.688 0 00.035-.191c0-.074-.026-.13-.108-.191h.775c.082 0 .178.013.182.104l.325 2.926c.013.104 0 .217.052.217.06 0 .104-.07.164-.165l1.854-2.796c.096-.143.182-.286.351-.286h.728c-.225.26-.29.625-.381.964-.204.816-.446 1.667-.563 2.483-.026.182-.057.373-.057.551 0 .118.013.23.048.339h-.996c.203-.339.325-.842.42-1.224l.563-2.258a.37.37 0 00.022-.108c0-.027-.009-.04-.026-.04-.048 0-.083.048-.117.105l-2.417 3.599-.464-3.339c-.026-.2-.052-.36-.104-.36-.047 0-.082.121-.108.226l-.55 2.205c-.087.37-.148.686-.148.925 0 .108.013.204.04.273h-.81c.311-.334.48-.733.623-1.31l.667-2.65zm8.149 2.466c0-1.502 1.147-2.952 2.776-2.952 1.126 0 1.668.742 1.668 1.598 0 1.51-1.14 2.96-2.777 2.96-1.122-.004-1.668-.75-1.668-1.606zm3.777-1.376c0-.647-.308-1.281-1.057-1.281-1.256 0-2.05 1.441-2.05 2.679 0 .647.304 1.28 1.062 1.28 1.256 0 2.045-1.44 2.045-2.678zm8.533-.664h-.021c-.087-.291-.238-.613-.936-.613-1.26 0-2.036 1.325-2.036 2.492 0 .734.394 1.273 1.27 1.273a2.02 2.02 0 001.295-.491l-.013.039c-.074.304-.585.946-1.642.946-.996 0-1.573-.837-1.573-1.74 0-1.594 1.261-2.818 2.781-2.818.395 0 .668.056 1.118.056l-.243.856zm4.865.086c.056-.217.108-.456.108-.66a.627.627 0 00-.034-.23h.91c-.213.23-.3.586-.373.89l-.264 1.06c.095 0 .225-.053.385-.213l1.27-1.19c.194-.178.311-.325.337-.421a.748.748 0 00.026-.13h.84c-.393.278-.705.447-1.073.79l-1.222 1.124.888 1.654c.121.265.307.556.476.778h-.667c-.121 0-.169-.074-.216-.183l-.945-1.85c-.034-.069-.069-.099-.104-.099-.047 0-.086.07-.117.178l-.264 1.068c-.052.213-.108.447-.108.647 0 .087.013.17.039.243h-.91c.204-.23.29-.586.368-.89l.65-2.566zm6.485 1.954c0-1.502 1.148-2.952 2.777-2.952 1.126 0 1.667.742 1.667 1.598 0 1.51-1.139 2.96-2.776 2.96-1.127-.004-1.668-.75-1.668-1.606zm3.773-1.376c0-.647-.308-1.281-1.061-1.281-1.257 0-2.05 1.441-2.05 2.679 0 .647.308 1.28 1.058 1.28 1.265 0 2.053-1.44 2.053-2.678zm6.992.408c0 .013.021.022.056.035.455.095.827.36.827.837 0 1.177-1.104 1.62-2.049 1.62-.463 0-.91-.026-1.369-.026.29-.291.386-.66.516-1.185l.563-2.267c.056-.217.117-.456.117-.66a.643.643 0 00-.039-.23c.598 0 1.087-.07 1.685-.07.455 0 .91.231.91.708 0 .656-.611.982-1.152 1.199-.044.013-.065.026-.065.039zm-1.404 1.259c-.082.339-.143.573-.143.712 0 .191.095.243.351.243.788 0 1.416-.456 1.416-1.341 0-.621-.576-.695-1.247-.695h-.117l-.26 1.08zm.325-1.32h.182c.602 0 1.468-.239 1.468-1.155 0-.395-.355-.456-.827-.456-.13 0-.273.013-.429.026l-.394 1.585zm10.214-1.011h-.021c-.087-.291-.238-.613-.936-.613-1.265 0-2.036 1.325-2.036 2.492 0 .734.394 1.273 1.27 1.273a2.02 2.02 0 001.294-.491l-.012.039c-.074.304-.585.946-1.642.946-.996 0-1.577-.837-1.577-1.74 0-1.594 1.26-2.818 2.781-2.818.394 0 .667.056 1.118.056l-.239.856zm4.87.086c.051-.217.108-.456.108-.66a.63.63 0 00-.035-.23h.91c-.213.23-.3.586-.373.89l-.264 1.06c.095 0 .225-.053.385-.213l1.27-1.19c.195-.178.312-.325.338-.421a.748.748 0 00.026-.13h.84c-.394.278-.706.447-1.074.79l-1.222 1.124.888 1.654c.121.265.303.556.477.778h-.668c-.12 0-.168-.074-.216-.183l-.944-1.85c-.035-.069-.07-.099-.104-.099-.048 0-.087.07-.117.178l-.265 1.068a2.695 2.695 0 00-.108.647c0 .087.013.17.04.243h-.91c.203-.23.29-.586.368-.89l.65-2.566zm7.377 2.375c-.009.04-.009.06.008.06.013 0 .026-.008.048-.025l2.777-3.083c.143-.134.29-.217.467-.217h.382c-.217.274-.308.586-.382.89l-.636 2.557c-.048.204-.104.422-.104.621 0 .096.013.183.043.274h-.923c.213-.274.299-.586.373-.89l.615-2.475c.009-.039.009-.074-.009-.074-.013 0-.034.013-.06.048l-3.089 3.395h-.541c.212-.273.298-.586.372-.89l.637-2.557c.052-.213.104-.421.104-.625a.908.908 0 00-.035-.265h.923c-.217.273-.308.586-.381.89l-.589 2.366zm8.226.001c-.009.038-.009.06.008.06.013 0 .026-.009.048-.026l2.777-3.083c.143-.134.29-.217.468-.217h.381c-.217.274-.303.587-.381.89l-.637 2.558c-.048.204-.104.42-.104.62a.97.97 0 00.039.274h-.923c.212-.274.299-.586.373-.89l.615-2.475c.008-.039.008-.074-.005-.074-.013 0-.034.013-.06.048l-3.089 3.395h-.541c.212-.273.299-.586.372-.89l.637-2.557c.056-.213.104-.421.104-.625a.907.907 0 00-.035-.265h.923c-.217.274-.308.586-.381.89l-.589 2.366zm1.408-4.512c-.013.4.143.673.584.673.477 0 .728-.243.932-.673h.19c-.212.613-.528 1.055-1.182 1.055-.65 0-.815-.477-.698-1.055h.174zm14.537 5.583l-.277-1.905h-1.555c-.433.59-.91 1.259-1.005 1.645-.022.087-.035.17-.039.26h-.849l.195-.19c.502-.491 2.608-3.417 2.768-3.965l.056-.182h.802c.095 1.355.164 2.83.528 4.09l.074.252-.698-.005zm-.442-3.699c-.008-.047 0-.165-.06-.165-.061 0-.135.13-.156.165l-.992 1.524h1.325l-.117-1.524zm5.58 2.614c.069.386.455.903 1.078.903 1.101 0 1.737-.981 1.963-1.919h-.308c-.433 0-1.195-.06-1.356-.404.416.061.979.061 1.733.061.022-.148.035-.29.035-.43 0-.707-.273-1.306-1.079-1.306-.429 0-1.057.277-1.304.65l-.121-.62c.368-.122.931-.304 1.542-.304 1.161 0 1.637.747 1.637 1.598 0 1.367-.97 2.96-2.72 2.96-.728 0-.996-.182-1.304-.43l.204-.759zm8.62-2.362c.052-.217.117-.456.117-.66a.64.64 0 00-.039-.23c.542 0 1.009-.07 1.542-.07.706 0 1.027.457 1.027.934 0 .947-.732 1.572-1.607 1.572-.36 0-.442-.07-.55-.148.039.009.082.009.13.009.619 0 1.386-.443 1.386-1.407 0-.325-.161-.681-.672-.681h-.541l-.81 3.243c-.039.178-.087.395-.087.599 0 .109.013.213.048.29h-.936c.212-.238.299-.62.368-.89l.624-2.56zm6.524 1.954c0-1.502 1.148-2.952 2.777-2.952 1.126 0 1.667.742 1.667 1.598 0 1.51-1.139 2.96-2.776 2.96-1.127-.004-1.668-.75-1.668-1.606zm3.773-1.376c0-.647-.308-1.281-1.057-1.281-1.256 0-2.049 1.441-2.049 2.679 0 .647.303 1.28 1.057 1.28 1.261 0 2.049-1.44 2.049-2.678zm9.023-1.468c-.216.274-.303.586-.381.89l-.637 2.557c-.047.204-.104.434-.104.621a.97.97 0 00.039.274h-.922c.212-.274.298-.586.372-.89l.788-3.178h-1.94l-.789 3.178c-.047.204-.099.434-.099.62a.97.97 0 00.039.274h-.923c.212-.273.299-.586.373-.89l.636-2.557c.057-.213.104-.421.104-.625a.907.907 0 00-.034-.265l3.478-.009zm3.791 2.844c0-1.502 1.147-2.952 2.776-2.952 1.127 0 1.672.742 1.672 1.598 0 1.51-1.139 2.96-2.776 2.96-1.127-.004-1.672-.75-1.672-1.606zm3.777-1.376c0-.647-.303-1.281-1.057-1.281-1.256 0-2.049 1.441-2.049 2.679 0 .647.308 1.28 1.057 1.28 1.26 0 2.049-1.44 2.049-2.678zm5.471-.578c.056-.217.117-.456.117-.66a.64.64 0 00-.039-.23c.541 0 1.009-.07 1.542-.07.706 0 1.027.457 1.027.934 0 .947-.732 1.572-1.607 1.572-.36 0-.442-.07-.55-.148a.605.605 0 00.129.009c.62 0 1.387-.443 1.387-1.407 0-.325-.161-.681-.672-.681h-.541l-.81 3.243c-.039.178-.087.395-.087.599 0 .109.013.213.048.29h-.936c.212-.238.299-.62.368-.89l.624-2.56zm7.2 3.447c.203-.23.29-.586.368-.89l.775-3.108h-.97a.883.883 0 00-.516.147l.256-.49h3.413c-.19.29-.619.338-.896.338h-.68l-.776 3.109a2.709 2.709 0 00-.108.647c0 .087.013.17.039.243l-.905.004z" fill="#006469"/></g><defs><clipPath id="clip0"><path fill="#fff" d="M0 0h185v33H0z"/></clipPath></defs></svg>