<svg width="120" height="60" fill="none" xmlns="http://www.w3.org/2000/svg"><g style="mix-blend-mode:luminosity"><path d="M9.658 14.623c-2.349-.08-4.562-.81-6.342-2.612C.65 9.31.628 5.389 3.264 2.654 6.432-.63 12.207-.909 15.667 2.056c3.792 3.252 3.33 8.593-.971 11.195-1.505.913-3.148 1.333-5.038 1.372zm-1.9 44.523c-2.485.003-4.855-.566-7.19-1.359-.61-.207-.625-.554-.516-1.052A86.545 86.545 0 001.85 44.1c.024-.344.037-.676.506-.38 2.701 1.705 5.825 2.41 8.722 3.647 1.244.532 2.444 1.155 3.417 2.124 2.585 2.574 1.985 6.731-1.219 8.483-1.72.94-3.594 1.175-5.518 1.173zm10.667-15.198c-1.172-.57-2.265-1.175-3.413-1.646-2.072-.849-4.18-1.607-6.266-2.424-.945-.37-1.832-.86-2.64-1.48-2.626-2.007-2.517-5.752.22-7.632 1.558-1.07 3.32-1.358 5.163-1.357 2.107.002 4.14.39 6.131 1.065.761.257.966.571.916 1.436-.18 3.163-.354 6.333-.122 9.505.063.813.011 1.634.011 2.533zm1.453-23.298c-.234 1.47-.474 2.94-.698 4.414-.084.562-.43.288-.683.215a24.84 24.84 0 00-8.099-.95c-2.904.13-5.65.797-8.15 2.297-.603.36-.71.28-.79-.41-.219-1.87-.518-3.733-.834-5.592-.08-.485.008-.722.486-.889 5.987-2.1 11.969-2.48 17.941.039.38.161.968.209.827.875zm19.05 3.627c.505-.478.76-.766 1.059-.992 1.948-1.475 4.487-.497 4.934 1.89.384 2.045.085 4.111.184 6.163.026.524-.254.625-.72.66-2.257.176-2.255.187-2.255-2.052 0-1.088.005-2.178-.004-3.266-.008-.892-.222-1.643-1.314-1.718-.922-.06-1.67.597-1.757 1.643-.071.85-.02 1.71-.022 2.564v1.05c0 1.746-.637 2.205-2.393 1.772-.36-.089-.423-.278-.423-.57 0-2.645.007-5.289-.008-7.933-.002-.531.255-.671.723-.646.273.017.55.024.821-.002.887-.084 1.631-.026 1.175 1.437z" fill="#00ABE6"/><path d="M105.64 29.567c.586-2.073 1.12-3.992 1.671-5.906.193-.672 2.52-1.229 3.005-.728.216.222.002.44-.069.634-.943 2.59-1.908 5.171-2.847 7.764-.188.52-.501.664-1.045.679-2.395.06-2.393.079-3.17-2.127-.72-2.05-1.423-4.11-2.179-6.145-.254-.686-.108-.877.619-.903 2.106-.07 2.111-.099 2.673 1.898.443 1.555.869 3.123 1.342 4.834z" fill="#00ACE7"/><path d="M47.771 27.438c0-.583-.016-1.168.005-1.75.016-.473-.12-.766-.655-.7-.873.107-.823-.475-.79-1.037.03-.498-.217-1.189.715-1.107.692.061.725-.367.732-.887.014-.875 1.901-2.117 2.704-1.776.482.206.268.695.245 1.037-.073 1.039-.047 1.825 1.412 1.661.913-.1.496.765.57 1.222.077.498.002.999-.702.873-1.203-.216-1.36.435-1.273 1.387.051.578.028 1.165.007 1.748-.04 1.081.056 2.005 1.548 1.795.487-.068.462.362.42.645-.083.543.352 1.236-.577 1.545-2.224.74-4.133-.445-4.344-2.794-.057-.618-.01-1.242-.01-1.865 0 .003-.002.003-.007.003z" fill="#00ACE6"/><path d="M90.082 27.442c0-.583-.016-1.168.005-1.748.017-.465-.11-.77-.65-.704-.865.108-.835-.461-.795-1.032.036-.494-.22-1.191.713-1.114.69.059.73-.358.737-.882.014-.896 1.84-2.075 2.709-1.783.24.08.249.27.251.461.005.388.043.782-.004 1.165-.1.82.235 1.159 1.052 1.035.971-.148.922.477.948 1.144.028.727-.158 1.13-.967.999-.829-.134-1.104.215-1.04 1.032.068.889.025 1.787.016 2.681-.007.805.35 1.261 1.19 1.226.41-.016.86-.103.768.51-.087.576.41 1.327-.572 1.66-2.214.75-4.135-.443-4.344-2.787-.056-.618-.01-1.243-.01-1.865-.002.002-.004.002-.007.002z" fill="#00ABE6"/><path d="M87.68 25.392c-.636-.168-1.111-.355-1.6-.412-1.064-.121-2.074.052-2.643 1.079-.546.988-.541 2.033.113 2.976.708 1.025 1.781.91 2.866.845.405-.023.97-1.03 1.243.023.345 1.339.037 1.865-1.043 2.118-1.93.45-3.756.316-5.205-1.212-1.337-1.409-1.506-3.103-.977-4.888.76-2.572 4.215-4.123 6.712-3.054.378.162.55.386.536.791-.016.543-.002 1.084-.002 1.734z" fill="#00ACE7"/><path d="M70.085 25.367c-2.3-.38-3.08.288-3.088 2.506-.005 1.09-.033 2.18.012 3.269.028.669-.219.875-.878.858-2.473-.056-1.955.237-1.993-1.958-.033-1.984.059-3.973-.033-5.955-.05-1.076.334-1.411 1.33-1.252.115.019.237.016.35 0 .942-.14 1.44.173 1.25 1.282.666-.975 1.595-1.78 2.626-1.31.91.412.226 1.598.424 2.56z" fill="#00ABE6"/><path d="M31.289 27.436c0-1.245.03-2.49-.012-3.733-.021-.652.193-.952.864-.865.077.009.155 0 .235 0 2.069.023 1.76-.2 1.774 1.703.017 2.139-.03 4.277.022 6.414.018.814-.231 1.15-1.055 1.039a3.003 3.003 0 00-.819 0c-.863.126-1.06-.281-1.023-1.063.054-1.16.012-2.328.014-3.495z" fill="#00ACE6"/><path d="M99.498 27.447c0 1.205-.033 2.412.012 3.615.025.695-.184.962-.92.94-2.417-.065-1.92.228-1.951-1.874-.03-2.099.02-4.197-.021-6.296-.015-.737.174-1.03.971-1.009 2.3.064 1.867-.173 1.907 1.825.018.932.002 1.865.002 2.799z" fill="#00ABE6"/><path d="M98.281 21.494c-1.186 0-1.716-.559-1.821-1.47-.092-.797.819-1.532 1.736-1.497.913.035 1.553.686 1.528 1.559-.026.873-.669 1.425-1.443 1.408zm-65.444-.005c-.95.014-1.743-.665-1.739-1.49.007-.768.789-1.458 1.666-1.472.916-.014 1.6.603 1.617 1.464.019.88-.602 1.484-1.544 1.498z" fill="#00ADE7"/><path d="M59.718 22.854c-1.887-.522-3.633-.197-4.899 1.361-1.4 1.725-1.53 3.71-.626 5.703.883 1.949 3.045 2.712 5.763 2.152 1.807-.372 1.965-.634 1.436-2.382-3.198.848-4.5.475-4.768-1.439h2.466c.861 0 1.723.005 2.586-.004.335-.005.685.086.822-.422.508-1.88-.873-4.443-2.78-4.97zM59.7 25.91c-.09 1.069-1.015.247-1.48.587-.48-.346-1.349.473-1.528-.531-.11-.618.906-1.402 1.65-1.339.774.068 1.428.43 1.358 1.283zm19.28 4.45c.016-1.28.014-2.563 0-3.845-.029-2.571-1.346-3.886-3.916-3.863a9.633 9.633 0 00-1.967.248c-1.706.38-1.918.791-1.358 2.537.25-.108.492-.225.741-.323.913-.358 1.829-.679 2.836-.393.501.142.861.43.852.966-.012.61-.56.386-.895.473-.94.24-1.946.159-2.859.57-1.365.616-1.972 1.891-1.635 3.482.26 1.236 1.336 1.996 2.781 2.017.97.014 1.73-.39 2.61-1.294-.103 1.102.48 1.074 1.097 1.063 2.019-.04 1.69.196 1.713-1.638zm-2.77-1.933c-.007 1.015-.727 1.706-1.706 1.685-.67-.014-1.118-.288-1.15-1.009-.036-.814.865-1.322 2.216-1.322.532-.002.694.215.64.646z" fill="#00ACE7"/><path d="M117.507 22.98c-1.734-.646-3.41-.477-4.838.774-1.673 1.463-1.782 3.407-1.353 5.37.388 1.783 1.706 2.745 3.468 3.045 1.128.191 2.25.014 3.37-.237 1.172-.262.951-1.158.812-1.841-.183-.908-.795-.131-1.174-.082-.704.089-1.403.152-2.102.065-.696-.086-1.256-.426-1.562-1.088-.21-.454-.148-.746.447-.739.781.012 1.565.002 2.349.002.743 0 1.487.003 2.23-.002.304-.002.598.047.728-.386.508-1.683-.683-4.25-2.375-4.881zm-.386 2.936c-.087 1.074-1.066.204-1.52.569-.522-.239-1.259.328-1.532-.419-.184-.5.897-1.455 1.579-1.441.838.02 1.544.412 1.473 1.291z" fill="#00ACE6"/><path d="M36.669 41.245a5.05 5.05 0 00-2.671-.405c-.58.07-1.085.279-1.23.896-.159.674.218 1.128.785 1.407.734.36 1.51.638 2.243 1.008.939.473 1.506 1.184 1.428 2.321-.077 1.121-.727 1.77-1.685 2.165-1.033.425-2.087.463-3.21.245-1.197-.231-1.435-.826-1.08-1.951.97.533 1.96.828 3.048.72.69-.07 1.25-.31 1.386-1.024.127-.672-.31-1.088-.88-1.353-.706-.327-1.438-.601-2.137-.945-1-.49-1.596-1.31-1.483-2.424.113-1.093.817-1.814 1.867-2.188.793-.28 1.604-.304 2.43-.236 1.045.082 1.61.51 1.189 1.764zm55.416.026c-.882-.342-1.781-.56-2.734-.437-.65.084-1.14.372-1.25 1.034-.1.617.283 1.041.803 1.294.736.358 1.51.639 2.252.99.922.435 1.513 1.167 1.463 2.197-.054 1.092-.651 1.876-1.71 2.293-1.255.491-2.516.5-3.78.084-.668-.22-.68-.318-.51-1.713.939.393 1.873.744 2.913.644.713-.068 1.341-.227 1.492-1.025.141-.747-.322-1.144-.953-1.411-.683-.29-1.38-.555-2.036-.892-.971-.5-1.574-1.25-1.466-2.424.102-1.109.777-1.736 1.74-2.136.816-.34 1.672-.389 2.538-.293 1.318.143 1.46.356 1.238 1.795zm-33.039 5.7c.783-2.134 1.56-4.109 2.226-6.121.322-.976.798-1.446 1.986-1.074-.49 1.24-.974 2.48-1.466 3.716-.602 1.516-1.217 3.028-1.805 4.549-.205.528-.49.783-1.113.779-.628-.003-.796-.365-.965-.81-.922-2.431-1.859-4.857-2.744-7.3-.106-.29-.682-.815.054-1.004.513-.134 1.156-.25 1.429.564.699 2.096 1.454 4.176 2.188 6.261.03.094.085.18.21.44zm16.329-5.672c-2.297-.824-3.645-.606-4.664.704-.845 1.084-.86 3.438-.028 4.514 1.002 1.3 2.235 1.453 4.694.575.342.932-.004 1.43-.936 1.704-2.017.592-3.965.012-5.12-1.589-1.177-1.633-1.105-4.41.157-6.032 1.176-1.512 3.469-2.167 5.304-1.519.763.272.774.302.593 1.643zm-24.885-.183c.818-1.015 1.458-1.607 2.435-1.645.715-.028.95.288.95.976.003.838-.453.548-.917.494-1.217-.138-2.26.875-2.342 2.351-.077 1.393-.014 2.792-.054 4.186-.016.548.304 1.294-.774 1.33-1.094.037-.802-.705-.807-1.26-.019-2.21-.028-4.42.01-6.63.006-.475-.387-1.213.656-1.278.885-.052 1.056.395.842 1.476z" fill="#00ADE7"/><path d="M64.722 44.233c0-1.244.019-2.487-.01-3.732-.011-.556.092-.877.758-.856.558.016.868.115.861.772a387.043 387.043 0 00-.002 7.581c.005.616-.256.796-.842.815-.66.02-.784-.284-.772-.847.026-1.245.007-2.488.007-3.733z" fill="#00AEE7"/><path d="M66.538 36.409c-.112.503-.3.936-.931.978-.626.042-.989-.325-1.034-.852-.049-.582.278-1.032.949-1.057.628-.024.854.414 1.016.931z" fill="#00B2E9"/><path d="M83.07 39.919c-1.264-.742-3.113-.62-4.316.285-1.89 1.42-2.459 4.52-1.247 6.786.979 1.827 3.116 2.496 5.525 1.743.895-.278 1.466-.735 1.1-1.865-.535.232-1.015.496-1.53.65-1.864.565-3.516-.222-3.959-1.855-.176-.653-.166-1.111.772-1.071 1.563.067 3.128.018 4.693.016.383 0 .746.063.826-.538.197-1.514-.617-3.419-1.864-4.151zm-.795 3.346c-.466.004-.935 0-1.4 0-.466 0-.937-.035-1.4.007-1.064.093-.982-.44-.622-1.1.506-.927 1.282-1.409 2.374-1.366.85.032 1.497.33 1.862 1.14.456 1.012.285 1.307-.814 1.319zm-37.069-3.18c-1.221-.868-3.12-.868-4.424-.005-1.998 1.324-2.661 4.596-1.405 6.93 1.007 1.873 3.391 2.528 5.744 1.636.888-.334 1.231-.844.904-1.794-.48.213-.927.451-1.4.613-2.076.706-3.782-.19-4.17-2.083-.139-.678.052-.79.657-.781 1.6.026 3.202.014 4.805.002.358-.002.776.136.896-.463.245-1.208-.555-3.309-1.607-4.055zm-.932 3.187c-.463-.038-.934-.007-1.4-.007-.506 0-1.012-.024-1.518.004-1.016.059-1.016-.386-.623-1.116.54-1.006 1.372-1.408 2.494-1.345.932.051 1.478.526 1.817 1.37.325.815.146 1.169-.77 1.094z" fill="#00ADE7"/></g></svg>