<svg width="184" height="35" fill="none" xmlns="http://www.w3.org/2000/svg"><g style="mix-blend-mode:luminosity" clip-path="url(#clip0)" fill-rule="evenodd" clip-rule="evenodd" fill="#5C2B59"><path d="M12.684 4.82C8.956 2.461 4.61 1.066 0 1.066V28.85h25.394v-.053c0-10.205-5.137-19.16-12.71-23.979z"/><path d="M0 0v.527c4.57 0 8.877 1.106 12.684 3.041 9.22 4.675 15.568 14.248 15.568 25.23v.053h.54V0H0zm127.154 27.744c-.567.698-1.252 1.054-2.042 1.054h-.013c-.132 0-.224-.04-.343-.04-.935-.092-1.712-.618-2.291-1.593-.632-1.066-.962-2.396-.962-3.99 0-1.29.277-2.344.87-3.134.553-.79 1.264-1.198 2.094-1.198h.289c1.015.092 1.805.645 2.371 1.633.58 1.093.883 2.317.883 3.7 0 1.699-.264 2.884-.856 3.569zm-2.371-9.638h-.013c-.251 0-.54.026-.804.066a4.524 4.524 0 00-.869.237c-.975.329-1.87.96-2.687 1.896-.803.935-1.225 2.186-1.225 3.805 0 .106.026.198.026.29v.276c.172 1.212.725 2.344 1.686 3.345.936.988 2.226 1.501 3.859 1.514h.066l-.026-.026c.171 0 .303-.013.474-.013.145-.026.277-.053.422-.053 1.146-.184 2.226-.777 3.187-1.751.962-.988 1.436-2.318 1.436-4.082 0-1.54-.527-2.844-1.555-3.924-1.053-1.04-2.357-1.58-3.977-1.58zM63.26 27.744c-.579.698-1.25 1.054-2.054 1.054-.105 0-.237-.04-.356-.04-.935-.092-1.686-.618-2.265-1.593-.645-1.066-.975-2.396-.975-3.99 0-1.29.303-2.344.856-3.134.58-.79 1.278-1.198 2.134-1.198h.264c1.04.092 1.804.645 2.37 1.633.606 1.093.883 2.317.883 3.7-.026 1.699-.29 2.884-.856 3.569zm-2.357-9.638h-.053a5.47 5.47 0 00-.79.066 4.393 4.393 0 00-.856.237c-.962.329-1.883.96-2.674 1.896-.83.935-1.225 2.186-1.225 3.805v.29c.014.092.014.184.014.276.144 1.212.71 2.344 1.66 3.345.96.988 2.238 1.501 3.858 1.514h.08v-.026c.144 0 .289-.013.434-.013.158-.026.276-.053.448-.053 1.159-.184 2.212-.777 3.174-1.751.948-.988 1.449-2.318 1.449-4.082 0-1.54-.514-2.844-1.58-3.924-1.015-1.04-2.345-1.58-3.939-1.58zm29.925 8.612a5.23 5.23 0 01-.632.987c-.277.277-.698.487-1.252.593-.566.092-1.225.145-1.949.145-.58 0-1.093-.027-1.554-.053-.448-.027-.79-.119-1.04-.264-.238-.158-.396-.408-.488-.816-.092-.395-.145-.948-.145-1.66v-4.423h2.569c.526 0 .96.026 1.264.078.303.04.527.145.724.25.119.12.237.277.29.488.066.184.132.448.184.777 0 .079 0 .145.014.21 0 .053.04.145.04.211h.618v-4.938h-.619c0 .066-.04.145-.04.224-.013.053-.013.132-.013.198-.131.724-.303 1.172-.566 1.33-.263.158-.896.263-1.883.263h-2.57v-5.702c0-.382.053-.592.119-.658.066-.08.276-.119.632-.119h1.936c.777 0 1.383.053 1.805.145.447.092.777.237.961.474.184.198.356.461.514.817.158.355.276.842.408 1.488l.632-.066c-.013-.171-.052-.356-.066-.527 0-.158-.026-.33-.026-.514a38.678 38.678 0 01-.118-1.606 10.644 10.644 0 01-.066-1h-11.09v.552c.987.08 1.633.25 1.87.553.237.277.369 1.093.369 2.476v8.98c0 1.357-.132 2.2-.382 2.476-.264.316-.975.5-2.12.566v.58h11.985c.066-.132.118-.37.197-.712.053-.302.132-.658.224-1.027 0-.013 0-.065.027-.118 0-.027.026-.066.026-.145.092-.395.158-.764.25-1.146.066-.355.119-.619.158-.79l-.645-.066c-.158.58-.369 1.067-.553 1.489zm92.632 1.843c-.171-.026-.369-.132-.606-.303-.224-.184-.5-.447-.856-.79-.184-.21-.501-.54-.882-.935-.343-.421-.738-.843-1.107-1.29-.026-.027-.039-.053-.079-.08a.097.097 0 00-.053-.026 42.68 42.68 0 01-1.172-1.395c-.369-.448-.658-.764-.816-.975.474-.54.843-.974 1.093-1.277.263-.316.513-.566.737-.803.014-.027.053-.08.093-.093.052-.052.079-.065.092-.118.026 0 .039-.026.079-.04a.331.331 0 01.066-.078c.237-.211.447-.409.606-.54.171-.172.355-.316.487-.422.171-.066.329-.145.487-.21.132-.093.316-.119.527-.172l1.014-.21v-.566l-4.781.236v.58l.685.066c.066 0 .145.052.184.066.053.026.079.105.079.197 0 .04 0 .105-.039.21-.026.093-.105.185-.171.304-.092.145-.224.329-.356.513-.145.171-.29.382-.448.58 0 .026-.013.04-.039.065-.027.027-.027.04-.053.066-.184.29-.369.514-.527.75-.184.212-.329.37-.421.488a3.357 3.357 0 01-.606.514c-.224.144-.566.276-1.027.342V11.482c-.238.066-.501.119-.778.185-.276.105-.579.158-.895.21a1.87 1.87 0 01-.29.093c-.079 0-.184.052-.29.079-.263.052-.553.092-.803.158-.277.052-.54.118-.764.17v.488c.053 0 .118 0 .171.026h.158c.725.053 1.172.158 1.304.33.132.158.198.605.198 1.303v12.47c0 .672-.106 1.093-.29 1.29-.171.159-.698.303-1.541.37h-.092v.579h5.716v-.58h-.092c-.79-.079-1.251-.21-1.449-.368-.198-.198-.263-.62-.263-1.29V23.9c.065-.027.158-.053.223-.066h.224c.119 0 .211.026.303.092.092.079.264.224.422.421l2.081 2.436c.118.145.237.277.355.435.119.132.251.276.382.434h.027c.237.356.487.659.724.935.224.29.422.527.527.659h3.122v-.593l-.58-.092zM50.182 20.45c-.58.592-1.238.948-1.923 1.08h-.013a5.83 5.83 0 01-.409.091c-.17 0-.329.027-.46.027-.422 0-.804-.053-1.16-.119-.329-.04-.592-.131-.75-.184v-6.808c0-.25.026-.421.065-.513.027-.092.093-.132.159-.158.105-.027.236-.066.447-.106.224-.013.488-.013.87-.013.447 0 .856.013 1.238.092.724.145 1.317.395 1.751.804.699.579 1.054 1.567 1.054 2.923 0 1.33-.29 2.304-.87 2.884zm1.58-6.387a4.355 4.355 0 00-1.844-.816c-.54-.119-1.08-.184-1.685-.224h-7.021v.553c.988.079 1.594.25 1.844.553.211.316.316 1.133.316 2.515v8.98c0 1.357-.118 2.2-.342 2.476-.25.316-.883.5-1.936.566v.58h6.994v-.58c-1.225-.079-1.963-.263-2.24-.566-.25-.276-.395-1.132-.395-2.476v-3.528l1.87.447h.435c.158 0 .316 0 .474-.026h.119c.053-.013.066-.013.119-.013h.092c.026-.027.079-.027.092-.027a6.315 6.315 0 003.253-1.5c.988-.817 1.489-1.989 1.489-3.49 0-.764-.159-1.449-.435-2.041-.303-.593-.698-1.067-1.199-1.383zm24.604 13.234a3.32 3.32 0 01-.817.447 2.928 2.928 0 01-.566.132c-.198.04-.395.04-.632.04-.198 0-.461-.04-.751-.106a3.575 3.575 0 01-.896-.342c-.592-.303-1.106-.79-1.567-1.475-.474-.671-.711-1.633-.711-2.857 0-1.08.21-1.936.658-2.528.422-.593.91-.988 1.436-1.238.158-.04.33-.119.474-.145.158-.04.316-.04.461-.04.422 0 .843.066 1.264.211.422.132.883.421 1.37.856.106.066.172.119.224.145a.42.42 0 00.171.026c.04 0 .093 0 .145-.026.04 0 .093-.053.145-.08a1.32 1.32 0 00.369-.42c.119-.185.184-.382.184-.58a.813.813 0 00-.065-.329c-.053-.066-.106-.158-.198-.21a1.516 1.516 0 00-.514-.304c-.184-.092-.395-.158-.619-.237-.197-.04-.395-.065-.592-.105-.185-.026-.343-.026-.488-.026-.329 0-.79.04-1.383.17-.58.106-1.172.343-1.765.672-.184.093-.342.211-.526.303a4.43 4.43 0 00-.462.356c-.684.553-1.238 1.25-1.672 2.054-.422.803-.62 1.66-.62 2.594 0 1.356.462 2.594 1.41 3.66.948 1.08 2.226 1.607 3.82 1.607.158 0 .303-.013.46-.04a2.77 2.77 0 00.475-.118c.593-.158 1.172-.474 1.712-.922a6.592 6.592 0 001.436-1.62l-.33-.328a8.672 8.672 0 01-1.04.803zm37.999-.461c-.541.685-1.094 1.12-1.726 1.37-.158.039-.316.091-.474.105-.026 0-.026 0-.026.026a2.915 2.915 0 01-.461.053 4.24 4.24 0 01-1.502-.277 3.053 3.053 0 01-1.027-.724V20.41a1.92 1.92 0 01.474-.303c.158-.092.303-.197.461-.237.25-.118.514-.21.751-.29a2.87 2.87 0 01.724-.079 3 3 0 01.58.04 3.162 3.162 0 012.015 1.106c.658.764.988 1.87.988 3.371.013 1.198-.251 2.133-.777 2.818zm2.779-4.977c-.145-.935-.606-1.791-1.331-2.568-.698-.764-1.712-1.172-2.937-1.172h-.184c-.079.026-.171.026-.224.026-.066.013-.132.013-.237.04-.013 0-.066.026-.092.026-.027.026-.066.026-.079.04-.238.105-.475.21-.725.329-.237.131-.461.237-.698.355a8.076 8.076 0 00-.764.356c-.25.118-.5.224-.711.369v-1.805c-.105.027-.158.053-.263.066-.066.053-.145.066-.238.106-.065.026-.158.04-.263.066a2.179 2.179 0 01-.237.065c-.487.132-.975.277-1.475.409-.461.144-.935.263-1.357.355v.474c.079 0 .119.026.185.026h.158c.698.066 1.145.158 1.29.316.145.159.211.606.211 1.29v11.68c0 .672-.105 1.094-.276 1.278-.159.158-.659.303-1.462.382h-.04c-.026 0-.053.026-.079.026V35h6.085v-.606h-.105c-1.041-.066-1.647-.21-1.857-.368-.224-.198-.303-.606-.303-1.265v-3.726l.079.079c.052.013.065.026.144.066.172.052.356.158.62.197.237.08.461.132.75.145.488-.092.962-.197 1.396-.355a8.167 8.167 0 003.214-1.87c1.238-1.159 1.87-2.713 1.87-4.675 0-.118 0-.25-.026-.369.013-.118 0-.276-.039-.395zm24.432 5.701a4.255 4.255 0 01-1.923.87c-.211.012-.422.052-.659.052-1.027.026-1.685-.171-1.962-.54-.264-.355-.395-1.132-.395-2.291v-4.424c0-.33.066-.567.224-.633.158-.065.645-.118 1.501-.118.461 0 .883.053 1.291.118.724.158 1.357.422 1.857.843.79.593 1.199 1.607 1.199 3.029-.014 1.461-.395 2.502-1.133 3.094zm-1.923-7.835h-2.99l-.026-5.003c0-.448.039-.711.131-.79.093-.08.369-.119.843-.119h2.042c.659 0 1.146.053 1.528.145.448.092.777.237.974.474.172.197.356.46.501.816.158.356.277.843.395 1.488l.632-.066c0-.17-.039-.355-.052-.526 0-.158-.027-.33-.027-.514-.039-.566-.092-1.093-.118-1.606-.053-.514-.079-.843-.106-1.001h-11.063v.553c.974.079 1.607.25 1.817.553.251.316.369 1.133.369 2.515v8.98c0 1.357-.145 2.2-.395 2.476-.224.316-.883.5-1.963.566v.58h5.835c.567 0 1.133-.027 1.647-.106.368-.026.724-.092 1.08-.145.843-.17 1.554-.42 2.199-.803a4.721 4.721 0 001.633-1.54c.396-.632.58-1.488.58-2.49 0-1.316-.461-2.356-1.383-3.199-.856-.777-2.239-1.198-4.083-1.238zm13.382 7.453a7.55 7.55 0 01-.435.33c-.171.092-.329.184-.487.276a3.23 3.23 0 01-.711.29c-.079.013-.198.04-.29.066-.106.026-.198.026-.29.026-.053 0-.079 0-.158-.026-.053 0-.119-.04-.171-.04-.329-.053-.632-.263-.909-.58-.29-.302-.435-.75-.435-1.303 0-.474.119-.843.343-1.12.211-.276.566-.54.974-.776.132-.053.303-.145.514-.237.04-.026.079-.053.119-.066.184-.066.368-.171.579-.25.027 0 .053-.04.053-.04h.066c.224-.105.461-.224.685-.316.237-.092.421-.184.553-.237v4.003zm3.069.843a2.146 2.146 0 01-.474.066c-.185 0-.33-.119-.461-.33-.145-.21-.211-.552-.211-1.026v-5.623c0-.435-.079-.882-.171-1.304-.119-.421-.382-.803-.804-1.119a3.582 3.582 0 00-.711-.382 2.616 2.616 0 00-.817-.184c-.079 0-.145 0-.21-.026h-.264a4.75 4.75 0 00-.882.21c-.198.04-.356.119-.514.158-.448.185-.843.369-1.185.54-.277.171-.527.303-.778.448-.197.145-.395.263-.513.368a2.379 2.379 0 00-.619.567.69.69 0 00-.237.513c0 .158.079.303.21.448.145.145.29.224.475.303a.964.964 0 00.21.066c.093.026.145.026.185.026a.73.73 0 00.382-.118c.105-.093.197-.198.197-.343.158-.54.356-1.04.659-1.462.303-.434.777-.645 1.409-.645h.145c.606.014 1.067.237 1.409.58.343.421.527 1.014.527 1.777v.856a4.926 4.926 0 01-.751.369c-.303.145-.632.316-.987.448-.079.04-.132.079-.211.079-.053.04-.079.052-.106.052-.118.04-.237.093-.342.145-.303.105-.606.224-.922.316-.277.105-.54.224-.79.33-.659.25-1.159.605-1.449 1.013-.316.409-.487.922-.487 1.515v.158c0 .052.026.118.026.158.092.645.395 1.211.935 1.738.527.513 1.225.79 2.094.79.198 0 .488-.119.856-.316.04-.04.119-.066.158-.08.317-.184.672-.394 1.054-.631 0-.027.027-.053.066-.053a.264.264 0 00.053-.04c.145-.105.276-.17.395-.263.118-.066.263-.145.382-.224 0 .093.026.158.039.224.04.092.079.158.106.264.092.263.25.487.461.724.197.21.474.355.777.421l2.529-1.238-.224-.54a3.483 3.483 0 01-.619.277zm14.264.645c-.751-.079-1.185-.21-1.383-.369-.158-.197-.224-.618-.224-1.29V20.66c0-.671.066-1.12.224-1.277.158-.184.606-.303 1.37-.395h.066v-.566h-5.348v.566h.106c.737.092 1.172.21 1.343.395.184.158.263.606.263 1.277v2.45h-5.11v-2.45c0-.671.079-1.12.237-1.277.171-.184.593-.303 1.317-.395h.066v-.566h-5.361v.566h.093c.777.092 1.238.21 1.396.395.197.158.263.606.263 1.277v6.347c0 .672-.066 1.093-.263 1.29-.158.159-.606.303-1.357.37h-.105v.579h5.374v-.58h-.066c-.751-.079-1.199-.21-1.357-.369-.158-.197-.237-.618-.237-1.29v-3.12h5.11v3.12c0 .672-.079 1.093-.237 1.29-.171.159-.606.303-1.356.37h-.079v.579h5.36v-.58h-.105zm-69.425-.711c-.421.356-.961.553-1.607.593h-.21c-.738 0-1.265-.105-1.581-.33-.343-.236-.514-.776-.514-1.58v-2.857h1.502c.276 0 .54 0 .803.04.54.092 1.001.25 1.396.513.606.395.909.975.909 1.804 0 .817-.237 1.422-.698 1.817zm-3.925-8.203c0-.277.08-.461.185-.54.131-.066.592-.105 1.317-.105.276 0 .54.04.803.092.369.066.724.184 1.001.368.514.317.777.804.777 1.488 0 .725-.224 1.238-.698 1.528a2.992 2.992 0 01-1.067.434c-.21.04-.434.066-.658.066h-1.66v-3.331zm5.901 4.398a4.89 4.89 0 00-2.173-.87v-.052c.131-.026.25-.066.382-.105.144-.027.302-.092.447-.145.435-.184.804-.474 1.12-.777.329-.342.514-.816.514-1.396 0-.856-.343-1.461-1.028-1.83-.672-.382-1.567-.566-2.647-.566h-6.125v.54c.764.065 1.251.21 1.423.395.184.197.276.763.276 1.685v5.557c0 .922-.118 1.475-.276 1.672-.198.21-.698.356-1.515.395v.58h5.308c.184 0 .382 0 .553-.027h.158c.119 0 .25-.013.369-.013 1.054-.092 2.015-.355 2.871-.803.87-.461 1.317-1.225 1.317-2.318 0-.803-.329-1.461-.974-1.922z"/><path d="M12.684 4.82C8.956 2.461 4.61 1.066 0 1.066V28.85h25.394v-.053c0-10.205-5.137-19.16-12.71-23.979z"/><path d="M0 0v.527c4.57 0 8.877 1.106 12.684 3.041 9.22 4.675 15.568 14.248 15.568 25.23v.053h.54V0H0zm127.154 27.744c-.567.698-1.252 1.054-2.042 1.054h-.013c-.132 0-.224-.04-.343-.04-.935-.092-1.712-.618-2.291-1.593-.632-1.066-.962-2.396-.962-3.99 0-1.29.277-2.344.87-3.134.553-.79 1.264-1.198 2.094-1.198h.289c1.015.092 1.805.645 2.371 1.633.58 1.093.883 2.317.883 3.7 0 1.699-.264 2.884-.856 3.569zm-2.371-9.638h-.013c-.251 0-.54.026-.804.066a4.524 4.524 0 00-.869.237c-.975.329-1.87.96-2.687 1.896-.803.935-1.225 2.186-1.225 3.805 0 .106.026.198.026.29v.276c.172 1.212.725 2.344 1.686 3.345.936.988 2.226 1.501 3.859 1.514h.066l-.026-.026c.171 0 .303-.013.474-.013.145-.026.277-.053.422-.053 1.146-.184 2.226-.777 3.187-1.751.962-.988 1.436-2.318 1.436-4.082 0-1.54-.527-2.844-1.555-3.924-1.053-1.04-2.357-1.58-3.977-1.58zM63.26 27.744c-.579.698-1.25 1.054-2.054 1.054-.105 0-.237-.04-.356-.04-.935-.092-1.686-.618-2.265-1.593-.645-1.066-.975-2.396-.975-3.99 0-1.29.303-2.344.856-3.134.58-.79 1.278-1.198 2.134-1.198h.264c1.04.092 1.804.645 2.37 1.633.606 1.093.883 2.317.883 3.7-.026 1.699-.29 2.884-.856 3.569zm-2.357-9.638h-.053a5.47 5.47 0 00-.79.066 4.393 4.393 0 00-.856.237c-.962.329-1.883.96-2.674 1.896-.83.935-1.225 2.186-1.225 3.805v.29c.014.092.014.184.014.276.144 1.212.71 2.344 1.66 3.345.96.988 2.238 1.501 3.858 1.514h.08v-.026c.144 0 .289-.013.434-.013.158-.026.276-.053.448-.053 1.159-.184 2.212-.777 3.174-1.751.948-.988 1.449-2.318 1.449-4.082 0-1.54-.514-2.844-1.58-3.924-1.015-1.04-2.345-1.58-3.939-1.58zm29.925 8.612a5.23 5.23 0 01-.632.987c-.277.277-.698.487-1.252.593-.566.092-1.225.145-1.949.145-.58 0-1.093-.027-1.554-.053-.448-.027-.79-.119-1.04-.264-.238-.158-.396-.408-.488-.816-.092-.395-.145-.948-.145-1.66v-4.423h2.569c.526 0 .96.026 1.264.078.303.04.527.145.724.25.119.12.237.277.29.488.066.184.132.448.184.777 0 .079 0 .145.014.21 0 .053.04.145.04.211h.618v-4.938h-.619c0 .066-.04.145-.04.224-.013.053-.013.132-.013.198-.131.724-.303 1.172-.566 1.33-.263.158-.896.263-1.883.263h-2.57v-5.702c0-.382.053-.592.119-.658.066-.08.276-.119.632-.119h1.936c.777 0 1.383.053 1.805.145.447.092.777.237.961.474.184.198.356.461.514.817.158.355.276.842.408 1.488l.632-.066c-.013-.171-.052-.356-.066-.527 0-.158-.026-.33-.026-.514a38.678 38.678 0 01-.118-1.606 10.644 10.644 0 01-.066-1h-11.09v.552c.987.08 1.633.25 1.87.553.237.277.369 1.093.369 2.476v8.98c0 1.357-.132 2.2-.382 2.476-.264.316-.975.5-2.12.566v.58h11.985c.066-.132.118-.37.197-.712.053-.302.132-.658.224-1.027 0-.013 0-.065.027-.118 0-.027.026-.066.026-.145.092-.395.158-.764.25-1.146.066-.355.119-.619.158-.79l-.645-.066c-.158.58-.369 1.067-.553 1.489zm92.632 1.843c-.171-.026-.369-.132-.606-.303-.224-.184-.5-.447-.856-.79-.184-.21-.501-.54-.882-.935-.343-.421-.738-.843-1.107-1.29-.026-.027-.039-.053-.079-.08a.097.097 0 00-.053-.026 42.68 42.68 0 01-1.172-1.395c-.369-.448-.658-.764-.816-.975.474-.54.843-.974 1.093-1.277.263-.316.513-.566.737-.803.014-.027.053-.08.093-.093.052-.052.079-.065.092-.118.026 0 .039-.026.079-.04a.331.331 0 01.066-.078c.237-.211.447-.409.606-.54.171-.172.355-.316.487-.422.171-.066.329-.145.487-.21.132-.093.316-.119.527-.172l1.014-.21v-.566l-4.781.236v.58l.685.066c.066 0 .145.052.184.066.053.026.079.105.079.197 0 .04 0 .105-.039.21-.026.093-.105.185-.171.304-.092.145-.224.329-.356.513-.145.171-.29.382-.448.58 0 .026-.013.04-.039.065-.027.027-.027.04-.053.066-.184.29-.369.514-.527.75-.184.212-.329.37-.421.488a3.357 3.357 0 01-.606.514c-.224.144-.566.276-1.027.342V11.482c-.238.066-.501.119-.778.185-.276.105-.579.158-.895.21a1.87 1.87 0 01-.29.093c-.079 0-.184.052-.29.079-.263.052-.553.092-.803.158-.277.052-.54.118-.764.17v.488c.053 0 .118 0 .171.026h.158c.725.053 1.172.158 1.304.33.132.158.198.605.198 1.303v12.47c0 .672-.106 1.093-.29 1.29-.171.159-.698.303-1.541.37h-.092v.579h5.716v-.58h-.092c-.79-.079-1.251-.21-1.449-.368-.198-.198-.263-.62-.263-1.29V23.9c.065-.027.158-.053.223-.066h.224c.119 0 .211.026.303.092.092.079.264.224.422.421l2.081 2.436c.118.145.237.277.355.435.119.132.251.276.382.434h.027c.237.356.487.659.724.935.224.29.422.527.527.659h3.122v-.593l-.58-.092zM50.182 20.45c-.58.592-1.238.948-1.923 1.08h-.013a5.83 5.83 0 01-.409.091c-.17 0-.329.027-.46.027-.422 0-.804-.053-1.16-.119-.329-.04-.592-.131-.75-.184v-6.808c0-.25.026-.421.065-.513.027-.092.093-.132.159-.158.105-.027.236-.066.447-.106.224-.013.488-.013.87-.013.447 0 .856.013 1.238.092.724.145 1.317.395 1.751.804.699.579 1.054 1.567 1.054 2.923 0 1.33-.29 2.304-.87 2.884zm1.58-6.387a4.355 4.355 0 00-1.844-.816c-.54-.119-1.08-.184-1.685-.224h-7.021v.553c.988.079 1.594.25 1.844.553.211.316.316 1.133.316 2.515v8.98c0 1.357-.118 2.2-.342 2.476-.25.316-.883.5-1.936.566v.58h6.994v-.58c-1.225-.079-1.963-.263-2.24-.566-.25-.276-.395-1.132-.395-2.476v-3.528l1.87.447h.435c.158 0 .316 0 .474-.026h.119c.053-.013.066-.013.119-.013h.092c.026-.027.079-.027.092-.027a6.315 6.315 0 003.253-1.5c.988-.817 1.489-1.989 1.489-3.49 0-.764-.159-1.449-.435-2.041-.303-.593-.698-1.067-1.199-1.383zm24.604 13.234a3.32 3.32 0 01-.817.447 2.928 2.928 0 01-.566.132c-.198.04-.395.04-.632.04-.198 0-.461-.04-.751-.106a3.575 3.575 0 01-.896-.342c-.592-.303-1.106-.79-1.567-1.475-.474-.671-.711-1.633-.711-2.857 0-1.08.21-1.936.658-2.528.422-.593.91-.988 1.436-1.238.158-.04.33-.119.474-.145.158-.04.316-.04.461-.04.422 0 .843.066 1.264.211.422.132.883.421 1.37.856.106.066.172.119.224.145a.42.42 0 00.171.026c.04 0 .093 0 .145-.026.04 0 .093-.053.145-.08a1.32 1.32 0 00.369-.42c.119-.185.184-.382.184-.58a.813.813 0 00-.065-.329c-.053-.066-.106-.158-.198-.21a1.516 1.516 0 00-.514-.304c-.184-.092-.395-.158-.619-.237-.197-.04-.395-.065-.592-.105-.185-.026-.343-.026-.488-.026-.329 0-.79.04-1.383.17-.58.106-1.172.343-1.765.672-.184.093-.342.211-.526.303a4.43 4.43 0 00-.462.356c-.684.553-1.238 1.25-1.672 2.054-.422.803-.62 1.66-.62 2.594 0 1.356.462 2.594 1.41 3.66.948 1.08 2.226 1.607 3.82 1.607.158 0 .303-.013.46-.04a2.77 2.77 0 00.475-.118c.593-.158 1.172-.474 1.712-.922a6.592 6.592 0 001.436-1.62l-.33-.328a8.672 8.672 0 01-1.04.803zm37.999-.461c-.541.685-1.094 1.12-1.726 1.37-.158.039-.316.091-.474.105-.026 0-.026 0-.026.026a2.915 2.915 0 01-.461.053 4.24 4.24 0 01-1.502-.277 3.053 3.053 0 01-1.027-.724V20.41a1.92 1.92 0 01.474-.303c.158-.092.303-.197.461-.237.25-.118.514-.21.751-.29a2.87 2.87 0 01.724-.079 3 3 0 01.58.04 3.162 3.162 0 012.015 1.106c.658.764.988 1.87.988 3.371.013 1.198-.251 2.133-.777 2.818zm2.779-4.977c-.145-.935-.606-1.791-1.331-2.568-.698-.764-1.712-1.172-2.937-1.172h-.184c-.079.026-.171.026-.224.026-.066.013-.132.013-.237.04-.013 0-.066.026-.092.026-.027.026-.066.026-.079.04-.238.105-.475.21-.725.329-.237.131-.461.237-.698.355a8.076 8.076 0 00-.764.356c-.25.118-.5.224-.711.369v-1.805c-.105.027-.158.053-.263.066-.066.053-.145.066-.238.106-.065.026-.158.04-.263.066a2.179 2.179 0 01-.237.065c-.487.132-.975.277-1.475.409-.461.144-.935.263-1.357.355v.474c.079 0 .119.026.185.026h.158c.698.066 1.145.158 1.29.316.145.159.211.606.211 1.29v11.68c0 .672-.105 1.094-.276 1.278-.159.158-.659.303-1.462.382h-.04c-.026 0-.053.026-.079.026V35h6.085v-.606h-.105c-1.041-.066-1.647-.21-1.857-.368-.224-.198-.303-.606-.303-1.265v-3.726l.079.079c.052.013.065.026.144.066.172.052.356.158.62.197.237.08.461.132.75.145.488-.092.962-.197 1.396-.355a8.167 8.167 0 003.214-1.87c1.238-1.159 1.87-2.713 1.87-4.675 0-.118 0-.25-.026-.369.013-.118 0-.276-.039-.395zm24.432 5.701a4.255 4.255 0 01-1.923.87c-.211.012-.422.052-.659.052-1.027.026-1.685-.171-1.962-.54-.264-.355-.395-1.132-.395-2.291v-4.424c0-.33.066-.567.224-.633.158-.065.645-.118 1.501-.118.461 0 .883.053 1.291.118.724.158 1.357.422 1.857.843.79.593 1.199 1.607 1.199 3.029-.014 1.461-.395 2.502-1.133 3.094zm-1.923-7.835h-2.99l-.026-5.003c0-.448.039-.711.131-.79.093-.08.369-.119.843-.119h2.042c.659 0 1.146.053 1.528.145.448.092.777.237.974.474.172.197.356.46.501.816.158.356.277.843.395 1.488l.632-.066c0-.17-.039-.355-.052-.526 0-.158-.027-.33-.027-.514-.039-.566-.092-1.093-.118-1.606-.053-.514-.079-.843-.106-1.001h-11.063v.553c.974.079 1.607.25 1.817.553.251.316.369 1.133.369 2.515v8.98c0 1.357-.145 2.2-.395 2.476-.224.316-.883.5-1.963.566v.58h5.835c.567 0 1.133-.027 1.647-.106.368-.026.724-.092 1.08-.145.843-.17 1.554-.42 2.199-.803a4.721 4.721 0 001.633-1.54c.396-.632.58-1.488.58-2.49 0-1.316-.461-2.356-1.383-3.199-.856-.777-2.239-1.198-4.083-1.238zm13.382 7.453a7.55 7.55 0 01-.435.33c-.171.092-.329.184-.487.276a3.23 3.23 0 01-.711.29c-.079.013-.198.04-.29.066-.106.026-.198.026-.29.026-.053 0-.079 0-.158-.026-.053 0-.119-.04-.171-.04-.329-.053-.632-.263-.909-.58-.29-.302-.435-.75-.435-1.303 0-.474.119-.843.343-1.12.211-.276.566-.54.974-.776.132-.053.303-.145.514-.237.04-.026.079-.053.119-.066.184-.066.368-.171.579-.25.027 0 .053-.04.053-.04h.066c.224-.105.461-.224.685-.316.237-.092.421-.184.553-.237v4.003zm3.069.843a2.146 2.146 0 01-.474.066c-.185 0-.33-.119-.461-.33-.145-.21-.211-.552-.211-1.026v-5.623c0-.435-.079-.882-.171-1.304-.119-.421-.382-.803-.804-1.119a3.582 3.582 0 00-.711-.382 2.616 2.616 0 00-.817-.184c-.079 0-.145 0-.21-.026h-.264a4.75 4.75 0 00-.882.21c-.198.04-.356.119-.514.158-.448.185-.843.369-1.185.54-.277.171-.527.303-.778.448-.197.145-.395.263-.513.368a2.379 2.379 0 00-.619.567.69.69 0 00-.237.513c0 .158.079.303.21.448.145.145.29.224.475.303a.964.964 0 00.21.066c.093.026.145.026.185.026a.73.73 0 00.382-.118c.105-.093.197-.198.197-.343.158-.54.356-1.04.659-1.462.303-.434.777-.645 1.409-.645h.145c.606.014 1.067.237 1.409.58.343.421.527 1.014.527 1.777v.856a4.926 4.926 0 01-.751.369c-.303.145-.632.316-.987.448-.079.04-.132.079-.211.079-.053.04-.079.052-.106.052-.118.04-.237.093-.342.145-.303.105-.606.224-.922.316-.277.105-.54.224-.79.33-.659.25-1.159.605-1.449 1.013-.316.409-.487.922-.487 1.515v.158c0 .052.026.118.026.158.092.645.395 1.211.935 1.738.527.513 1.225.79 2.094.79.198 0 .488-.119.856-.316.04-.04.119-.066.158-.08.317-.184.672-.394 1.054-.631 0-.027.027-.053.066-.053a.264.264 0 00.053-.04c.145-.105.276-.17.395-.263.118-.066.263-.145.382-.224 0 .093.026.158.039.224.04.092.079.158.106.264.092.263.25.487.461.724.197.21.474.355.777.421l2.529-1.238-.224-.54a3.483 3.483 0 01-.619.277zm14.264.645c-.751-.079-1.185-.21-1.383-.369-.158-.197-.224-.618-.224-1.29V20.66c0-.671.066-1.12.224-1.277.158-.184.606-.303 1.37-.395h.066v-.566h-5.348v.566h.106c.737.092 1.172.21 1.343.395.184.158.263.606.263 1.277v2.45h-5.11v-2.45c0-.671.079-1.12.237-1.277.171-.184.593-.303 1.317-.395h.066v-.566h-5.361v.566h.093c.777.092 1.238.21 1.396.395.197.158.263.606.263 1.277v6.347c0 .672-.066 1.093-.263 1.29-.158.159-.606.303-1.357.37h-.105v.579h5.374v-.58h-.066c-.751-.079-1.199-.21-1.357-.369-.158-.197-.237-.618-.237-1.29v-3.12h5.11v3.12c0 .672-.079 1.093-.237 1.29-.171.159-.606.303-1.356.37h-.079v.579h5.36v-.58h-.105zm-69.425-.711c-.421.356-.961.553-1.607.593h-.21c-.738 0-1.265-.105-1.581-.33-.343-.236-.514-.776-.514-1.58v-2.857h1.502c.276 0 .54 0 .803.04.54.092 1.001.25 1.396.513.606.395.909.975.909 1.804 0 .817-.237 1.422-.698 1.817zm-3.925-8.203c0-.277.08-.461.185-.54.131-.066.592-.105 1.317-.105.276 0 .54.04.803.092.369.066.724.184 1.001.368.514.317.777.804.777 1.488 0 .725-.224 1.238-.698 1.528a2.992 2.992 0 01-1.067.434c-.21.04-.434.066-.658.066h-1.66v-3.331zm5.901 4.398a4.89 4.89 0 00-2.173-.87v-.052c.131-.026.25-.066.382-.105.144-.027.302-.092.447-.145.435-.184.804-.474 1.12-.777.329-.342.514-.816.514-1.396 0-.856-.343-1.461-1.028-1.83-.672-.382-1.567-.566-2.647-.566h-6.125v.54c.764.065 1.251.21 1.423.395.184.197.276.763.276 1.685v5.557c0 .922-.118 1.475-.276 1.672-.198.21-.698.356-1.515.395v.58h5.308c.184 0 .382 0 .553-.027h.158c.119 0 .25-.013.369-.013 1.054-.092 2.015-.355 2.871-.803.87-.461 1.317-1.225 1.317-2.318 0-.803-.329-1.461-.974-1.922z"/></g><defs><clipPath id="clip0"><path fill="#fff" d="M0 0h184v35H0z"/></clipPath></defs></svg>