<svg width="130" height="45" fill="none" xmlns="http://www.w3.org/2000/svg"><g style="mix-blend-mode:luminosity" clip-path="url(#clip0)" fill-rule="evenodd" clip-rule="evenodd"><path d="M8.848 0L6.633 5.886H37.31L39.525 0H8.848zm-3.32 8.828l-2.215 5.886h30.68l2.214-5.886H5.527zm-3.313 8.829L0 23.542h30.677l2.212-5.885H2.215z" fill="#009FDF"/><path d="M65.218 25.784v.123c1.403.5 2.742 1.373 3.442 1.935 2.169 1.748 3.124 4.056 3.124 7.049 0 4.93-2.678 8.484-7.077 9.608-1.339.372-2.742.498-5.357.498H46.026V8.941h11.796c2.423 0 4.08.124 5.546.499 4.273 1.123 7.077 3.993 7.077 8.547 0 2.434-.892 4.495-2.358 5.865-.638.622-1.53 1.373-2.87 1.932zM53.422 29.59v9.482h5.1c1.53 0 2.931-.123 3.954-1.06 1.02-.937 1.465-2.121 1.465-3.68 0-1.184-.319-2.308-.957-3.12-1.084-1.31-2.423-1.622-4.719-1.622h-4.843zm-.065-6.24h4.145c1.277 0 1.912 0 2.55-.186 1.723-.499 2.808-1.995 2.808-4.056 0-2.43-1.15-3.494-2.807-3.992-.703-.187-1.401-.25-2.805-.25H53.36v8.485h-.003zM82.879 45V14.992H72.232v-6.05h29.587l-2.104 6.05h-9.437V45h-7.4zm21.233 0V8.941h23.976l-2.104 6.051h-14.538v7.986h5.931c4.781 0 7.269 1.123 8.991 2.557 1.339 1.123 3.635 3.617 3.635 8.547 0 4.864-2.358 7.547-4.335 8.92-2.293 1.56-4.719 1.998-9.627 1.998h-11.929zm7.334-6.051h5.549c2.104 0 3.378-.499 4.273-1.622.446-.562 1.084-1.56 1.084-3.431 0-1.872-.638-3.182-1.911-4.12-.766-.56-1.785-.87-3.508-.87h-5.484v10.043h-.003z" fill="#0A2973"/></g><defs><clipPath id="clip0"><path fill="#fff" d="M0 0h130v45H0z"/></clipPath></defs></svg>