<svg width="190" height="31" fill="none" xmlns="http://www.w3.org/2000/svg"><g style="mix-blend-mode:luminosity" clip-path="url(#clip0)" fill-rule="evenodd" clip-rule="evenodd"><path d="M11.787.39a15.004 15.004 0 018.723.59 15.181 15.181 0 014.218 2.463l-2.965 2.23a11.429 11.429 0 00-8.778-1.87c-1.605.311-3.142.98-4.483 1.94a11.85 11.85 0 00-3.299 3.598c-1.435 2.393-1.987 5.32-1.533 8.087a12.03 12.03 0 002.641 5.798 11.804 11.804 0 003.317 2.748 11.38 11.38 0 004.858 1.417 11.403 11.403 0 005.46-1.023c2.558-1.169 4.673-3.31 5.835-5.91a12.158 12.158 0 001.061-5.282c1.09-.82 2.18-1.643 3.274-2.46a15.942 15.942 0 01-.476 7.524 15.61 15.61 0 01-2.184 4.384c-1.71 2.4-4.105 4.285-6.82 5.35-1.623.64-3.36.982-5.1 1.03h-.727a15.15 15.15 0 01-3.796-.59 14.96 14.96 0 01-4.629-2.27 15.57 15.57 0 01-5.29-6.855 15.88 15.88 0 01-.766-8.995 15.547 15.547 0 012.779-6.188c2.122-2.86 5.25-4.93 8.68-5.716zm31.586 5.995c1.305-.45 2.7-.572 4.07-.523a12.25 12.25 0 013.342.66c.843.293 1.664.671 2.416 1.161-.974.742-1.951 1.469-2.928 2.207a8.311 8.311 0 00-1.127-.434c-.552-.167-1.13-.237-1.707-.263-.796-.034-1.606.003-2.37.245-.439.14-.871.36-1.184.712-.377.423-.526 1.035-.42 1.595.075.408.348.75.675.983.501.363 1.09.556 1.671.734 1.715.494 3.506.753 5.134 1.514.737.348 1.438.82 1.954 1.469.465.578.749 1.294.858 2.029.149 1.02.058 2.088-.345 3.038-.33.79-.88 1.476-1.54 2.003-1.112.88-2.493 1.335-3.877 1.525a13.717 13.717 0 01-3.935-.07 13.223 13.223 0 01-3.027-.847c-.672-.289-1.326-.634-1.9-1.098l1.341-3.127a9.994 9.994 0 003.186 1.532c1.072.3 2.191.445 3.303.367.534-.037 1.072-.118 1.573-.315.33-.13.647-.319.89-.586a1.754 1.754 0 00.392-1.595c-.098-.393-.374-.716-.694-.942-.534-.375-1.158-.575-1.776-.76-1.137-.323-2.303-.553-3.433-.902-.996-.308-1.988-.705-2.809-1.369a4.202 4.202 0 01-1.413-2.088c-.462-1.617-.204-3.472.8-4.826.722-.972 1.765-1.644 2.88-2.03zM15.18 15.054c-1.926-1.232-3.851-2.467-5.777-3.699v4.47c1.93 1.228 3.851 2.47 5.784 3.695 4.607-3.476 9.221-6.94 13.832-10.413a15.744 15.744 0 00-1.828-3.09L15.18 15.054zM57.495 6.17h7.416c.9.003 1.805-.026 2.703.081.94.108 1.874.334 2.728.76.698.353 1.337.854 1.78 1.514.433.627.662 1.384.705 2.148.058.975-.141 1.984-.657 2.819-.436.716-1.09 1.272-1.824 1.654.643.204 1.264.509 1.784.95.737.608 1.25 1.484 1.46 2.422a5.792 5.792 0 01-.003 2.523 4.144 4.144 0 01-1.225 2.114c-.574.538-1.279.902-2.012 1.154-.952.322-1.955.463-2.958.508-.915.037-1.831.015-2.747.022h-7.157c.007-6.228.007-12.449.007-18.67zm3.946 3.123v4.544h3.212c.6-.007 1.202.022 1.802-.048.6-.074 1.217-.238 1.693-.634.374-.305.606-.772.661-1.254.076-.583-.036-1.22-.414-1.677-.403-.497-1.028-.734-1.635-.842-.61-.119-1.235-.082-1.853-.09h-3.466zm0 7.656v4.763h4.796c.585.008 1.177-.033 1.747-.185.52-.137 1.036-.4 1.356-.853.326-.453.417-1.04.374-1.588-.037-.453-.193-.909-.505-1.243-.302-.334-.712-.541-1.134-.675-.832-.256-1.711-.223-2.569-.223-1.351.004-2.706.004-4.065.004zM77.383 6.17h13.839c-1.38 1.043-2.765 2.082-4.15 3.124H81.34v4.544h8.41v3.112h-8.41v4.767h9.867v3.12H77.38c.003-6.225.003-12.446.003-18.666zm17.487 0h5.657c.813.008 1.627-.014 2.445.015 1.348.06 2.706.338 3.916.972 1.025.534 1.915 1.35 2.482 2.374.581 1.032.824 2.237.799 3.417 0 1.25-.32 2.519-1.006 3.565-.654 1.008-1.632 1.776-2.714 2.255 1.337 2.021 2.677 4.043 4.014 6.065-1.413.004-2.826 0-4.243 0-1.167-1.766-2.336-3.528-3.503-5.29-1.3 0-2.601-.004-3.902.004.004 1.762 0 3.524 0 5.286H94.87V6.17zm3.945 3.124v7.14h3.554c.763-.01 1.544-.13 2.227-.496.483-.26.901-.653 1.17-1.143.363-.645.468-1.41.439-2.148-.025-.72-.211-1.458-.647-2.04-.396-.53-.973-.894-1.594-1.087-.625-.2-1.287-.245-1.941-.226h-3.208z" fill="#363F47"/><path d="M159.02 6.825c1.809-.753 3.808-.908 5.737-.734.89.082 1.776.27 2.612.6.694.268 1.392.568 2.002 1.006-.004 1.543 0 3.086 0 4.63-.89-1.284-2.169-2.286-3.622-2.809a6.927 6.927 0 00-2.969-.419c-1.457.086-2.913.627-3.989 1.655a5.599 5.599 0 00-1.304 1.925c-.429 1.035-.581 2.177-.531 3.298.062 1.498.542 3.023 1.548 4.14.592.674 1.359 1.172 2.18 1.498.774.308 1.606.445 2.434.471 1.708.045 3.452-.419 4.858-1.424a5.884 5.884 0 001.744-1.944v3.861c-.015.097.032.216-.044.293-.36.42-.817.742-1.29 1.017-.824.471-1.729.779-2.652.987a10.99 10.99 0 01-2.914.256c-1.907-.052-3.833-.53-5.449-1.577a8.25 8.25 0 01-3.027-3.52c-.788-1.692-1.006-3.613-.868-5.468.145-1.855.81-3.676 1.973-5.119.944-1.168 2.194-2.062 3.571-2.623zm-39.402-.5h15.383V9.38h-6.125v15.476h-3.252V9.381h-6.009c.003-1.02 0-2.04.003-3.056zm18.613 0h12.549V9.38h-9.301v4.403h8.345v3.057h-8.345v4.96h9.592v3.056h-12.84V6.325zm35.347 0h3.248v7.46h9.922v-7.46H190v18.532h-3.252v-8.016h-9.922v8.016h-3.252c.004-6.18 0-12.356.004-18.532z" fill="#3075F3"/></g><defs><clipPath id="clip0"><path fill="#fff" d="M0 0h190v31H0z"/></clipPath></defs></svg>