<svg width="100" height="65" fill="none" xmlns="http://www.w3.org/2000/svg"><path fill-rule="evenodd" clip-rule="evenodd" d="M26.377 2.472C28.843.724 31.907-.136 34.921.017c2.523.11 5.014.93 7.094 2.365 2.052 1.406 3.705 3.409 4.63 5.723a12.169 12.169 0 01-1.035 11.07c-.048.06-.081.17-.18.15-2.114.002-4.23-.002-6.345.002a8.15 8.15 0 002.272-2.656 8.005 8.005 0 00.846-4.974 8.058 8.058 0 00-3.225-5.284 8.024 8.024 0 00-10.696 1.141 7.998 7.998 0 00-2.003 4.44 7.954 7.954 0 00.714 4.333 8.086 8.086 0 002.44 2.997c-2.14.004-4.281-.002-6.422.003a12.417 12.417 0 01-1.484-3.155 12.198 12.198 0 01-.194-6.365c.698-2.96 2.56-5.597 5.044-7.335zM1.095.812c1.54-.005 3.08 0 4.62-.002.002 2.48 0 4.962.002 7.442 2.503 0 5.006-.003 7.51.002.006-2.482 0-4.962.002-7.444 1.529 0 3.058-.002 4.586.002-.004 6.172.005 12.344-.004 18.515-1.527-.006-3.055.002-4.583-.003.002-2.31.001-4.62 0-6.929H5.716v6.931h-4.62c-.003-6.17.001-12.343-.001-18.514zM50.707.81c1.147 0 2.294-.002 3.44.002 2.18 3.29 4.368 6.574 6.548 9.865C62.885 7.392 65.065 4.1 67.25.81h3.439v18.515l-4.602.001c-.007-3.079.01-6.158-.008-9.236-1.377 2.106-2.738 4.22-4.109 6.33-.851-.01-1.703.002-2.554-.006-1.364-2.133-2.745-4.254-4.12-6.378.003 1.103-.02 2.206.015 3.307-.002 1.994.001 3.988-.001 5.983-1.536-.008-3.073.012-4.609-.01.015-6.169.002-12.337.007-18.506zM74.5.81c4.669.004 9.337-.007 14.006.005-.008 1.339 0 2.677-.004 4.016h-9.4v3.35h8.219v3.95c-2.74 0-5.48-.002-8.22.001l.001 3.19h9.401c0 1.334-.002 2.668 0 4.001-4.666.006-9.334.001-14.002.002-.002-6.171-.002-12.343-.001-18.515zM29.9 14.688c.442 1.365 1.543 2.503 2.907 2.96 1.213.412 2.605.285 3.712-.365a4.694 4.694 0 002.103-2.594c-2.907-.003-5.814-.001-8.721 0zM8.32 23.377c1.712-.224 3.488-.074 5.11.53a8.597 8.597 0 013.51 2.418c.988 1.13 1.652 2.524 1.979 3.985-1.63.003-3.26 0-4.892.001-.364-.887-1.005-1.67-1.85-2.135-1.024-.565-2.25-.688-3.391-.493-1.115.19-2.169.767-2.894 1.64-.83.985-1.228 2.287-1.217 3.563-.014 1.31.401 2.648 1.271 3.642.792.921 1.954 1.492 3.156 1.624 1.217.143 2.527-.082 3.523-.832.633-.463 1.101-1.123 1.402-1.842 1.631 0 3.262-.002 4.893 0-.482 2.212-1.794 4.258-3.705 5.496-2.31 1.528-5.273 1.858-7.939 1.244-2.387-.547-4.557-2.039-5.845-4.131a9.558 9.558 0 01-1.393-4.282c-.13-1.563.068-3.165.649-4.626a9.069 9.069 0 012.32-3.376c1.457-1.344 3.354-2.172 5.313-2.426zm13.2.251h6.205c1.34.011 2.694-.064 4.016.201 1.447.28 2.869.91 3.9 1.987.86.875 1.4 2.041 1.575 3.252.204 1.447.01 2.98-.715 4.263-.539.979-1.371 1.775-2.325 2.347 1.453 2.16 2.91 4.319 4.355 6.483-1.794-.002-3.59 0-5.385 0-1.171-1.785-2.34-3.572-3.508-5.36-1.166-.002-2.332 0-3.498 0v5.36h-4.62V23.628zm4.62 4.073v4.938h3.489c.814-.015 1.653-.253 2.277-.795a2.244 2.244 0 00.752-2.001 2.18 2.18 0 00-.822-1.417c-.655-.53-1.519-.718-2.345-.725H26.14zm14.62-4.072h14.002c.001 1.34.002 2.68 0 4.02h-9.399v3.367l8.219.001-.001 3.932h-8.217c-.002 1.063-.001 2.127-.001 3.191 3.134.002 6.267-.003 9.4.003v4.016c-4.667.003-9.336.002-14.003 0V23.63zm17.073 0c2.5 0 4.999-.003 7.498 0 1.64.018 3.294.321 4.786 1.021 1.975.905 3.624 2.542 4.448 4.562.623 1.487.804 3.134.642 4.73-.16 1.58-.724 3.125-1.667 4.405-1.375 1.892-3.537 3.12-5.813 3.568-1.482.318-3.007.235-4.513.246h-5.38c-.002-6.178-.002-12.355 0-18.532zm4.62 4.161l-.001 10.208c.7.003 1.398 0 2.098.001.496-.005.995.023 1.489-.05a5.364 5.364 0 002.708-1.155 4.997 4.997 0 001.729-2.852c.292-1.364.025-2.855-.804-3.988-.963-1.361-2.62-2.142-4.272-2.165l-2.947.001zm15.326 14.37c0-6.177-.002-12.355.001-18.532h4.62v18.533h-4.62zm7.02-18.532H100v4.126h-5.308V42.16c-1.53 0-3.058.004-4.587-.002.002-4.801.001-9.602.001-14.404h-5.309l.001-4.126zM1.288 46.446c2.935 0 5.87-.002 8.804.001 1.346.02 2.726.209 3.929.846.947.492 1.745 1.308 2.123 2.316a4.998 4.998 0 01-.192 3.945c-.418.837-1.114 1.556-1.999 1.892.88.226 1.722.678 2.298 1.393.881 1.052 1.165 2.504.962 3.84a4.502 4.502 0 01-1.174 2.42c-.8.853-1.9 1.375-3.027 1.64-.91.22-1.849.277-2.78.257H1.288v-18.55zm4.62 3.791v3.843c1.207.001 2.413.002 3.62 0 .71-.024 1.466-.207 1.985-.723.646-.627.751-1.798.106-2.462-.553-.526-1.36-.639-2.091-.659-1.206.002-2.413 0-3.62.001zm-.005 7.22c.014 1.238.002 2.475.006 3.713h3.477c.684.005 1.388.022 2.043-.208.486-.165.947-.482 1.167-.96.29-.623.205-1.457-.332-1.923-.568-.511-1.374-.608-2.107-.63-1.418.006-2.836-.011-4.254.009zm19.483-11.011c1.476 0 2.952-.002 4.427 0 2.617 6.185 5.24 12.367 7.856 18.552-1.643-.002-3.284-.002-4.926 0-.429-1.062-.834-2.133-1.263-3.194h-7.823a457.144 457.144 0 01-1.231 3.194c-1.641-.005-3.283.002-4.924-.004 2.625-6.184 5.254-12.367 7.884-18.548zm2.18 5.317c-.803 2.063-1.603 4.127-2.407 6.19 1.607.019 3.216 0 4.824.01-.805-2.067-1.598-4.139-2.417-6.2zm11.622-5.315a518.03 518.03 0 013.526 0c2.964 3.481 5.956 6.938 8.914 10.425.03-3.475.002-6.952.013-10.428h4.584c.002 6.184 0 12.367 0 18.551-1.104.002-2.208-.003-3.313.002-.101-.014-.236.035-.304-.067-2.932-3.357-5.868-6.712-8.798-10.07v10.135h-4.62c-.003-6.183 0-12.366-.002-18.548zm20.848-.003h4.62c.002 2.825-.002 5.65 0 8.475 2.473-2.815 4.911-5.661 7.383-8.477 1.821.006 3.643 0 5.465.003-2.29 2.655-4.598 5.296-6.898 7.943-.052.08-.218.165-.11.268 2.53 3.449 5.07 6.892 7.602 10.34h-5.78c-1.648-2.303-3.3-4.602-4.949-6.904-.906 1.043-1.803 2.093-2.71 3.135-.008 1.256 0 2.512-.004 3.768h-4.62v-18.55z" fill="#DB0022"/></svg>