<svg width="146" height="30" fill="none" xmlns="http://www.w3.org/2000/svg"><path fill-rule="evenodd" clip-rule="evenodd" d="M65.477 19.458c-2.969 0-4.221-2.28-4.221-4.548 0-2.224 1.298-4.176 4.266-4.176 2.969 0 4.041 2.55 4.041 4.368 0 1.805-1.117 4.356-4.086 4.356zm.418-12.54c-2.179 0-3.759 1.028-4.177 1.344.136-.508.599-4.74 6.502-4.74h3.623L73.186 0h-4.921c-6.501 0-11.423 2.878-11.423 12.957 0 5.53 2.461 9.932 8.545 9.932 5.756 0 8.59-4.04 8.59-7.99-.046-5.61-4.414-7.98-8.082-7.98zM6.919 10.87H4.695V3.804h2.326c1.614 0 4.266.982 4.266 3.577 0 2.551-2.652 3.488-4.368 3.488zM7.337 0H0v22.573h4.695v-7.946h2.551c4.786 0 8.782-2.46 8.782-7.29C16.028 2.505 12.032 0 7.337 0zm77.6 6.919l5.993 15.654h-4.876l-3.488-9.988h-.045l-3.477 9.988h-4.83L80.206 6.92h4.73zM146 0l-11.468 30h-4.695l11.479-30H146zM50.104 6.919h3.849v15.654h-4.504V13.42l-4.368 5.53h-1.208l-.09-.135-4.323-5.294v9.098h-4.549v-15.7h3.85l.09.135 5.62 6.501 5.633-6.636zm-23.128 9.153c0 2.133-1.252 3.623-3.668 3.623-2.325 0-2.506-1.298-2.506-1.806 0-1.162 1.118-1.952 3.714-2.133.7-.045 1.445-.09 2.178-.09h.328v.418h-.046v-.012zm4.233-1.727v-.925c-.237-4.876-2.37-6.874-7.01-6.874-3.16 0-5.158 1.208-5.902 1.716l1.207 3.205s1.908-1.58 4.323-1.58c3.386 0 3.07 2.698 3.07 2.698-1.162 0-10.451-.463-10.451 5.338 0 3.206 2.742 4.966 5.846 4.966 2.743 0 4.222-1.343 4.74-1.862 0 .09.091 1.49.091 1.49h4.222s-.136-1.343-.136-3.488v-4.684zm87.905 5.113c-2.969 0-4.639-2.46-4.639-4.785s1.67-4.786 4.639-4.786c2.968 0 4.549 2.133 4.549 4.786 0 2.697-1.581 4.785-4.549 4.785zm.564-12.912c-2.878 0-4.639 1.535-5.158 2.043V6.92h-4.368V30h4.503v-8.962c.508.508 2.326 1.908 4.967 1.908 4.176 0 8.036-3.014 8.036-8.217.045-5.485-4.176-8.183-7.98-8.183zm-23.962 6.456c.135-1.072 1.252-3.16 3.995-3.16 3.07 0 3.578 2.325 3.623 3.16h-7.618zM99.7 6.546c-5.057 0-8.5 3.578-8.5 8.217 0 4.639 3.488 8.171 8.635 8.171 5.159 0 7.382-3.532 7.382-3.532l-3.296-2.133s-1.117 2.223-4.04 2.223c-3.014 0-4.222-2.46-4.222-3.431h11.931s.045-.7.045-.88v-.508c.056-4.64-2.867-8.127-7.935-8.127z" fill="#305DFB"/></svg>