<svg width="190" height="39" fill="none" xmlns="http://www.w3.org/2000/svg"><g style="mix-blend-mode:luminosity" clip-path="url(#clip0)" fill-rule="evenodd" clip-rule="evenodd"><path d="M.008.406C12.847.398 25.681.41 38.52.402c.066 2.38.008 4.77.029 7.155v25.002c-.017 2.024.033 4.048-.025 6.072-10.855-.008-21.71-.004-32.57-.008-1.987-.012-3.97.016-5.953-.024C.008 25.866-.004 13.138.008.406z" fill="#2B2A29"/><path d="M.703 1.1c12.373-.009 24.745.003 37.117-.005.061 2.296.008 4.596.025 6.896v24.093c-.017 1.951.032 3.902-.025 5.853-10.463-.008-20.926-.004-31.389-.008-1.913-.012-3.822.02-5.732-.02.004-12.274-.008-24.54.004-36.81z" fill="#FFF500"/><path d="M51.71 32.433c.968.024 1.978-.09 2.91.231.413.126.76.483.785.925.013.556-.077 1.18-.51 1.574-.434.381-1.027.499-1.583.568-.724.08-1.456.056-2.18.065.18-1.128.381-2.243.577-3.363zm16.137.677c.896-1.687 1.775-3.382 2.69-5.062.328 1.688.655 3.375.974 5.062-1.219-.004-2.441 0-3.664 0zm62.348-25.059c.695-.146 1.48-.048 2.045.406.576.446.87 1.172.915 1.882.066.77-.073 1.606-.58 2.223-.83 1.034-2.629 1.083-3.492.065-.724-.889-.83-2.174-.417-3.217.249-.66.822-1.204 1.529-1.359zm-64.515 0c.61-.121 1.276-.068 1.816.252.687.397 1.079 1.172 1.14 1.943.078.803-.04 1.68-.576 2.316-.83 1.034-2.63 1.087-3.492.065-.683-.844-.81-2.049-.47-3.059.229-.726.818-1.354 1.582-1.517zm50.728-.417c.687-.004 1.382.26 1.856.758.581.588.826 1.432.843 2.243.024.767-.135 1.566-.593 2.199a2.53 2.53 0 01-2.11 1.042c.008-2.08 0-4.161.004-6.242zm-4.951.43c.421-.3.94-.414 1.451-.438.033 2.084.004 4.173.013 6.262-.769.004-1.534-.332-2.012-.933-.622-.762-.769-1.8-.658-2.75.094-.835.486-1.675 1.206-2.141zM98.5 7.63c.777-.008 1.558.336 2.032.953.519.653.699 1.509.666 2.324-.012.876-.319 1.793-1.01 2.369-.466.397-1.079.6-1.688.608-.008-2.085 0-4.17 0-6.254zm-5.516.953a2.532 2.532 0 012.028-.95v6.255c-.732 0-1.463-.3-1.942-.856-.54-.6-.752-1.423-.756-2.21-.017-.791.167-1.61.67-2.24zm76.013-1.026c.654-.56 1.651-.621 2.412-.236.74.394 1.124 1.225 1.19 2.028-1.489.02-2.977.005-4.465.009.049-.678.323-1.363.863-1.801zM50.417 3.586c.863.036 1.783-.126 2.597.251.51.231.81.775.846 1.318.09.69-.11 1.513-.765 1.87-.817.446-1.782.276-2.674.309-.008-1.25-.008-2.5-.004-3.748zm31.168 19.627c-.863 5.261-1.73 10.518-2.584 15.779 1.41.008 2.821-.004 4.232.004.376-2.26.732-4.523 1.1-6.786 1.925 0 3.851.004 5.777-.004-.327 2.263-.72 4.518-1.075 6.782 1.402.008 2.805.004 4.207 0 .842-5.261 1.725-10.518 2.563-15.779-1.402-.004-2.804.004-4.207-.004-.343 1.96-.65 3.927-.977 5.89-1.93 0-3.864.004-5.794 0 .32-1.963.646-3.922.97-5.886-1.403.004-2.805.004-4.212.004zM59.911 38.968c1.533 0 3.07-.005 4.604.004.54-.893 1.075-1.79 1.599-2.686 1.995-.008 3.99-.004 5.99-.004.208.905.425 1.81.63 2.718h4.726c-1.24-5.265-2.494-10.522-3.737-15.782h-4.698a7551.348 7551.348 0 00-9.114 15.75zm38.515-15.775c1.46-.004 2.92-.004 4.379 0-.364 2.182-.773 4.356-1.116 6.543 2.143-2.17 4.265-4.365 6.395-6.543 1.795.004 3.594 0 5.389.004-2.621 2.507-5.275 4.981-7.904 7.48 1.946 2.774 3.909 5.54 5.855 8.319-1.877.008-3.757.008-5.634.004-1.501-2.296-2.989-4.6-4.502-6.887-.404 2.295-.776 4.595-1.169 6.891-1.451 0-2.899 0-4.35-.004.887-5.273 1.77-10.542 2.657-15.807zm-49.562-.016c-.916 5.269-1.816 10.546-2.72 15.819 2.29-.012 4.58-.012 6.866-.037 1.745-.04 3.61-.32 5.016-1.44.79-.596 1.292-1.492 1.538-2.433.163-.673.306-1.367.212-2.057a3.497 3.497 0 00-1.39-2.413c-.748-.588-1.68-.892-2.613-1.038-1.202-.187-2.424-.102-3.634-.122.167-1.055.339-2.105.502-3.16 2.196 0 4.388.004 6.583-.004.168-1.038.34-2.073.503-3.107-3.622-.008-7.24.004-10.863-.008zm129.508-6.88c1.329.005 2.657.005 3.986 0 0-1.5-.004-2.997.004-4.498h3.652c.004 1.501 0 2.998.004 4.499 1.324.004 2.653.004 3.978 0-.008-3.752.024-7.504-.016-11.256-1.321.02-2.642 0-3.962.008-.004 1.322 0 2.64-.004 3.963-1.219-.008-2.437 0-3.656-.004-.004-1.323 0-2.64 0-3.96-1.324-.003-2.649.009-3.974-.007-.029 3.752-.004 7.504-.012 11.256zM139.321 5.05c-.004 3.748-.004 7.5 0 11.248 1.284.004 2.572-.004 3.86.004 1.329-2.045 2.6-4.125 3.937-6.162.016 2.053.004 4.105.008 6.158 1.329.008 2.654.004 3.983.004V5.054c-1.272-.004-2.543 0-3.811-.004-1.337 1.992-2.633 4.016-3.982 5.999-.025-2 .012-4-.017-6-1.333.005-2.653-.003-3.978 0zm-64.515 0c-.004 3.748-.004 7.5 0 11.248 1.284.004 2.568-.004 3.852.004a597.56 597.56 0 003.941-6.194c.033 2.064-.012 4.13.02 6.19h3.97c.005-3.748.005-7.5 0-11.248-1.27-.004-2.543 0-3.81-.004-1.341 1.991-2.637 4.015-3.99 6.003-.021-2 .008-4.003-.013-6.003-1.32.008-2.645 0-3.97.004zm92.563.231c-1.525.722-2.588 2.215-2.903 3.845-.376 1.895-.106 4.028 1.161 5.557 1.096 1.339 2.854 2.004 4.563 2.028 1.673.065 3.468-.332 4.702-1.52.675-.625 1.117-1.445 1.431-2.296-1.275-.05-2.551-.033-3.827-.009-.11.483-.441.9-.887 1.124-.936.446-2.216.34-2.919-.475-.47-.54-.654-1.261-.646-1.963 2.792-.012 5.585.017 8.378-.012.036-1.691-.303-3.468-1.342-4.843-.793-1.07-2.04-1.76-3.352-1.971-1.468-.231-3.022-.114-4.359.535zm-14.187.463c.343.843.711 1.679 1.063 2.518.903-.572 1.954-.957 3.033-.953.434.016.92.061 1.252.373.302.256.319.714.179 1.063-.175.394-.641.52-1.042.531-.72.013-1.435.013-2.155 0-.033.82-.004 1.64-.012 2.459.687 0 1.374-.017 2.061.012.421.024.903.105 1.165.47.262.406.114.998-.286 1.262-.528.36-1.211.316-1.816.275-1.014-.077-1.95-.51-2.8-1.038-.377.868-.683 1.769-1.039 2.645 2.061 1.168 4.53 1.638 6.869 1.192 1.034-.199 2.081-.673 2.711-1.541.683-.893.817-2.19.241-3.172-.401-.718-1.157-1.176-1.942-1.38.212-.15.458-.259.658-.433.965-.791 1.231-2.223.781-3.35-.27-.682-.859-1.201-1.521-1.501-1.026-.475-2.183-.572-3.304-.524-1.41.102-2.825.447-4.096 1.092zm-26.969.044c-1.206 1.08-1.766 2.702-1.889 4.275-.111 1.712.237 3.541 1.357 4.896a4.79 4.79 0 003.999 1.752 4.415 4.415 0 003.34-1.736c0 .443-.004.885 0 1.327 1.272.004 2.544.004 3.815 0 0-3.748.004-7.5-.004-11.252-1.272.008-2.543-.004-3.815.008-.004.446.004.892-.008 1.343-.58-.694-1.288-1.335-2.187-1.574-1.562-.426-3.386-.146-4.608.961zm-65.075.6c-1.035 1.323-1.41 3.055-1.333 4.706.07 1.638.658 3.334 1.922 4.441 1.316 1.18 3.324 1.513 4.959.844.72-.292 1.333-.8 1.811-1.4.004.439.004.873 0 1.31 1.276.025 2.552.005 3.823.009.004-3.752.008-7.504 0-11.256-1.271.012-2.543 0-3.819.004-.008.446.004.896-.008 1.347-.376-.422-.756-.856-1.25-1.152-.95-.609-2.143-.694-3.235-.536a4.534 4.534 0 00-2.87 1.683zM147.433.004c-.123.398-.327.791-.679 1.034-.544.378-1.263.386-1.889.256-.621-.142-1.079-.682-1.218-1.286-.867.308-1.721.653-2.588.957a3.93 3.93 0 001.594 1.874c1.305.78 2.936.9 4.4.556 1.279-.296 2.49-1.176 2.935-2.434a378.71 378.71 0 01-2.555-.957zm-34.762 0c.008 1.627-.004 3.249.004 4.872-1.602.02-3.287.38-4.53 1.448-1.12.94-1.664 2.405-1.729 3.833-.103 1.61.249 3.354 1.406 4.547 1.239 1.29 3.103 1.756 4.845 1.764 0 1.574.004 3.148 0 4.721 1.325.013 2.65-.004 3.974.009.021-1.578.004-3.152.008-4.73 1.607-.016 3.296-.398 4.531-1.464.961-.82 1.512-2.024 1.668-3.253.225-1.748-.033-3.7-1.276-5.046-1.239-1.347-3.148-1.817-4.927-1.834.004-1.626 0-3.249 0-4.871-1.32.004-2.645 0-3.974.004zm-17.9 0V4.88c-1.709.012-3.524.442-4.771 1.67-.965.938-1.427 2.284-1.489 3.603-.106 1.602.237 3.342 1.386 4.534 1.24 1.306 3.116 1.777 4.874 1.785.004 1.574-.008 3.148.004 4.726 1.32 0 2.641-.005 3.962.004.037-1.574.008-3.152.012-4.73 1.452-.012 2.952-.316 4.15-1.168 1.059-.734 1.75-1.915 1.983-3.164.213-1.184.192-2.425-.159-3.577a4.806 4.806 0 00-1.824-2.527c-1.198-.84-2.698-1.148-4.146-1.148-.012-1.63.013-3.261-.012-4.888-1.32.004-2.65 0-3.97.004zm-11.853 0c-.119.402-.327.791-.675 1.034-.543.382-1.267.386-1.897.252-.621-.146-1.075-.682-1.222-1.282-.863.312-1.718.65-2.58.961.396.982 1.21 1.773 2.187 2.175.977.401 2.065.51 3.112.38 1.03-.125 2.052-.522 2.788-1.26.356-.374.695-.8.838-1.303-.85-.312-1.7-.64-2.551-.957zm-36.957 0c-.009 5.431-.005 10.863-.005 16.294 1.485.004 2.969 0 4.453.004.012-1.793-.004-3.586.008-5.379 1.562-.032 3.19.154 4.686-.393a4.84 4.84 0 002.756-2.438c.956-1.939.793-4.425-.552-6.145C56.48.884 55.189.267 53.868.093c-1.038-.142-2.09-.065-3.132-.085C49.142.004 47.551 0 45.961.004zM6.648 3.78c1.721-.718 3.844-.353 5.217.897 1.914 1.947 3.835 3.881 5.74 5.832-.494.516-1.03.99-1.492 1.534 1.03 1.075 2.106 2.105 3.16 3.16 1.06-1.055 2.119-2.11 3.174-3.164-.49-.528-1.047-1.002-1.5-1.562 1.95-1.939 3.855-3.918 5.793-5.865 1.406-1.213 3.537-1.55 5.242-.791 1.365.592 2.428 1.708 3.234 2.932a9.81 9.81 0 011.55 5.274c-.491-.503-.945-1.047-1.473-1.51-1.934 1.96-3.851 3.931-5.806 5.87-.51-.499-1.01-1.006-1.512-1.509-.025-1.387 0-2.778-.033-4.166-.527.593-1.153 1.12-1.648 1.736-.016 1.469-.008 2.937 0 4.405-.016.134.041.317-.086.418-.756.779-1.529 1.537-2.281 2.32 3.84 3.833 7.686 7.654 11.534 11.48-1.505 1.545-3.063 3.033-4.58 4.562-3.826-3.776-7.637-7.564-11.46-11.345-.078-.101-.217-.146-.29-.02-3.827 3.788-7.65 7.577-11.481 11.361a604.574 604.574 0 01-4.588-4.55c2.56-2.532 5.103-5.083 7.659-7.618 1.283-1.298 2.6-2.568 3.876-3.878-.781-.799-1.57-1.586-2.351-2.385 0-1.59.004-3.184-.005-4.774-.568-.556-1.091-1.156-1.676-1.695-.012 1.387-.004 2.77-.012 4.157-.52.495-.986 1.05-1.546 1.497-1.856-1.898-3.733-3.78-5.589-5.679-.07-.057-.172-.231-.27-.113-.478.45-.887.969-1.382 1.403.017-2.008.646-4.024 1.84-5.654.793-1.083 1.787-2.053 3.042-2.56z" fill="#1F1A17"/></g><defs><clipPath id="clip0"><path fill="#fff" d="M0 0h190v39H0z"/></clipPath></defs></svg>