<svg width="167" height="25" fill="none" xmlns="http://www.w3.org/2000/svg"><path d="M68.778.424V24.32h17.445v-2.459H71.472v-8.366h13.042V11.04H71.472V2.88h14.58V.425H68.777zm48.475 0v23.898h14.376v-2.494h-11.681V.424h-2.695zm22.401 0h-2.699V24.32h2.699V.424zm-112.449 0L16.795 24.37h2.766l2.836-6.316H34.55l2.798 6.316h2.9L29.84.424h-2.635zm1.284 3.02L33.49 15.63H23.452L28.49 3.443zm73.276 9.176h-6.45V2.917h6.485c3.874 0 6.564 1.777 6.564 4.716 0 3.144-2.997 4.987-6.599 4.987zm9.232 11.718l-4.597-10.11c2.523-1.235 4.707-3.589 4.707-6.632 0-1.944-.686-3.619-1.853-4.778-1.509-1.507-4.302-2.394-7.25-2.394h-9.397v23.914h2.708v-9.293h7.825l.737-.003 4.204 9.296h2.916zm-97.281-12.88H2.707V2.92H17.87l.008-2.496H0v23.915h2.707V13.918h10.997l.012-2.46zm41.39 10.455c3.634 0 5.897-1.606 5.897-4.337 0-2.598-2.196-4.102-6.379-4.102h-7.08v8.439h7.562zm-.961-10.83c3.258 0 5.52-1.469 5.52-4.34 0-2.357-1.886-3.892-5.315-3.892h-6.806v8.232h6.601zM44.868.422h9.723c2.742 0 4.938.75 6.276 2.12.992 1.026 1.54 2.286 1.54 3.895 0 3.11-1.92 4.713-3.804 5.535 2.846.851 4.788 2.32 4.788 5.668 0 4.099-3.108 6.697-8.355 6.697H44.868V.424zm119.893 17.662a9.847 9.847 0 01-8.012 4.113c-5.455 0-9.876-4.408-9.876-9.84 0-5.438 4.421-9.842 9.876-9.842a9.868 9.868 0 018.157 4.304L167 5.431A12.358 12.358 0 00156.749 0c-6.846 0-12.401 5.533-12.401 12.357 0 6.824 5.555 12.353 12.401 12.353 4.174 0 7.857-2.052 10.098-5.202l-2.086-1.424z" fill="#231F20"/></svg>