<svg width="130" height="39" fill="none" xmlns="http://www.w3.org/2000/svg"><g style="mix-blend-mode:luminosity" clip-path="url(#clip0)"><path fill-rule="evenodd" clip-rule="evenodd" d="M0 .003c12.951-.003 25.902 0 38.853 0V39H27.637V9.684H11.242c-.003 9.772 0 19.54 0 29.313-3.748 0-7.494.003-11.242 0V.003zm44.032 0c3.745-.003 7.493 0 11.239 0 .003 7.504 0 15.008.003 22.511 5.966-7.5 11.923-15.01 17.883-22.51 3.324.002 6.65 0 9.977.002V39c-3.738.003-7.477 0-11.22 0-.002-7.51.004-15.017-.002-22.527-5.96 7.51-11.93 15.007-17.883 22.524-3.334.006-6.667.003-10 .003.003-13.001.003-26.002.003-38.997zM88.335 0h11.217v16.127C104.01 10.756 108.456 5.37 112.915 0c4.371.003 8.742 0 13.113 0-5.312 6.31-10.63 12.613-15.938 18.922 6.635 6.695 13.266 13.39 19.91 20.071-4.903.004-9.806 0-14.709.004-.178-.016-.402.055-.518-.12-5.072-5.187-10.153-10.364-15.221-15.554-.004 5.222 0 10.448-.004 15.67H88.333C88.336 26 88.336 12.998 88.336 0z" fill="#FC4C02"/></g><defs><clipPath id="clip0"><path fill="#fff" d="M0 0h130v39H0z"/></clipPath></defs></svg>