<svg width="135" height="41" fill="none" xmlns="http://www.w3.org/2000/svg"><g style="mix-blend-mode:luminosity"><path d="M135 0H0v41h135V0z" fill="#DC0031"/><path fill-rule="evenodd" clip-rule="evenodd" d="M13.602 11.286c1.065-.004 2.126-.009 3.19 0-.012 6.671.01 13.347 0 20.018h-3.186c-.004-6.67.009-13.347-.004-20.018zm11.835-.004c-2.833 2.527-5.662 5.06-8.486 7.6-.183.102.017.233.091.335 3.965 4.033 7.933 8.063 11.893 12.1 1.477.005 2.954.005 4.426 0-4.047-4.101-8.082-8.22-12.121-12.329 2.845-2.553 5.653-5.145 8.494-7.702-1.431-.009-2.866 0-4.297-.004zm8.003 0c1.073.008 2.147-.009 3.22.008-.021 3.143-.004 6.286-.013 9.428.017.942-.07 1.9.154 2.825a6.665 6.665 0 003.09 4.305c1.74 1.052 3.965 1.179 5.829.39 2.33-.975 3.989-3.418 4.005-5.993.009-3.651.021-7.303.013-10.955 1.073-.025 2.142-.004 3.215-.013-.016 3.181-.004 6.358-.008 9.539-.004 1.056.042 2.12-.187 3.16-.69 3.609-3.523 6.671-7.013 7.596a9.595 9.595 0 01-6.406-.458c-3.395-1.447-5.837-4.997-5.903-8.763-.008-3.685.012-7.38.004-11.07zm24.147-.03c1.452 0 2.904 0 4.356-.004.986-.021 1.976-.034 2.961.017 1.481.123 2.887.928 3.777 2.133 1.086 1.438 1.398 3.444.787 5.149-.691 2.07-2.704 3.596-4.855 3.643-1.298.009-2.596-.004-3.893.004-.005 3.037.016 6.07-.013 9.106-1.036-.038-2.088.043-3.115-.038-.017-6.663.008-13.334-.005-20.01zm3.141 3.21c.004 1.515-.004 3.025.004 4.535 1.26-.013 2.52.016 3.777-.017 1.256-.064 2.284-1.375 2.03-2.639-.166-1.03-1.102-1.874-2.134-1.878-1.227 0-2.45.004-3.677 0zm13.361-3.21c1.052.004 2.1.004 3.153 0 0 6.684.004 13.364 0 20.048-1.052.005-2.1 0-3.153 0 0-6.68.004-13.364 0-20.048zm6.169-.021c1.219.063 2.442 0 3.665.034 2.666 5.373 5.361 10.73 8.024 16.1.886-1.947 1.876-3.847 2.8-5.777 1.692-3.436 3.36-6.884 5.062-10.31a70.155 70.155 0 013.777-.005c-2.072 3.91-4.06 7.872-6.107 11.795-1.402 2.723-2.8 5.446-4.21 8.16-.956 0-1.913-.004-2.87 0a6897.77 6897.77 0 01-10.141-19.997zm26.077.021c1.057.004 2.118 0 3.178.004.009 6.663-.008 13.322.009 19.985-1.065.021-2.13.013-3.195.004.025-6.663.008-13.326.008-19.993zm7.783.004c1.664-.008 3.328.009 4.992-.025 1.086.012 2.196-.094 3.253.203 1.693.454 3.107 1.816 3.669 3.504.578 1.683.278 3.647-.791 5.06-.786 1.06-1.959 1.832-3.244 2.078-.778.174-1.573.089-2.359.11-.794.004-1.585-.009-2.375.004.008 3.02-.004 6.035.008 9.055-1.052-.004-2.105 0-3.157-.004.021-6.659.012-13.322.004-19.985zm3.145 3.198c.004 1.502 0 3.003 0 4.504 1.223.005 2.442 0 3.665 0 .844.013 1.647-.551 1.984-1.331a2.25 2.25 0 00-.05-1.934c-.354-.734-1.132-1.235-1.934-1.239h-3.665z" fill="#fff"/></g></svg>