<svg width="80" height="80" fill="none" xmlns="http://www.w3.org/2000/svg"><path d="M74.839 30.968V20.645H47.742A9.036 9.036 0 0040 25.028a9.036 9.036 0 00-7.742-4.383h-9.032V3.871A3.876 3.876 0 0019.355 0h-5.162a3.876 3.876 0 00-3.87 3.871v16.774H5.16v10.323H0v40a3.876 3.876 0 003.871 3.87h29.808C34.279 77.78 36.884 80 40 80a6.46 6.46 0 006.321-5.161H76.13A3.876 3.876 0 0080 70.968v-40h-5.161zm-33.549-1.29a6.46 6.46 0 016.452-6.452h24.516v43.87H46.452a3.891 3.891 0 01-3.097-1.547l-2.065-2.753V29.677zm-28.387 3.87V7.742h2.58v25.806h-2.58zm6.622 2.581l-2.75 4.125-2.752-4.125h5.502zm1.12-2.58h-2.58V7.741h2.58v25.806zM14.194 2.58h5.16a1.29 1.29 0 011.291 1.29v1.29h-7.742V3.87c0-.712.579-1.29 1.29-1.29zM7.742 23.226h2.58V35.23l6.452 9.677 6.452-9.677V23.226h9.032a6.46 6.46 0 016.452 6.451v33.12l-2.065 2.751a3.889 3.889 0 01-3.097 1.549H7.742V23.226zm69.677 47.742a1.29 1.29 0 01-1.29 1.29H43.871v1.29A3.876 3.876 0 0140 77.42a3.876 3.876 0 01-3.871-3.87v-1.29H3.871c-.712 0-1.29-.58-1.29-1.291v-37.42h2.58v36.13h28.387c2.018 0 3.95-.965 5.162-2.581l1.29-1.72 1.29 1.721a6.485 6.485 0 005.162 2.58h28.387v-36.13h2.58v37.42z" fill="#5B9FD1"/><path d="M69.677 25.807H43.871v20.645h25.806V25.807zm-2.58 18.064H46.452V28.387h20.645v15.484z" fill="#284D73"/><path d="M51.613 30.17v11.918l11.917-5.96-11.917-5.958zm2.58 4.176l3.567 1.783-3.566 1.783v-3.566zM43.871 49.032h25.806v2.58H43.871v-2.58zm0 5.161h20.645v2.581H43.871v-2.58zm23.226 0h2.58v2.581h-2.58v-2.58zm-56.774-7.741h25.806v2.58H10.323v-2.58zm0 5.161h25.806v2.58H10.323v-2.58zm23.225 5.161h2.581v2.58h-2.58v-2.58zm-23.225 0h20.645v2.58H10.323v-2.58zM25.806 41.29H36.13v2.58H25.806v-2.58zm0-5.16H36.13v2.58H25.806v-2.58zm0-5.162H36.13v2.58H25.806v-2.58zm0-5.161H36.13v2.58H25.806v-2.58z" fill="#284D73"/></svg>