<svg width="80" height="80" fill="none" xmlns="http://www.w3.org/2000/svg"><path d="M52.5 10h-25v2.5h25V10zm-6.25 13.75h5A1.25 1.25 0 0152.5 25v5a1.25 1.25 0 01-1.25 1.25h-5A1.25 1.25 0 0145 30v-5a1.25 1.25 0 011.25-1.25zm1.25 5H50v-2.5h-2.5v2.5zm-10-5h5A1.25 1.25 0 0143.75 25v5a1.25 1.25 0 01-1.25 1.25h-5A1.25 1.25 0 0136.25 30v-5a1.25 1.25 0 011.25-1.25zm1.25 5h2.5v-2.5h-2.5v2.5zM27.5 25a1.25 1.25 0 011.25-1.25h5A1.25 1.25 0 0135 25v5a1.25 1.25 0 01-1.25 1.25h-5A1.25 1.25 0 0127.5 30v-5zm2.5 3.75h2.5v-2.5H30v2.5zm5-10h-7.5v2.5H35v-2.5zM32.5 15h-5v2.5h5V15zm11.25 3.75h-7.5v2.5h7.5v-2.5zM41.25 15h-5v2.5h5V15zm11.25 3.75H45v2.5h7.5v-2.5zM50 15h-5v2.5h5V15zm1.25-6.25a1.25 1.25 0 110-2.5 1.25 1.25 0 010 2.5zm-3.75 0a1.25 1.25 0 110-2.5 1.25 1.25 0 010 2.5zm-3.75 0a1.25 1.25 0 110-2.5 1.25 1.25 0 010 2.5zm30 43.75h-25V55h25v-2.5zm-1.25-1.25a1.25 1.25 0 110-2.5 1.25 1.25 0 010 2.5zm-3.75 0a1.25 1.25 0 110-2.5 1.25 1.25 0 010 2.5zm-3.75 0a1.25 1.25 0 110-2.5 1.25 1.25 0 010 2.5zm-15 15h20a3.75 3.75 0 010 7.5H50a1.25 1.25 0 01-1.25-1.25v-5A1.25 1.25 0 0150 66.25zM71.25 70a1.25 1.25 0 10-2.5 0 1.25 1.25 0 002.5 0zm-20 1.25h15.215a3.74 3.74 0 010-2.5H51.25v2.5zM50 57.5h20a3.75 3.75 0 010 7.5H50a1.25 1.25 0 01-1.25-1.25v-5A1.25 1.25 0 0150 57.5zm21.25 3.75a1.25 1.25 0 10-2.5 0 1.25 1.25 0 002.5 0zm-20 1.25h15.215a3.74 3.74 0 010-2.5H51.25v2.5z" fill="#284D73"/><path d="M6.25 45H17.5v-5a1.25 1.25 0 011.25-1.25h20V35H27.5a3.754 3.754 0 01-3.75-3.75v-25A3.754 3.754 0 0127.5 2.5h25a3.754 3.754 0 013.75 3.75v25A3.754 3.754 0 0152.5 35H41.25v3.75h20A1.25 1.25 0 0162.5 40v5h11.25a3.754 3.754 0 013.75 3.75v25a3.754 3.754 0 01-3.75 3.75h-25A3.754 3.754 0 0145 73.75v-25A3.754 3.754 0 0148.75 45H60v-3.75H20V45h11.25A3.754 3.754 0 0135 48.75v25a3.754 3.754 0 01-3.75 3.75h-25a3.754 3.754 0 01-3.75-3.75v-25A3.754 3.754 0 016.25 45zm47.5-13.75v-25A1.252 1.252 0 0052.5 5h-25a1.252 1.252 0 00-1.25 1.25v25a1.252 1.252 0 001.25 1.25h25a1.252 1.252 0 001.25-1.25zm-6.25 17.5v25A1.252 1.252 0 0048.75 75h25A1.252 1.252 0 0075 73.75v-25a1.252 1.252 0 00-1.25-1.25h-25a1.252 1.252 0 00-1.25 1.25zM5 73.75A1.252 1.252 0 006.25 75h25a1.252 1.252 0 001.25-1.25v-25a1.252 1.252 0 00-1.25-1.25h-25A1.252 1.252 0 005 48.75v25z" fill="#5B9FD1"/><path d="M31.25 52.5h-25V55h25v-2.5zM30 51.25a1.25 1.25 0 110-2.5 1.25 1.25 0 010 2.5zm-3.75 0a1.25 1.25 0 110-2.5 1.25 1.25 0 010 2.5zm-3.75 0a1.25 1.25 0 110-2.5 1.25 1.25 0 010 2.5zm-1.25 6.25H30a1.25 1.25 0 011.25 1.25v8.75A1.25 1.25 0 0130 68.75h-8.75A1.25 1.25 0 0120 67.5v-8.75a1.25 1.25 0 011.25-1.25zm1.25 8.75h6.25V60H22.5v6.25zm-15-8.75h8.75a1.25 1.25 0 011.25 1.25v8.75a1.25 1.25 0 01-1.25 1.25H7.5a1.25 1.25 0 01-1.25-1.25v-8.75A1.25 1.25 0 017.5 57.5zm1.25 8.75H15V60H8.75v6.25zM30 70h-5v2.5h5V70zm-6.25 0h-2.5v2.5h2.5V70zm-7.5 0h-5v2.5h5V70zM10 70H7.5v2.5H10V70z" fill="#284D73"/></svg>