<svg width="25" height="21" fill="none" xmlns="http://www.w3.org/2000/svg"><path d="M1.718 9.042C8.428 6.08 12.907 4.125 15.146 3.18 21.535.484 22.869.015 23.733 0a1.5 1.5 0 01.892.271.987.987 0 01.328.633c.046.304.058.613.037.92-.345 3.69-1.845 12.64-2.607 16.774-.322 1.75-.958 2.333-1.574 2.392-1.056.099-1.917-.52-2.87-1.208l-.073-.053a16.833 16.833 0 00-.703-.492 172.467 172.467 0 01-2.694-1.835c-.75-.52-1.505-1.036-2.446-1.666-1.954-1.306-1.136-2.106-.043-3.173.183-.178.364-.359.541-.543.066-.069.342-.33.745-.71l.383-.361c1.806-1.704 5.13-4.839 5.214-5.209.015-.06.03-.291-.106-.41-.132-.123-.334-.082-.478-.047-.201.046-3.439 2.213-9.71 6.504-.917.642-1.749.95-2.497.933-.82-.017-2.403-.47-3.577-.857l-.504-.16-.003-.001C.795 11.32-.08 11.04.006 10.332c.052-.42.624-.852 1.712-1.29z" fill="#fff"/></svg>