<svg width="80" height="80" fill="none" xmlns="http://www.w3.org/2000/svg"><path d="M78.277 57.042l-27.11-46.955A12.936 12.936 0 0040 3.632c-4.59 0-8.868 2.474-11.168 6.455L1.722 57.042A12.885 12.885 0 000 63.477c0 7.108 5.783 12.891 12.89 12.891h54.22c7.107 0 12.89-5.783 12.89-12.89 0-2.258-.596-4.483-1.723-6.436zM67.11 74.024H12.891c-5.816 0-10.547-4.731-10.547-10.547 0-1.846.487-3.666 1.409-5.263l27.11-46.955A10.585 10.585 0 0140 5.976c3.755 0 7.256 2.024 9.138 5.283l27.11 46.955a10.54 10.54 0 011.408 5.264c0 5.815-4.731 10.546-10.547 10.546z" fill="#fff"/><path d="M72.865 60.167l-27.11-46.955A6.668 6.668 0 0040 9.882a6.668 6.668 0 00-5.755 3.33L21.862 34.66a1.172 1.172 0 002.03 1.172l12.383-21.448A4.318 4.318 0 0140 12.226c1.53 0 2.957.827 3.725 2.158l27.11 46.955c.38.657.571 1.376.571 2.139a4.302 4.302 0 01-4.297 4.296H12.891a4.302 4.302 0 01-4.297-4.297c0-.762.192-1.481.571-2.138l12.383-21.448a1.172 1.172 0 00-2.03-1.172L7.135 60.167a6.537 6.537 0 00-.885 3.31 6.648 6.648 0 006.64 6.64h54.22a6.648 6.648 0 006.64-6.64 6.537 6.537 0 00-.885-3.31z" fill="#fff"/><path d="M40 20.118a5.084 5.084 0 00-5.078 5.078V46.29c0 2.8 2.278 5.078 5.078 5.078 2.8 0 5.078-2.278 5.078-5.078V25.196c0-2.8-2.278-5.078-5.078-5.078zm2.734 26.172A2.738 2.738 0 0140 49.024a2.738 2.738 0 01-2.734-2.734V25.196A2.738 2.738 0 0140 22.462a2.738 2.738 0 012.734 2.734V46.29zM40 53.712a5.084 5.084 0 00-5.078 5.078c0 2.8 2.278 5.078 5.078 5.078 2.8 0 5.078-2.278 5.078-5.078 0-2.8-2.278-5.078-5.078-5.078zm0 7.812a2.738 2.738 0 01-2.734-2.734A2.738 2.738 0 0140 56.055a2.738 2.738 0 012.734 2.735A2.738 2.738 0 0140 61.524z" fill="#fff"/></svg>