<svg width="60" height="60" fill="none" xmlns="http://www.w3.org/2000/svg"><path d="M56.388.018L50.762 4.23l-5.657 13.19h-4.55l-1.786-3.87h1.167a3.86 3.86 0 003.871-3.853v-3.89h1.935V0h-5.806v5.806h1.935v3.89a1.922 1.922 0 01-1.935 1.917h-2.06L35.402 6.26l2.963-1.476L28.663.629l-2.281 7.983c-.062-4.75-3.94-8.595-8.704-8.595-4.803 0-8.71 3.907-8.71 8.71a8.74 8.74 0 003.871 7.234v1.458h-2.344l-.15.794a21.78 21.78 0 00-.13 7.448L3.612 37.428l7.29 1.666V51.29h9.678V60h23.226V46.514c6.774-4.792 10.643-12.497 10.637-20.717l.002-3.53c0-1.33-.123-2.698-.37-4.045l-.144-.803h-1.9l4.356-10.433V.018zM41.87 3.89V1.954h1.936v1.935H41.87zm-3.448 13.53h-3.67l-1.76-3.87h3.644l1.786 3.87zM29.92 3.276l3.847 1.648-.908.445 2.886 6.244h-3.63l-2.359-5.176-.866.437 1.03-3.598zm2.707 14.143h-4.303v-1.917c0-1.067.868-1.953 1.936-1.953h.608l1.76 3.87zm-3.8-8.345L30 11.657c-2.013.136-3.613 1.799-3.613 3.845v1.917h-3.87v-1.458a8.744 8.744 0 003.693-5.579l2.616-1.308zm-17.922-.346a6.783 6.783 0 016.774-6.774 6.783 6.783 0 016.774 6.774 6.8 6.8 0 01-3.388 5.86l-.483.28v2.551h-1.935v-5.967a2.9 2.9 0 001.935-2.725c0-1.6-1.303-2.903-2.903-2.903a2.907 2.907 0 00-2.904 2.903 2.9 2.9 0 001.936 2.725v5.967h-1.936v-2.552l-.482-.28a6.798 6.798 0 01-3.388-5.859zm6.774.968a.969.969 0 010-1.936.968.968 0 010 1.936zm34.625 9.659a20.4 20.4 0 01.212 2.903l.002 3.537a23.564 23.564 0 01-10.22 19.419l-.426.29v12.56H22.517v-8.709h-9.678V37.55l-6.272-1.43 5.665-10.101-.055-.346c-.36-2.117-.38-4.383-.068-6.318h40.194zm-2.368-1.936H47.21l4.825-11.247 2.145 1.069-4.244 10.178zm4.517-12.193l-1.07-.535 1.07-.802v1.337z" fill="#fff"/><path d="M19.613 25.162c-1.6 0-2.903-.968-2.903-2.904h-1.936c0 2.904 2.171 4.84 4.84 4.84 2.668 0 4.838-1.936 4.838-4.84h-1.935c0 1.936-1.303 2.904-2.904 2.904z" fill="#fff"/></svg>