<svg width="80" height="80" fill="none" xmlns="http://www.w3.org/2000/svg"><path d="M73.75 8.75H6.25A3.754 3.754 0 002.5 12.5v40.156a3.754 3.754 0 003.75 3.75h26.612l2.813 4.127a5.356 5.356 0 01-4.425 8.373 1.25 1.25 0 00-1.25 1.25c0 .69.56 1.094 1.25 1.094H52.5c2.964 0 5.56-1.408 6.946-4.03a7.738 7.738 0 00-.455-8.096l-1.853-2.718H73.75a3.754 3.754 0 003.75-3.75V12.5a3.754 3.754 0 00-3.75-3.75zM56.925 60.533a5.356 5.356 0 01-4.425 8.373H37.012a8.071 8.071 0 001.559-2.5h5.179v-2.5h-4.633a7.779 7.779 0 00-1.376-4.782l-1.853-2.718h4.653l1.518 2.54.033.051a5.4 5.4 0 004.501 2.41 3.4 3.4 0 003.004-5h4.515l2.813 4.126zm-10.174-4.127l.532.992c.019.036.04.07.062.104a.905.905 0 01-.752 1.404 2.903 2.903 0 01-2.406-1.272l-.733-1.228h3.297zm-40.501-2.5A1.25 1.25 0 015 52.656V12.5a1.252 1.252 0 011.25-1.25h62.5A1.252 1.252 0 0170 12.5v40.156a1.251 1.251 0 01-1.25 1.25H6.25zM75 52.656a1.251 1.251 0 01-1.25 1.25h-1.465c.142-.401.215-.824.215-1.25V12.5c0-.426-.073-.849-.215-1.25h1.465A1.252 1.252 0 0175 12.5v40.156z" fill="#5B9FD1"/><path d="M63.75 13.75h-52.5A3.754 3.754 0 007.5 17.5v30.156a3.754 3.754 0 003.75 3.75h52.5a3.754 3.754 0 003.75-3.75V17.5a3.754 3.754 0 00-3.75-3.75zM65 47.656a1.251 1.251 0 01-1.25 1.25h-52.5a1.251 1.251 0 01-1.25-1.25V17.5a1.252 1.252 0 011.25-1.25h52.5A1.252 1.252 0 0165 17.5v30.156zm-18.75 16.25h2.5v2.5h-2.5v-2.5zm5 0h2.5v2.5h-2.5v-2.5z" fill="#5B9FD1"/><path d="M17.866 21.773l-3.75 3.75a1.25 1.25 0 000 1.767l3.75 3.75 1.768-1.767-2.867-2.867 2.867-2.866-1.768-1.767zm15.518 0l-1.768 1.767 2.866 2.866-2.866 2.867 1.768 1.767 3.75-3.75a1.25 1.25 0 000-1.767l-3.75-3.75zM21.367 32.1l6.247-12.494 2.235 1.117-6.247 12.494-2.235-1.117zM42.5 22.656h5v2.5h-5v-2.5zm7.5 0h12.5v2.5H50v-2.5zm-11.25 6.25h5v2.5h-5v-2.5zm7.5 0H55v2.5h-8.75v-2.5zm11.25 0h5v2.5h-5v-2.5zm-23.75 5h2.5v2.5h-2.5v-2.5zm5 0h2.5v2.5h-2.5v-2.5zm5 0h5v2.5h-5v-2.5zm7.5 0H62.5v2.5H51.25v-2.5z" fill="#284D73"/></svg>