<svg width="45" height="45" fill="none" xmlns="http://www.w3.org/2000/svg"><g opacity=".5" fill-rule="evenodd" clip-rule="evenodd"><path d="M45 22.505C45 10.081 34.93 0 22.495 0 10.06 0 0 10.07 0 22.505 0 33.737 8.224 43.04 18.99 44.73V29.008h-5.715v-6.503h5.714v-4.957c0-5.642 3.36-8.753 8.505-8.753 2.458 0 5.04.435 5.04.435v5.538h-2.842c-2.8 0-3.671 1.732-3.671 3.516v4.221h6.233l-.996 6.503h-5.247V44.73C36.776 43.04 45 33.737 45 22.505z" fill="#284D73"/><path d="M31.258 29.008l.996-6.503h-6.243v-4.22c0-1.785.87-3.517 3.671-3.517h2.842V9.23s-2.572-.435-5.04-.435c-5.145 0-8.505 3.111-8.505 8.753v4.957h-5.704v6.503h5.714V44.73a23.089 23.089 0 007.032 0V29.008h5.237z" fill="#fff"/></g></svg>