<svg width="60" height="60" fill="none" xmlns="http://www.w3.org/2000/svg"><path d="M56.667 54.286a2.86 2.86 0 00-2.858 2.857A2.86 2.86 0 0056.667 60a2.86 2.86 0 002.857-2.857 2.86 2.86 0 00-2.857-2.857zm0 3.81a.954.954 0 010-1.905.954.954 0 010 1.904zM6.19 2.857A2.86 2.86 0 003.333 0 2.86 2.86 0 00.476 2.857a2.86 2.86 0 002.857 2.857A2.86 2.86 0 006.19 2.857zm-3.809 0c0-.524.428-.952.952-.952.525 0 .953.428.953.952a.954.954 0 01-.953.953.954.954 0 01-.952-.953zM51.64 37.742l-1.882-3.762c.4-.81.741-1.627 1.022-2.442l3.982-1.327V19.313l-3.982-1.328a20.948 20.948 0 00-1.022-2.441l1.883-3.766-7.705-7.705-3.765 1.883a20.948 20.948 0 00-2.442-1.022L36.4.952H25.504l-1.328 3.982a20.94 20.94 0 00-2.442 1.022L17.97 4.073l-7.705 7.705 1.883 3.766c-.4.81-.742 1.627-1.022 2.441l-3.982 1.328V30.21l3.982 1.327c.278.809.616 1.62 1.011 2.422l-1.224 2.231H5.237v19.048h6.667v-2.857h7.225l2.857 2.857h5.156v.953A3.813 3.813 0 0030.953 60a3.813 3.813 0 003.809-3.81v-.952h6.667a2.86 2.86 0 002.858-2.857c0-.734-.287-1.398-.743-1.905.457-.507.743-1.17.743-1.905 0-.734-.287-1.397-.743-1.904.364-.404.612-.908.699-1.47l7.396-7.455zm-37.582-4.205a19.066 19.066 0 01-1.27-3.039l-.147-.463-3.593-1.198v-8.151l3.593-1.198.146-.463a18.914 18.914 0 011.27-3.038l.224-.432-1.7-3.4 5.763-5.764 3.4 1.7.432-.223a18.956 18.956 0 013.038-1.271l.464-.146 1.2-3.594h8.15l1.198 3.593.464.146c1.008.318 2.031.746 3.038 1.27l.431.225 3.4-1.7 5.764 5.763-1.7 3.4.223.432c.526 1.007.953 2.03 1.271 3.038l.146.463 3.594 1.2v8.15l-3.593 1.198-.147.463a19.067 19.067 0 01-1.27 3.039l-.224.432 1.702 3.403-5.628 5.67a2.949 2.949 0 00-.153-.185c.457-.507.743-1.17.743-1.905a2.851 2.851 0 00-2.595-2.83 17.039 17.039 0 006.403-13.36c0-9.452-7.69-17.143-17.143-17.143-9.452 0-17.143 7.69-17.143 17.143a17.15 17.15 0 006.377 13.333h-8.147l2.254-4.106-.235-.452zm28.324 15.034a.954.954 0 01-.953.953h-7.62a.954.954 0 01-.952-.953c0-.525.428-.952.953-.952h7.62c.524 0 .952.427.952.952zm-13.729-23.81h4.599l1.51-1.51v-4.203c1.05 0 1.905.854 1.905 1.904v4.368l-3.252 3.251H28.49l-3.252-3.251v-4.368c0-1.05.854-1.904 1.905-1.904v4.204l1.51 1.51zm.395 5.715h3.81v3.81h-3.81v-3.81zm5.714-.558l3.81-3.81v-5.156a3.813 3.813 0 00-3.81-3.81h-1.905v5.32l-.394.395h-3.021l-.394-.394v-5.32h-1.905a3.813 3.813 0 00-3.81 3.81v5.156l3.81 3.81v4.367h-2.3l-.06.06c-3.25-2.098-5.26-5.695-5.26-9.584 0-6.302 5.127-11.429 11.43-11.429 6.302 0 11.428 5.127 11.428 11.429 0 3.86-1.928 7.395-5.156 9.524h-2.463v-4.368zm9.524-5.156c0-7.353-5.981-13.333-13.334-13.333-7.352 0-13.333 5.98-13.333 13.333 0 4.4 2.189 8.495 5.778 10.97l-1.371 1.372a15.244 15.244 0 01-6.312-12.342c0-8.402 6.837-15.238 15.238-15.238 8.402 0 15.238 6.836 15.238 15.238 0 4.706-2.127 9.05-5.76 11.928a2.835 2.835 0 00-.948-1.695 13.245 13.245 0 004.804-10.233zM41.429 40a.954.954 0 010 1.905h-7.62a.954.954 0 01-.952-.953c0-.525.428-.952.953-.952h7.62zm-7.62 5.714a.954.954 0 01-.952-.952c0-.526.428-.953.953-.953h7.62a.954.954 0 010 1.905h-7.62zM10 53.334H7.143v-15.24H10v15.238zm12.775 0l-2.857-2.858h-8.013V40h9.918l3.81-3.81h11.986a.954.954 0 010 1.905h-9.918l-4.089 4.089 1.347 1.347 2.184-2.184v11.986h-4.368zm8.177 4.761a1.907 1.907 0 01-1.904-1.904V40h2.08a2.816 2.816 0 00-.176.952c0 .735.287 1.398.743 1.905a2.834 2.834 0 00-.743 1.905c0 .734.287 1.398.743 1.905a2.835 2.835 0 00-.743 1.904c0 .735.287 1.398.743 1.905a2.835 2.835 0 00-.743 1.905c0 1.24.8 2.287 1.905 2.682v1.127a1.906 1.906 0 01-1.905 1.905zm10.477-4.762h-7.62a.954.954 0 01-.952-.952c0-.526.428-.952.953-.952h7.62c.524 0 .952.426.952.952a.954.954 0 01-.953.952zM2.381 8.572h1.905v1.904H2.38V8.572zm0 4.761h1.905v1.905H2.38v-1.905zm0 4.762h1.905V20H2.38v-1.905zM55.714 40h1.905v1.905h-1.905V40zm0 4.762h1.905v1.905h-1.905v-1.905zm0 4.762h1.905v1.905h-1.905v-1.905z" fill="#fff"/></svg>