<svg width="60" height="60" fill="none" xmlns="http://www.w3.org/2000/svg"><path d="M59.063 30.938c0-6.271-4.424-11.522-10.313-12.814V5.625A4.693 4.693 0 0044.062.937H19.689A4.693 4.693 0 0015 5.625v10.313H9.58l-.565 2.264-2-1.2L2 22.012l1.2 2.003-2.264.565v7.09l2.266.565L2 34.237l5.012 5.012 2.001-1.2.566 2.264H15v14.062a4.693 4.693 0 004.688 4.688h24.375a4.693 4.693 0 004.687-4.688V43.751c5.89-1.292 10.313-6.543 10.313-12.813zm-1.876 0c0 1.827-.447 3.548-1.223 5.075a4.678 4.678 0 00-3.264-2.945l-3.95-.988v-.224a4.692 4.692 0 001.875-3.73V26.25c0-1.31-.554-2.57-1.52-3.457a4.712 4.712 0 00-3.584-1.213c-2.395.207-4.271 2.345-4.271 4.863v1.681c0 1.465.707 2.85 1.875 3.73v.224l-3.95.989a4.677 4.677 0 00-3.264 2.944 11.16 11.16 0 01-1.224-5.075c0-6.203 5.047-11.25 11.25-11.25 6.204 0 11.25 5.047 11.25 11.25zM43.126 18.123c-.645.141-1.27.336-1.875.569v-2.756H22.5v13.126h10.462c-.089.614-.15 1.236-.15 1.875 0 6.27 4.424 11.521 10.313 12.813v2.187h-22.5V14.061h22.5v4.062zm-9.76 9.064h-8.99v-9.375h15v1.775a13.17 13.17 0 00-6.01 7.6zM19.688 2.813h24.375a2.816 2.816 0 012.813 2.812v2.813h-30V5.624a2.816 2.816 0 012.813-2.813zM15 32.41c-.592.26-1.23.401-1.875.401a4.693 4.693 0 01-4.688-4.687 4.693 4.693 0 014.688-4.688c.645 0 1.283.141 1.875.402v8.572zm-3.955 6.026l-.457-1.827-.19-.501-1.07-.435-2.024 1.215-2.942-2.943 1.215-2.024-.469-1.144-2.295-.573v-4.16l2.293-.573.471-1.144-1.215-2.024 2.942-2.943 2.023 1.215 1.144-.465.574-2.299H15v4.036a6.518 6.518 0 00-1.875-.285 6.57 6.57 0 00-6.563 6.562 6.57 6.57 0 006.563 6.563c.637 0 1.267-.104 1.875-.286v4.035h-3.955zm33.017 18.75H19.689a2.816 2.816 0 01-2.813-2.812v-2.813h30v2.813a2.816 2.816 0 01-2.813 2.813zm2.813-7.5h-30V10.313h30v7.547c-.311-.022-.62-.047-.938-.047-.316 0-.626.025-.937.047v-5.672H18.75v35.624H45v-3.797c.311.022.62.047.938.047.316 0 .626-.025.937-.047v5.672zm-.938-7.5c-3.36 0-6.374-1.49-8.437-3.833v-.739a2.81 2.81 0 012.13-2.729l5.37-1.34v-2.73l-.466-.27a2.783 2.783 0 01-1.409-2.42v-1.68c0-1.556 1.124-2.872 2.558-2.996a2.808 2.808 0 012.155.727 2.82 2.82 0 01.912 2.074v1.875a2.783 2.783 0 01-1.41 2.42l-.465.27v2.73l5.37 1.341a2.81 2.81 0 012.13 2.73v.738c-2.063 2.344-5.077 3.834-8.438 3.834z" fill="#fff"/><path d="M35.625 4.688H37.5v1.875h-1.875V4.688zm-9.375 0h7.5v1.875h-7.5V4.688zm1.875 48.75h7.5v1.874h-7.5v-1.874zm13.125 0h1.875v1.874H41.25v-1.874zm-20.625 0H22.5v1.874h-1.875v-1.874zm1.875-22.5h8.438v1.875H22.5v-1.876zm0 3.75h8.438v1.874H22.5v-1.874zm0 3.75h8.438v1.874H22.5v-1.874zm0 3.75h8.438v1.874H22.5v-1.874zm30.938-24.375A2.816 2.816 0 0056.25 15a2.81 2.81 0 00-1.875-2.64V4.688H52.5v7.672A2.809 2.809 0 0050.625 15a2.816 2.816 0 002.813 2.813zm0-3.75a.938.938 0 010 1.874.938.938 0 010-1.874zM52.5.938h1.875v1.875H52.5V.937zm-42.187 41.25A2.816 2.816 0 007.5 45a2.81 2.81 0 001.875 2.64v7.672h1.875V47.64A2.809 2.809 0 0013.125 45a2.816 2.816 0 00-2.813-2.813zm0 3.75a.938.938 0 010-1.876.938.938 0 010 1.876zm-.938 11.25h1.875v1.874H9.375v-1.874z" fill="#fff"/></svg>