<svg width="20" height="20" fill="none" xmlns="http://www.w3.org/2000/svg"><path d="M5.88 0C2.654 0 0 2.65 0 5.88v8.24C0 17.346 2.65 20 5.88 20h8.24c3.227 0 5.88-2.65 5.88-5.88V5.881C20 2.652 17.35 0 14.12 0H5.88zm0 1.818h8.24a4.058 4.058 0 014.062 4.063v8.238a4.058 4.058 0 01-4.063 4.063H5.882a4.057 4.057 0 01-4.064-4.063V5.882a4.057 4.057 0 014.063-4.064zm9.49 1.99a.82.82 0 00-.824.823.82.82 0 00.823.824.82.82 0 00.825-.824.82.82 0 00-.825-.824zM10 4.544C7 4.545 4.545 7 4.545 10S7 15.454 10 15.454 15.454 13 15.454 10C15.454 7 13 4.545 10 4.545zm0 1.819A3.62 3.62 0 0113.636 10 3.62 3.62 0 0110 13.636 3.62 3.62 0 016.364 10 3.62 3.62 0 0110 6.364z" fill="#284D73"/></svg>