<svg width="50" height="51" fill="none" xmlns="http://www.w3.org/2000/svg"><path d="M49.35 23.434l.65-2.331-2.147.075c-.182 0-1.5-.041-2.78-1.082.096.01.191.025.288.025 1.317 0 2.59-.89 3.102-2.161l.923-2.298c-1.157.017-2.216-.147-2.216-.147-.01-.002-.843-.122-1.809-1.228-.692-.793-1.548-1.212-2.476-1.212-.406 0-.769.082-1.081.193.048-.187.095-.376.121-.571.296-2.15-.938-3.792-.938-3.79l-1.615-2.243-1 2.636c-.004.008-.257.625-.71.927a5.12 5.12 0 00-1.187-2.478 5.024 5.024 0 00-3.855-1.802c-.398 0-.683.048-.752.06l-1.949.43c.112-.488.352-1.338.79-2.104l1.075-1.88-2.707.346-.862-2.054-1.668.965L25.004 0l-1.54 1.71L21.79.745l-.86 2.054-2.705-.346 1.078 1.88c.437.766.677 1.614.787 2.103l-1.859-.412-.064-.012a4.383 4.383 0 00-.776-.065c-.86 0-2.504.235-3.851 1.802a5.12 5.12 0 00-1.191 2.478c-.45-.298-.7-.906-.7-.906l-1.003-2.65-1.64 2.257c-.2.292-1.19 1.834-.92 3.773.028.193.073.382.121.569a3.19 3.19 0 00-1.079-.193c-.928 0-1.784.42-2.478 1.213-.962 1.101-1.792 1.225-1.785 1.225 0 0-.877.176-2.235.149l.919 2.298c.51 1.273 1.786 2.16 3.1 2.16.1 0 .195-.014.293-.024-1.276 1.04-2.595 1.082-2.754 1.085L0 21.103l.662 2.33c.333 1.2 1.446 3.189 3.578 3.403-.232 1.09-.746 2.312-1.876 2.838l-1.629.754.888 1.735c.502.936 1.678 2.031 3.354 2.031a4.66 4.66 0 001.05-.121c.085.428.194.856.321 1.28.5 1.666.07 2.828.064 2.84l-.805 1.891 1.796.531c.023.009.565.174 1.244.174a3.421 3.421 0 001.481-.325c.232.468.515.894.844 1.276 1.15 1.324 2.78 1.995 4.844 1.995h.008l1.474-.02-3.045 1.418 2.311 1.253c.84.46 1.837 1.003 2.85 1.418l-.287.886.797.407c.07.035 1.603.806 4.15.97 0 0 .615.03.954.03.339 0 .947-.033.947-.033 2.53-.168 4.05-.93 4.122-.967l.798-.41-.291-.887c1.044-.428 2.076-.993 2.88-1.433l2.269-1.236-3.036-1.42 1.48.02c2.067 0 3.698-.671 4.846-1.997.328-.38.61-.806.844-1.274.192.088.394.162.604.216.275.074.568.11.877.11.668 0 1.216-.166 1.23-.17l1.804-.536-.786-1.855c-.018-.048-.449-1.208.05-2.877.128-.425.235-.854.32-1.28a4.6 4.6 0 001.058.122c2.134 0 3.157-1.685 3.355-2.05l.879-1.716-1.63-.751c-1.13-.527-1.643-1.75-1.873-2.84 2.102-.201 3.232-2.19 3.576-3.399zM20.233 7.24l-.022.007.018-.028.004.021z" fill="#fff"/><path d="M25.006 7.136c-1.725.002-3.017.636-3.3 1.38l3.3 1.462 3.3-1.461c-.282-.745-1.574-1.38-3.3-1.381zm.034 38.662h-.066c-1.046.008-2.484-.233-3.178-.46l-.834 2.533c.55.22 2.413.64 4.045.64 1.63 0 3.494-.422 4.042-.64l-.832-2.532c-.696.228-2.132.467-3.178.459zm6.312-2.517c-.621.394-2.007.986-2.813 1.26l.677 2.092c1.247-.382 2.276-.829 3.127-1.307l-1.405-.524.414-1.521zm-12.691 0l.415 1.52-1.406.525c.849.478 1.883.925 3.125 1.307l.677-2.091c-.802-.275-2.19-.869-2.811-1.261zm6.345-38.565c1.3 0 2.575.349 3.555.961.09-.338.216-.747.386-1.175l-.37.05-.39.047-.164-.397-.496-1.175-.903.53-.352.2-.28-.31-.982-1.091-.98 1.091-.281.31-.352-.2-.909-.53-.49 1.175-.168.397-.39-.046-.37-.05c.17.43.294.836.386 1.174.982-.612 2.254-.96 3.55-.96zm19.847 13.58c.168.065.34.094.51.094.735 0 1.446-.532 1.691-1.143 0 0-1.349-.093-2.798-1.744-.462-.535-.95-.694-1.37-.694-.65 0-1.138.386-1.138.386 1.75 1.045 2.108 2.723 3.105 3.101zm-40.205.094c.17 0 .342-.029.507-.094 1-.378 1.36-2.056 3.11-3.101 0 0-.49-.386-1.137-.386-.42 0-.909.16-1.373.694-1.448 1.651-2.796 1.744-2.796 1.744.241.61.954 1.143 1.689 1.143z" fill="#fff"/><path d="M45.328 25.117c.03.002.056.002.088.002 1.835 0 2.457-2.205 2.457-2.205h-.035c-.337 0-3.066-.088-4.994-2.84-1.27-1.808-2.31-3.399-4.366-4.024l-.202-.04-.045-.23c-.056-.353.16-.682.648-1.04 2.835-2.083.91-4.74.91-4.74s-.81 2.126-2.622 2.126l-.135-.002c-.205-.012-.404-.02-.604-.069l-.334-.073s.516-1.576-.73-3.024a3.558 3.558 0 00-2.742-1.278c-.333 0-.544.049-.544.049.626.919 1.079 2.442.355 3.382-.625.808-2.15.848-2.15 2.052 0 .51.424 1.106 1.187 1.64 2.295 1.623 4.573 3.773 5.52 6.656 1.183 3.597-.15 5.983-2.054 7.35 0 0 .596.618 1.462.695.176.02.348.028.51.028 1.827 0 2.771-.961 2.771-.961s-.155 1.328-1.107 2.561c-.877 1.14-2.03 1.81-3.786 1.839 0 0-.056.915.722 1.706.498.499 1.648.663 1.648.663s-2.153.488-2.39 4.055c-.13 1.933-.57 2.604-.57 2.604h.04c4.996 0 4.867-4.807 4.867-4.807s.348 1.423 1.741 1.794c.169.05.348.07.52.07.45 0 .838-.118.838-.118s-.73-1.727-.005-4.142c.6-2.004.503-3.49.503-3.49s.673 1.142 2.342 1.153h.016c1.39 0 1.996-1.182 1.996-1.182-3.331-1.55-3.002-6.557-3.002-6.557s.432.361 1.276.397zm-1.003 5.229c-1.354-.75-2.21-2.739-2.418-3.456-.225 3.945-1.942 6.683-3.949 9.318-1.041 1.366-1.404 2.694-1.404 2.694s.2-1.504 1.101-2.73c1.873-2.524 3.651-5.665 3.784-9.297.092-2.535-.49-4.59-1.397-6.284.507 1.764.436 3.926-1.287 5.942 0 0 3.429-4.61-1.365-9.335-1.92-1.798-4.018-2.908-5.099-3.695 3.905 1.429 5.811-.145 5.811-.145-1.247 1.213-2.861 1.192-3.862 1.018.271.149.553.304.858.487 3.292 2.005 6.251 5.306 6.756 9.878v-.035c.767 4.488 2.471 5.64 2.471 5.64zm-31.47 4.994s1.15-.162 1.648-.664c.777-.79.722-1.705.722-1.705-1.758-.028-2.908-.7-3.791-1.836-.945-1.234-1.102-2.562-1.102-2.562s.945.96 2.77.96a4.8 4.8 0 00.511-.027c.866-.077 1.464-.694 1.464-.694-1.904-1.368-3.24-3.756-2.057-7.353.948-2.88 3.225-5.033 5.52-6.655.763-.535 1.187-1.13 1.187-1.641 0-1.204-1.524-1.244-2.149-2.052-.724-.94-.27-2.466.355-3.383 0 0-.207-.048-.542-.048-.658 0-1.801.185-2.74 1.278-1.25 1.448-.731 3.024-.731 3.024l-.335.073c-.2.048-.4.057-.604.07l-.133.001c-1.816 0-2.622-2.123-2.622-2.123s-1.925 2.656.909 4.74c.488.357.701.686.645 1.039l-.045.23-.206.04c-2.052.626-3.093 2.216-4.363 4.025-1.925 2.746-4.65 2.837-4.99 2.837h-.038s.623 2.205 2.458 2.205c.03 0 .056 0 .088-.002.843-.034 1.277-.397 1.277-.397s.325 5.005-3.002 6.557c0 0 .606 1.182 1.996 1.182h.017c1.67-.01 2.341-1.152 2.341-1.152s-.097 1.485.502 3.49c.723 2.414-.002 4.141-.002 4.141s.389.118.836.118c.174 0 .351-.02.518-.07 1.392-.371 1.741-1.794 1.741-1.794S10.781 42 15.777 42h.036s-.438-.671-.565-2.604c-.24-3.567-2.393-4.055-2.393-4.055zm-.802.868c-2.007-2.635-3.722-5.373-3.948-9.318-.208.715-1.061 2.707-2.415 3.456 0 0 1.702-1.152 2.467-5.64v.035c.507-4.57 3.464-7.873 6.758-9.878.3-.185.587-.34.856-.487-1 .174-2.614.195-3.862-1.018 0 0 1.906 1.574 5.81.145-1.082.787-3.178 1.897-5.097 3.695-4.796 4.725-1.366 9.335-1.366 9.335-1.724-2.018-1.794-4.178-1.287-5.942-.909 1.695-1.489 3.75-1.395 6.284.13 3.632 1.91 6.773 3.778 9.297.904 1.224 1.107 2.73 1.107 2.73s-.366-1.328-1.406-2.694zm9.259-18.443a5.577 5.577 0 01.507.726l.047.078c.084.142.162.29.24.44.721 1.396 1.875 2.23 2.898 2.231 1.025-.002 2.175-.835 2.9-2.23.08-.156.16-.307.244-.448.013-.02.027-.04.038-.06a6.014 6.014 0 01.518-.74c.015-.016.026-.03.04-.043a2.943 2.943 0 011.376-.922l-.255-.166h-.015l-1.013-.66-1.042-.67-2.783 1.7-.008-.007-.006.007-2.785-1.7-1.04.667-1.015.661h-.011l-.258.166c.574.178 1.01.495 1.378.917.017.017.028.036.045.053zm2.566-.137h2.355v.907c-.277-.38-.816-.302-.816-.302v1.307s.021.643.221.922h-1.165c.204-.277.223-.922.223-.922v-1.307s-.537-.078-.818.302v-.907z" fill="#fff"/><path d="M24.764 15.87v-5.306l-3.011-1.146.795 5.143 2.216 1.31zm-.647-4.003v.851l-.146-.075c-.008-.006-.22-.06-.595-.393-.617-.537-.628-1.032-.628-1.032l1.369.649zm3.348 2.693l.791-5.142-3.01 1.146v5.306l2.22-1.31zm-1.571-2.694l1.37-.646s-.012.495-.631 1.033c-.372.331-.587.386-.595.392l-.146.075v-.854h.002zM20.505 28.17c.294.12.649.146.83.146a2.01 2.01 0 00.027-.095c.017-.06.031-.12.043-.186.05-.294.069-.627.072-.841a1.122 1.122 0 01-.394-.467c-.112-.265-.271-.386-.505-.386-.303 0-.628.203-.767.3-.11.731.37 1.396.694 1.53zm6.661-2.813c-.56.682-1.653 1.87-1.708 1.93l-.065.076-3.458-.061a4.388 4.388 0 01-.14 1.074l4.114.828c.428-.335 1.607-1.3 2.063-1.678-.333-.545-.364-1.191-.29-1.646a2.198 2.198 0 01-.516-.523z" fill="#fff"/><path d="M27.635 20.69c-.797.887-1.562 1.215-2.244 1.29a3.179 3.179 0 01-.376.023h-.017a3.205 3.205 0 01-.748-.088c-.045.2-.101.617.06 1.012.144.358.437.625.866.801l.144.063.002.174c0 .053.033 1.182 1.131 1.494.18-.207.342-.394.462-.55-.224-.591-.107-1.195.219-1.491-.015.063-.157 1.544.901 2.094l.174.092-.052.208c-.017.063-.37 1.496.91 2.03l.227.096-.1.247c-.023.055-.526 1.356.658 2.095h2.568v-2.288c-.913-.126-1.3-.948-1.4-1.532-.424-.081-.753-.287-.978-.623-.538-.795-.075-1.523-.069-1.563-.002.006 0 .783.427 1.261.21.23.462.41.841.45l.187.018.017.214c.004.046.107 1.096.977 1.261l-.002-4.671c0-.724.188-1.452.415-2.124h-5.2v.007zm-6.911 2.14l-.069 2.976.301.05.737-2.854-.374-.877-.595.705zm8.126 13.645c.022 0 .048.005.072.011.459.147.575 2.002 1.379 2.168a.911.911 0 00.215.023c.232 0 .37-.112.52-.309 0 0-.404-.713-.707-1.194-.402-.63-.715-1.39-1.463-1.39l-.058.001a.701.701 0 00-.398.15 1.43 1.43 0 00-.842-.288c-.47 0-.834.241-1.016.241h-.007l-1.672-.184c-.262-.028-.468-.324-.543-.439l-.028-.05c0-.05 0-.103-.003-.15-.056-1.533-1.115-2.19-1.491-2.2 0 0 .045-.292-.058-.403l-.369.501-1.21-.681.863 1.13-.732.922c-.091.104-.08.247-.043.306l.316.312.4-.272c.021-.017.057-.021.101-.021.111 0 .277.031.427.031.163 0 .305-.04.322-.212-.05.569-.52 1.557-.212 2.333l.229.586-1.478-.24-.692 1.312c-.213.436-.247.908-.041 1.164l.258.363s.363-.432.445-.715l-.118-.145c-.099-.122-.093-.23-.033-.363l.433-.808 1.746.462.091-.176a.498.498 0 01.475-.288c.077 0 .156.01.238.025a6.7 6.7 0 001.39.168c.585 0 1.165-.117 1.473-.505.633 1.05 1.914 1.219 1.813 1.751l-.337 1.8a6.12 6.12 0 00.642-.058l.32-1.874c.035-.203.069-.478.069-.478-.124-.14-.423-.439-.591-.8-.227-.486-.103-.74-.314-1.374.007.005.07-.143.218-.143zm-6.529-2.63c-.085-.002-.147-.084-.143-.18.007-.093.076-.167.16-.158.086.004.148.088.145.18-.008.093-.08.164-.162.157z" fill="#fff"/><path d="M19.938 38.179s.578-.267.63-.458l-.076-.216c-.054-.14-.047-.293.058-.377l.625-.485 1.043.225s-.188-.265-.17-.619l-.995-.237-.939.642c-.402.337-.432.89-.299 1.216l.123.309zm7.377 3.051c.187-.008.393-.012.62-.012 0 0 .536-1.76.566-1.817-.301-.15-.926-.52-1.167-.69.159.266.546.572.47.807l-.489 1.712z" fill="#fff"/><path d="M32.425 30.789H17.587v6.261c0 2.56 1.652 4.164 4.089 4.164 2.037 0 2.574.088 3.331.931.522-.583.954-.801 1.84-.883l.021-.097.468-1.622a503.66 503.66 0 00-.791-1.011c-.303.113-.558.132-.986.132-.44 0-.935-.056-1.472-.17a.578.578 0 00-.155-.019c-.066 0-.071.006-.088.042l-.094.172-.17.315-.32-.082-1.423-.375-.195.36.03.038.174.214-.076.28c-.105.364-.446.79-.549.908l-.355.428-.323-.46-.244-.341c-.256-.321-.316-.815-.172-1.33a.02.02 0 01-.015.005l-.402.187-.181-.44-.127-.313c-.22-.55-.139-1.354.45-1.838L21 35.519l1.09.24c.027-.117.066-.536.098-.643-.02-.002-.042-.009-.062-.009l-.628.263-.607-.47s-.237-.256-.022-.512l.587-.997-1.487-2.094 2.286 1.053.151-.212.31-.413.349.373c.1.107.155.24.183.372.63.274 1.758 1.087 1.858 2.406l-.354.16v.01c.08.107.148.151.168.156l1.631.18c.041-.008.094-.03.152-.048.202-.078.507-.189.868-.189.293 0 .578.076.85.218a1.21 1.21 0 01.367-.084l.079-.002c.873 0 1.307.733 1.655 1.316.058.1.116.197.176.292.305.482.703 1.19.72 1.219l.18.315-.221.287c-.17.22-.425.478-.862.478a1.4 1.4 0 01-.556-.121c-.013.096-.03.212-.046.31l-.287 1.675c1.712-.472 2.798-1.922 2.798-3.995l.002-6.264zm-14.838-.502h11.54c-.577-.667-.57-1.513-.422-2.063-.168-.09-.307-.2-.43-.317-.45.374-1.827 1.498-2.186 1.78l-.077.058-4.529-.919h-.091c-.109 0-.268-.004-.442-.027-.048.229-.224.386-.426.386a.434.434 0 01-.363-.21.53.53 0 01-.079-.373l.017-.11c-.467-.369-.897-1.193-.707-2.062l.02-.093.065-.052c.009-.009.087-.067.203-.143l-.329-.056c-.123-.025-.206-.154-.187-.29.02-.139.137-.237.258-.21l.784.139.071-3.098 1.167-1.385.728 1.719-.769 2.98.692.121c.122.021.206.15.187.29-.019.124-.112.21-.222.21-.012 0-.025 0-.036-.002l-.563-.103c.008.019.019.03.026.05a.64.64 0 00.272.282l3.452.06c.146-.159.509-.558.881-.98-.849-.36-1.157-1.183-1.21-1.729-.475-.227-.802-.566-.984-1.01-.22-.547-.142-1.095-.084-1.361-.46-.189-.945-.533-1.438-1.083h-5.2c.223.672.412 1.4.412 2.124v7.477z" fill="#FFDD2D"/><path d="M22.34 33.506c-.084-.008-.155.065-.16.158-.007.097.057.18.143.181.083.009.156-.063.163-.158 0-.092-.06-.179-.146-.181zM32.405 44.86l-.855-.367.236-.99.26-1.08s-1.515.92-3.65 1.613c-.606.195-1.064.283-1.064.283v.734s-1.14.223-2.295.223h-.065a13.69 13.69 0 01-2.295-.223v-.734s-.46-.088-1.064-.283c-2.135-.693-3.648-1.614-3.648-1.614l.256 1.08.242.991-.857.367-.95.399c1.09.59 2.6 1.45 3.982 1.873l-.325 1s1.752.895 4.672.904v.002h.041v-.002c2.923-.009 4.674-.905 4.674-.905l-.327-.998c1.382-.424 2.895-1.285 3.98-1.874l-.948-.399zm-14.735.466l1.406-.525-.415-1.52c.62.394 2.009.985 2.813 1.26l-.679 2.092c-1.242-.384-2.276-.83-3.125-1.307zm7.337 3.185c-1.633 0-3.498-.422-4.046-.64l.835-2.532c.692.226 2.132.468 3.178.46h.065c1.046.008 2.482-.234 3.178-.46l.832 2.532c-.548.22-2.41.64-4.042.64zm4.209-1.878l-.677-2.092c.806-.275 2.192-.866 2.813-1.26l-.414 1.52 1.405.525c-.851.476-1.88.923-3.127 1.307zM25.005 5.329c1.74 0 3.132.646 3.9 1.336 0 0 .229-1.542 1.008-2.904l-1.4.178-.734-1.747-1.408.814-1.366-1.515-1.361 1.515-1.41-.814-.732 1.747-1.4-.178c.78 1.362 1.007 2.904 1.007 2.904.771-.69 2.159-1.336 3.896-1.336zm-3.566-.777l.389.046.168-.396.49-1.175.909.526.352.202.28-.31.98-1.092.982 1.091.28.31.352-.2.904-.527.495 1.175.165.396.39-.046.37-.05c-.17.43-.296.837-.386 1.175-.98-.613-2.256-.961-3.555-.961-1.295 0-2.569.348-3.552.96a10.912 10.912 0 00-.386-1.174l.373.05zm23.974 21.24c2.25 0 3.002-2.568 3.034-2.677l.25-.904-.843.029h-.004c-.297 0-2.779-.073-4.54-2.583l-.166-.233c-1.15-1.64-2.24-3.2-4.19-3.911.057-.057.137-.128.248-.208 1.034-.764 1.636-1.691 1.788-2.767.22-1.62-.7-2.91-.741-2.963l-.627-.869-.39 1.03c-.026.065-.685 1.715-2.07 1.715h-.102c-.095-.007-.185-.011-.275-.02a4.029 4.029 0 00-.991-2.943 4.14 4.14 0 00-3.174-1.48c-.38 0-.633.053-.659.057l-.946.21.583.862c.459.666.874 1.893.382 2.535-.157.204-.48.37-.791.535-.638.33-1.508.787-1.508 1.954 0 .755.522 1.544 1.469 2.216 2.801 1.976 4.53 4.039 5.276 6.315 1.154 3.503-.352 5.5-1.814 6.551l-.657.475.574.591c.077.076.78.77 1.818.87.197.016.386.028.561.028.666 0 1.233-.117 1.693-.275a4.87 4.87 0 01-.478.76c-.837 1.087-1.865 1.582-3.345 1.607l-.55.01-.043.62a3.109 3.109 0 00.922 2.247c.148.151.328.275.515.378-.657.663-1.325 1.817-1.454 3.795-.108 1.652-.46 2.262-.463 2.269l-.608 1.04 1.098.017c1.814 0 3.204-.562 4.167-1.674.568-.659.894-1.402 1.087-2.06a2.85 2.85 0 001.255.706c.202.053.422.082.66.082.512 0 .94-.121.99-.134l.7-.21-.31-.734c-.022-.059-.608-1.532.023-3.635.27-.908.41-1.722.477-2.356a3.518 3.518 0 001.797.474c1.736 0 2.5-1.454 2.536-1.515l.343-.667-.634-.294c-2.07-.963-2.527-3.55-2.619-4.952.187.04.4.078.642.086h.104zm1.64 5.485s-.605 1.182-1.995 1.182h-.017c-1.668-.01-2.342-1.152-2.342-1.152s.098 1.485-.505 3.49c-.724 2.414.006 4.141.006 4.141s-.389.118-.838.118c-.172 0-.352-.02-.52-.07-1.393-.37-1.741-1.794-1.741-1.794S39.23 42 34.234 42h-.04s.44-.672.571-2.604c.238-3.568 2.39-4.056 2.39-4.056s-1.148-.162-1.646-.663c-.778-.791-.723-1.706-.723-1.706 1.758-.028 2.908-.7 3.785-1.838.95-1.234 1.108-2.562 1.108-2.562s-.945.96-2.772.96c-.161 0-.333-.008-.509-.027-.864-.077-1.463-.694-1.463-.694 1.902-1.368 3.238-3.756 2.054-7.353-.948-2.88-3.226-5.034-5.52-6.655-.763-.535-1.187-1.13-1.187-1.641 0-1.205 1.526-1.242 2.152-2.052.723-.94.27-2.466-.357-3.383 0 0 .212-.048.545-.048.66 0 1.803.187 2.742 1.278 1.247 1.448.73 3.023.73 3.023l.334.074c.2.048.398.056.604.067l.135.002c1.812 0 2.622-2.125 2.622-2.125s1.926 2.658-.91 4.74c-.487.356-.702.686-.646 1.038l.045.231.202.04c2.055.625 3.095 2.216 4.365 4.024 1.929 2.751 4.658 2.84 4.994 2.84h.036s-.623 2.205-2.458 2.205c-.03 0-.056 0-.088-.002-.843-.034-1.276-.397-1.276-.397s-.33 5.009 3 6.561z" fill="#000"/><path d="M41.462 15.79c.84.502 1.327 1.173 1.756 1.769.42.581.82 1.141 1.446 1.374.222.086.458.126.697.126.94 0 1.882-.644 2.24-1.536l.358-.894-.87-.058c-.04-.002-1.16-.116-2.405-1.545-.512-.585-1.131-.893-1.8-.893-.815 0-1.419.457-1.486.503l-.8.632.864.522zm1.425-.982c.419 0 .907.16 1.369.695 1.45 1.65 2.798 1.743 2.798 1.743-.245.609-.956 1.144-1.69 1.144-.171 0-.341-.03-.511-.095-.997-.377-1.355-2.056-3.107-3.1 0 0 .49-.387 1.14-.387zm-1.032 9.898v.033c-.505-4.57-3.465-7.87-6.756-9.879a24.183 24.183 0 00-.859-.487c1.003.175 2.617.196 3.862-1.017 0 0-1.905 1.573-5.811.145 1.081.786 3.182 1.896 5.099 3.695 4.794 4.725 1.363 9.335 1.363 9.335 1.723-2.016 1.794-4.178 1.287-5.942.907 1.693 1.487 3.75 1.397 6.284-.132 3.632-1.911 6.774-3.783 9.298-.9 1.225-1.102 2.73-1.102 2.73s.363-1.329 1.404-2.695c2.008-2.635 3.723-5.373 3.947-9.318.208.715 1.063 2.707 2.419 3.456.003.002-1.7-1.15-2.468-5.638zm-25.549 16.91c-.002-.006-.35-.617-.462-2.268-.13-1.979-.797-3.133-1.455-3.796.19-.1.367-.224.514-.378.967-.975.926-2.123.92-2.247l-.037-.62-.553-.01c-1.476-.027-2.507-.522-3.343-1.607a5.017 5.017 0 01-.479-.76c.46.158 1.023.275 1.691.275.18 0 .365-.012.561-.027 1.038-.1 1.742-.793 1.82-.87l.574-.592-.656-.475c-1.468-1.053-2.969-3.05-1.816-6.55.746-2.277 2.472-4.34 5.278-6.317.947-.671 1.465-1.46 1.465-2.216 0-1.166-.868-1.626-1.506-1.953-.31-.166-.634-.332-.791-.535-.494-.64-.077-1.87.38-2.535l.587-.863-.95-.21c-.028-.004-.277-.056-.659-.056a4.14 4.14 0 00-3.172 1.48 4.043 4.043 0 00-.997 2.943c-.09.009-.18.013-.273.02h-.101c-1.388 0-2.044-1.65-2.07-1.715l-.392-1.03-.632.868c-.035.053-.96 1.345-.735 2.963.15 1.076.752 2.004 1.786 2.768.113.08.191.15.247.208-1.947.71-3.035 2.272-4.186 3.913l-.166.233c-1.758 2.51-4.246 2.583-4.543 2.583l-.848-.03.258.905c.03.11.78 2.678 3.032 2.678l.109-.005c.237-.008.45-.044.641-.086-.093 1.4-.551 3.987-2.622 4.952l-.632.294.342.668c.034.06.8 1.514 2.54 1.514a3.526 3.526 0 001.794-.474c.067.634.206 1.448.477 2.357.63 2.102.043 3.575.02 3.634l-.31.735.703.21c.047.012.48.134.99.134.239 0 .46-.03.658-.082.533-.14.945-.405 1.257-.707.19.659.518 1.401 1.085 2.06.965 1.112 2.353 1.675 4.167 1.675l1.1-.017-.61-1.039zm-.531.384c-4.996 0-4.869-4.807-4.869-4.807s-.348 1.423-1.741 1.794a1.8 1.8 0 01-.518.07 3.23 3.23 0 01-.836-.118s.726-1.727.002-4.142c-.599-2.004-.502-3.49-.502-3.49s-.671 1.142-2.341 1.152h-.017c-1.39 0-1.996-1.181-1.996-1.181 3.33-1.551 3.002-6.558 3.002-6.558s-.432.361-1.277.397c-.03.002-.058.002-.088.002-1.837 0-2.458-2.206-2.458-2.206h.037c.339 0 3.064-.087 4.992-2.838 1.27-1.81 2.312-3.398 4.364-4.025l.206-.04.045-.23c.056-.353-.157-.683-.645-1.04-2.836-2.083-.91-4.74-.91-4.74s.807 2.124 2.623 2.124l.133-.002c.204-.013.405-.021.604-.07l.334-.073s-.518-1.576.732-3.024a3.557 3.557 0 012.74-1.278c.335 0 .543.049.543.049-.625.919-1.078 2.442-.356 3.382.625.808 2.15.848 2.15 2.052 0 .51-.425 1.106-1.189 1.641-2.295 1.622-4.573 3.775-5.52 6.656-1.181 3.597.152 5.983 2.058 7.353 0 0-.598.617-1.464.695a4.773 4.773 0 01-.51.027c-1.826 0-2.77-.961-2.77-.961s.156 1.328 1.1 2.562c.884 1.14 2.034 1.81 3.792 1.838 0 0 .056.915-.722 1.706-.5.5-1.648.663-1.648.663s2.155.489 2.39 4.056c.13 1.933.566 2.604.566 2.604h-.036z" fill="#000"/><path d="M4.648 19.06c.241 0 .477-.039.7-.125.628-.233 1.026-.793 1.447-1.374.43-.596.915-1.267 1.754-1.768l.865-.52-.803-.632c-.067-.048-.67-.503-1.483-.503-.67 0-1.29.306-1.801.893-1.246 1.427-2.363 1.542-2.404 1.544l-.87.057.358.896c.359.887 1.3 1.533 2.237 1.533zm1.107-3.554c.464-.535.952-.695 1.373-.695.647 0 1.137.386 1.137.386-1.75 1.047-2.11 2.723-3.11 3.1a1.377 1.377 0 01-.507.095c-.735 0-1.446-.533-1.69-1.143 0-.002 1.347-.095 2.797-1.743zm2.819 11.369c-.094-2.535.486-4.591 1.395-6.285-.507 1.765-.438 3.927 1.287 5.943 0 0-3.43-4.61 1.365-9.335 1.92-1.799 4.018-2.909 5.097-3.696-3.903 1.43-5.81-.145-5.81-.145 1.246 1.213 2.86 1.192 3.863 1.016-.271.149-.555.304-.857.487-3.295 2.008-6.252 5.309-6.76 9.879v-.036c-.764 4.489-2.466 5.64-2.466 5.64 1.354-.749 2.207-2.738 2.414-3.456.227 3.945 1.942 6.684 3.949 9.32 1.042 1.365 1.408 2.694 1.408 2.694s-.204-1.505-1.107-2.73c-1.869-2.52-3.647-5.664-3.778-9.296zm15.304-9.246v.906c.279-.38.817-.302.817-.302v1.308s-.018.642-.222.921h1.165c-.2-.277-.22-.921-.22-.921v-1.308s.538-.078.815.302v-.906h-2.355zm-.502-5.377c.372.331.588.385.595.392l.146.075v-.853l-1.37-.646c0 .002.014.495.63 1.032zm3.257 0c.62-.537.63-1.032.63-1.032l-1.369.646v.853l.144-.075c.01-.007.223-.06.595-.392z" fill="#000"/><path d="M29.1 8.776c0-1.294-1.944-2.459-4.089-2.459h-.013c-2.145 0-4.089 1.165-4.089 2.46l.043.318.857 5.517-.86.56-2.226 1.458h.007s-.501.288-.733.466c-.847.66-1.027 1.624-.535 2.023.122-.785.675-1.608 1.712-1.608.746 0 1.314.433 1.775 1.081.117.164.23.338.334.527.13.237.258.445.388.646h-5.733c.42.95.82 1.958.82 3.05V37.05c0 3.445 2.363 5.09 4.918 5.09 1.975 0 2.24-.1 3.331 1.117 1.085-1.22 1.35-1.117 3.328-1.117 2.557 0 4.915-1.645 4.915-5.09V22.816c0-1.093.4-2.1.823-3.051H28.34c.127-.2.256-.41.385-.646.107-.19.217-.363.333-.527.464-.65 1.03-1.08 1.777-1.08 1.036 0 1.588.82 1.711 1.607.492-.399.314-1.362-.538-2.023-.229-.178-.73-.466-.73-.466h.008l-2.226-1.458-.857-.56.857-5.517.04-.319zm-7.347.643l3.011 1.145v5.307l-2.216-1.312-.795-5.14zm.623 11.271c.493.552.978.894 1.438 1.083-.06.266-.138.816.084 1.364.182.44.51.78.984 1.007.052.546.36 1.366 1.21 1.729-.372.422-.735.818-.883.98l-3.45-.061a.647.647 0 01-.272-.283c-.007-.02-.018-.03-.024-.05l.563.102a.202.202 0 00.035.002c.109 0 .204-.084.223-.21.019-.14-.065-.268-.187-.29l-.692-.12.769-2.978-.728-1.719-1.167 1.385-.071 3.097-.784-.138c-.121-.028-.237.073-.258.21-.019.136.064.264.187.289l.33.057a2.449 2.449 0 00-.205.142l-.067.053-.019.092c-.19.869.242 1.693.707 2.063l-.017.109a.54.54 0 00.079.373.43.43 0 00.361.208c.202 0 .378-.157.428-.386.174.023.333.027.442.027h.092l4.528.917.076-.056c.361-.284 1.736-1.408 2.187-1.78.123.12.262.229.43.32-.146.549-.155 1.394.423 2.062h-11.54v-7.472c0-.724-.19-1.452-.412-2.123h5.2v-.005zm5.596 6.836c-.458.378-1.637 1.343-2.063 1.679l-4.115-.829.028-.124a4.47 4.47 0 00.112-.95l3.459.063.065-.076c.053-.059 1.149-1.246 1.708-1.93.133.187.3.365.516.522-.075.453-.043 1.1.29 1.645zm-6.889-.8c.098.23.273.383.395.469a5.955 5.955 0 01-.073.841 1.93 1.93 0 01-.043.187l-.026.094c-.182 0-.539-.025-.83-.144-.324-.135-.807-.8-.695-1.532.14-.097.464-.3.767-.3.234-.002.393.121.505.386zm-.428-.92l.07-2.973.594-.707.374.877-.737 2.853-.301-.05zm7.28 15.413c-.225 0-.432.005-.62.013l.49-1.71c.077-.237-.31-.541-.469-.808.241.17.866.541 1.167.69-.032.055-.568 1.815-.568 1.815zm1.537-1.943l-.32 1.872a6.42 6.42 0 01-.643.059l.337-1.8c.1-.536-1.18-.701-1.813-1.753-.309.39-.89.506-1.474.506a6.752 6.752 0 01-1.39-.168 1.357 1.357 0 00-.237-.025.495.495 0 00-.475.288l-.094.176-1.745-.462-.434.806c-.062.13-.065.241.034.363l.118.145c-.08.285-.444.715-.444.715l-.26-.363c-.205-.258-.172-.728.043-1.164l.692-1.312 1.478.24-.23-.588c-.308-.776.161-1.765.211-2.333-.016.172-.157.21-.321.21-.15 0-.316-.032-.427-.032-.043 0-.08.004-.1.021l-.401.273-.316-.313a.276.276 0 01.043-.306l.731-.92-.864-1.13 1.21.682.369-.502c.1.111.058.403.058.403.378.01 1.436.668 1.492 2.2.004.045.004.098.004.148l.028.05c.075.116.28.412.543.439l1.672.185h.007c.184 0 .548-.242 1.016-.242.254 0 .538.074.841.288 0 0 .152-.134.399-.15l.058-.001c.75 0 1.06.76 1.463 1.39.303.481.707 1.195.707 1.195-.15.199-.288.308-.52.308-.064 0-.137-.006-.216-.023-.804-.166-.92-2.02-1.378-2.167a.223.223 0 00-.073-.01c-.148 0-.213.146-.213.146.21.632.088.888.312 1.374.169.361.468.66.591.8 0 .004-.033.277-.069.482zm-8.98-1.77l.077.216c-.05.188-.63.457-.63.457l-.126-.306c-.133-.328-.104-.88.3-1.217l.938-.642.996.237c-.02.354.17.619.17.619l-1.044-.225-.625.485c-.104.082-.112.235-.056.375zm9.137 3.54l.286-1.675c.015-.099.034-.214.047-.31a1.413 1.413 0 00.555.122c.438-.001.693-.26.863-.48l.22-.287-.179-.315a30.68 30.68 0 00-.72-1.219 6.476 6.476 0 01-.176-.291c-.348-.584-.784-1.316-1.657-1.316l-.079.002a1.16 1.16 0 00-.366.084 1.802 1.802 0 00-.851-.218c-.361 0-.666.111-.868.189-.058.019-.11.04-.152.048l-1.633-.18c-.02-.005-.088-.049-.168-.158v-.008l.354-.16c-.1-1.32-1.23-2.132-1.86-2.406a.777.777 0 00-.183-.372l-.352-.373-.308.415-.152.212-2.285-1.053 1.487 2.094-.588.997c-.215.255.023.511.023.511l.606.468.628-.262c.023 0 .042.006.062.009-.03.107-.07.526-.095.644l-1.09-.242-1.147.726c-.59.485-.67 1.289-.451 1.838l.127.313.181.44.4-.186a.04.04 0 00.016-.008c-.144.516-.086 1.007.172 1.33l.243.344.323.46.356-.429c.105-.117.443-.543.548-.908l.077-.28-.174-.213-.028-.038.194-.36 1.424.375.32.081.17-.314.093-.172c.017-.036.023-.042.088-.042.05 0 .101.006.155.019.537.113 1.033.17 1.472.17.427 0 .681-.02.986-.133 0 0 .765.974.791 1.012l-.467 1.62-.021.098c-.887.08-1.319.298-1.84.884-.758-.844-1.295-.932-3.332-.932-2.437 0-4.088-1.603-4.088-4.163V30.79h14.836l.004 6.26c.001 2.076-1.085 3.524-2.797 3.996zm3.208-20.356c-.226.672-.415 1.4-.415 2.124l.002 4.67c-.87-.163-.973-1.215-.977-1.26l-.017-.215-.186-.019c-.378-.04-.63-.22-.84-.45-.427-.48-.429-1.255-.427-1.262-.006.04-.47.768.07 1.563.226.336.553.542.977.624.1.583.487 1.405 1.4 1.531v2.287h-2.567c-1.184-.738-.682-2.04-.658-2.094l.101-.247-.226-.097c-1.282-.533-.93-1.968-.911-2.029l.052-.21-.174-.092c-1.058-.55-.914-2.033-.901-2.094-.326.296-.444.9-.22 1.492-.12.155-.284.344-.461.55-1.096-.313-1.13-1.444-1.13-1.496l-.002-.175-.144-.063c-.428-.178-.722-.444-.866-.803-.163-.397-.105-.812-.06-1.012a3.188 3.188 0 00.748.088h.019c.127 0 .252-.008.375-.023.683-.075 1.448-.404 2.245-1.29h5.194v.002zm-3.999-4.72l1.014.66h.015l.254.166c-.572.178-1.01.5-1.377.921-.013.013-.026.03-.039.044-.084.1-.168.21-.247.321l-.046.067a5.303 5.303 0 00-.26.412c-.085.14-.165.291-.245.447-.722 1.395-1.875 2.228-2.9 2.23-1.023-.002-2.175-.835-2.897-2.23a9.446 9.446 0 00-.241-.441l-.047-.078a8.525 8.525 0 00-.27-.413 7.816 7.816 0 00-.239-.313c-.017-.015-.028-.033-.044-.05-.37-.422-.805-.74-1.38-.917l.259-.166h.011l1.014-.66 1.042-.67 2.783 1.7.006-.007.007.007 2.783-1.7 1.044.67zm-1.373-1.409l-2.218 1.312v-5.309l3.01-1.145-.792 5.142zm-2.46-4.58l-3.299-1.463c.28-.744 1.575-1.378 3.3-1.38 1.726.002 3.02.636 3.299 1.38l-3.3 1.463z" fill="#000"/></svg>