<svg width="30" height="29" fill="none" xmlns="http://www.w3.org/2000/svg"><path d="M4.93 1.32a39.047 39.047 0 0120.14 0 6.02 6.02 0 014.346 4.663c.779 4 .779 8.113 0 12.113a6.021 6.021 0 01-4.346 4.663c-.168.045-.335.088-.503.13a.754.754 0 00-.567.73V28.4a.299.299 0 01-.494.23l-4.858-4.117a2.098 2.098 0 00-1.472-.494 39.038 39.038 0 01-12.246-1.26 6.021 6.021 0 01-4.346-4.663 31.68 31.68 0 010-12.113A6.02 6.02 0 014.93 1.321zm11.85 18.197c.452 0 .81-.358.81-.81 0 0-.014-6.178 0-7.714a.814.814 0 01.819-.81h2.834a.818.818 0 00.818-.819V6.523a.816.816 0 00-.818-.81H9.06a.805.805 0 00-.81.81v2.841c0 .452.366.818.81.818h2.849a.81.81 0 01.81.811v7.714c0 .452.367.81.812.81h3.25z" fill="#fff"/></svg>