<svg width="80" height="80" fill="none" xmlns="http://www.w3.org/2000/svg"><path d="M4.134 40.866A1.25 1.25 0 002 41.75v35A1.25 1.25 0 003.25 78h35a1.25 1.25 0 00.884-2.134l-35-35zM4.5 75.5V44.768L35.232 75.5H4.5z" fill="#284D73"/><path d="M10.75 70.5h10a1.25 1.25 0 00.884-2.134l-10-10a1.25 1.25 0 00-2.134.884v10a1.25 1.25 0 001.25 1.25zM12 62.268L17.732 68H12v-5.732zM15.75 8h2.5v2.5h-2.5V8zm5 0h2.5v2.5h-2.5V8zm5 0h2.5v2.5h-2.5V8zm1.993 17.61A1.232 1.232 0 0027 26.75V40.5a1.25 1.25 0 00.742 1.142l11.25 5a1.244 1.244 0 001.016 0l11.25-5A1.25 1.25 0 0052 40.5V26.75a1.232 1.232 0 00-.743-1.14v-.002l-11.25-5a1.253 1.253 0 00-1.016 0l-11.25 5 .002.001zM38.25 43.576l-8.75-3.89V28.674l8.75 3.89v11.014zm11.25-3.89l-8.75 3.89V32.563l8.75-3.89v11.015zm-10-16.57l8.172 3.633-8.172 3.632-8.172-3.632 8.172-3.632zM38.25 50.5h2.5v6.25h-2.5V50.5zm0-38.75h2.5V18h-2.5v-6.25zM17.704 24.136l1.078-2.255 5.232 2.5-1.077 2.255-5.233-2.5zm37.253.227l5.233-2.5 1.077 2.255-5.232 2.5-1.078-2.255zM17.704 44.358l5.232-2.5 1.078 2.255-5.232 2.5-1.078-2.255z" fill="#284D73"/><path d="M75.75 60.5h-7.5V41.018l7.348-7.349a4.786 4.786 0 00-6.767-6.767l-.581.58V16.75a1.25 1.25 0 00-.366-.884l-12.5-12.5A1.25 1.25 0 0054.5 3H15.75a5.006 5.006 0 00-5 5v36.25h2.5V8a2.503 2.503 0 012.5-2.5h37.5V13a5.006 5.006 0 005 5h7.5v11.982L46.116 49.616a1.251 1.251 0 00-.342.639l-1.25 6.25a1.25 1.25 0 001.471 1.47l6.25-1.25a1.25 1.25 0 00.639-.341L65.75 43.518V60.5h-25a1.25 1.25 0 00-1.25 1.25v3.75h-6.25V68h6.25v3.75A1.25 1.25 0 0040.75 73h35A1.25 1.25 0 0077 71.75v-10a1.25 1.25 0 00-1.25-1.25zm-20-47.5V7.268l8.232 8.232H58.25a2.503 2.503 0 01-2.5-2.5zm-6.982 37.5L68.25 31.018l3.232 3.232L52 53.732 48.768 50.5zM72.215 28a2.285 2.285 0 011.616 3.902l-.581.58-3.232-3.232.58-.58a2.271 2.271 0 011.617-.67zM47.767 53.035l1.697 1.697-2.121.424.424-2.12zM74.5 70.5H42V63h2.5v2.5H47V63h2.5v2.5H52V63h2.5v2.5H57V63h2.5v2.5H62V63h2.5v2.5H67V63h2.5v2.5H72V63h2.5v7.5z" fill="#5B9FD1"/></svg>