<svg width="30" height="30" fill="none" xmlns="http://www.w3.org/2000/svg"><path d="M15 7.96A7.041 7.041 0 1022.04 15 7.05 7.05 0 0015 7.96zm0 12.244a5.203 5.203 0 110-10.407 5.203 5.203 0 010 10.407zM21.735 0H8.265A8.275 8.275 0 000 8.265v13.47A8.275 8.275 0 008.265 30h13.47A8.275 8.275 0 0030 21.735V8.265A8.275 8.275 0 0021.735 0zm6.428 21.735a6.436 6.436 0 01-6.428 6.428H8.265a6.436 6.436 0 01-6.428-6.428V8.265a6.436 6.436 0 016.428-6.428h13.47a6.436 6.436 0 016.428 6.428v13.47zM24.49 7.04a1.53 1.53 0 11-3.061 0 1.53 1.53 0 013.06 0z" fill="#fff"/></svg>