<svg width="80" height="80" fill="none" xmlns="http://www.w3.org/2000/svg"><path d="M16.25 77.5h47.5a3.754 3.754 0 003.75-3.75V10a3.754 3.754 0 00-3.75-3.75H45.727a6.247 6.247 0 00-11.453 0H16.25A3.754 3.754 0 0012.5 10v63.75a3.754 3.754 0 003.75 3.75zm20-66.25v-2.5a3.75 3.75 0 017.5 0v2.5a1.25 1.25 0 00.758 1.149l7.992 3.425V17.5h-25v-1.676l7.992-3.425a1.25 1.25 0 00.758-1.149zM15 10a1.252 1.252 0 011.25-1.25h17.5v1.676l-7.992 3.425A1.25 1.25 0 0025 15v3.75A1.25 1.25 0 0026.25 20h27.5A1.25 1.25 0 0055 18.75V15a1.25 1.25 0 00-.758-1.149l-7.992-3.425V8.75h17.5A1.252 1.252 0 0165 10v63.75A1.252 1.252 0 0163.75 75h-47.5A1.252 1.252 0 0115 73.75V10z" fill="#5B9FD1"/><path d="M40 10a1.25 1.25 0 100-2.5 1.25 1.25 0 000 2.5zM20 36.25h10A1.25 1.25 0 0031.25 35v-5h-2.5v3.75h-7.5v-7.5h6.15l-2.504 3.129-1.512-1.513-1.768 1.768 2.5 2.5a1.249 1.249 0 001.86-.103l5-6.25A1.25 1.25 0 0030 23.75H20A1.25 1.25 0 0018.75 25v10A1.25 1.25 0 0020 36.25zM33.75 30h2.5v2.5h-2.5V30zm23.75 0h3.75v2.5H57.5V30zm-18.75 0H55v2.5H38.75V30zM20 52.5h10a1.25 1.25 0 001.25-1.25v-5h-2.5V50h-7.5v-7.5h6.15l-2.504 3.129-1.512-1.513-1.768 1.768 2.5 2.5a1.249 1.249 0 001.86-.103l5-6.25A1.25 1.25 0 0030 40H20a1.25 1.25 0 00-1.25 1.25v10A1.25 1.25 0 0020 52.5zm13.75-6.25h8.75v2.5h-8.75v-2.5zm11.25 0h16.25v2.5H45v-2.5zm-25 22.5h10a1.25 1.25 0 001.25-1.25v-5h-2.5v3.75h-7.5v-7.5h6.15l-2.504 3.129-1.512-1.513-1.768 1.768 2.5 2.5a1.249 1.249 0 001.86-.103l5-6.25A1.25 1.25 0 0030 56.25H20a1.25 1.25 0 00-1.25 1.25v10A1.25 1.25 0 0020 68.75zm13.75-6.25h3.75V65h-3.75v-2.5zm15 0h12.5V65h-12.5v-2.5zm-8.75 0h6.25V65H40v-2.5zM33.75 25h5v2.5h-5V25zm7.5 0h10v2.5h-10V25zm-7.5 16.25h5v2.5h-5v-2.5zm7.5 0h10v2.5h-10v-2.5zm-7.5 16.25h5V60h-5v-2.5zm7.5 0h10V60h-10v-2.5z" fill="#284D73"/></svg>