<svg width="80" height="80" fill="none" xmlns="http://www.w3.org/2000/svg"><path d="M5.161 5.161h2.58v2.581h-2.58v-2.58zm5.162 0h2.58v2.581h-2.58v-2.58zm5.161 0h2.58v2.581h-2.58v-2.58z" fill="#284D73"/><path d="M80 59.355V0H0v59.355h15.484V36.129h2.58v30.968h-2.58v-4.994h-2.58V76.13A3.876 3.876 0 0016.773 80h5.162a3.876 3.876 0 003.87-3.871V59.355h7.742v9.677l.516.387c.225.17 5.613 4.13 14.968 4.13s14.743-3.96 14.968-4.13l.516-.387v-11.14l3.391-1.939c.7-.398 1.202-1.033 1.492-1.76h1.569c.71 0 1.29.579 1.29 1.29v9.033h-.973l-2.847 9.97-.05.353A5.166 5.166 0 0073.547 80a5.166 5.166 0 005.162-5.161l-2.898-10.323h-.973v-5.161H80zM76.124 75a2.583 2.583 0 01-2.576 2.418A2.583 2.583 0 0170.973 75l2.258-7.904h.634L76.124 75zm1.295-72.42v7.742H2.581V2.58h74.838zM12.903 38.71H7.742V18.064h25.806V38.71h-7.742v-4.176l-6.451-12.903-6.452 12.903v4.176zm9.525-5.162h-6.146l3.073-6.147 3.073 6.147zm-.492 43.871h-5.162c-.71 0-1.29-.578-1.29-1.29v-6.452h7.742v6.452c0 .712-.58 1.29-1.29 1.29zm40-9.727c-1.474.898-6.022 3.276-12.904 3.276-6.884 0-11.433-2.38-12.903-3.276v-8.326l9.853 5.63a6.147 6.147 0 006.1 0l9.853-5.63v8.326zm-11.133-4.936a3.629 3.629 0 01-3.541 0l-15.825-9.042a.939.939 0 01-.47-.81.94.94 0 01.47-.811l15.825-9.043a3.583 3.583 0 013.54 0l14.985 8.563H49.032v2.58h16.755l-14.984 8.563zm20.165-11.143h-1.57c-.29-.727-.793-1.362-1.491-1.76L52.082 40.81c-1.854-1.06-4.248-1.06-6.102 0l-15.824 9.043a3.52 3.52 0 00-1.769 3.05 3.52 3.52 0 001.77 3.05l1.436.821h-5.787V43.871h-2.58v23.226h-2.58V36.129h2.58l.002 5.161H36.13V15.484H5.161V41.29h7.742v15.484H2.581v-43.87h74.838v43.87h-2.58v-1.29a3.876 3.876 0 00-3.871-3.871z" fill="#5B9FD1"/></svg>