<svg width="60" height="60" fill="none" xmlns="http://www.w3.org/2000/svg"><g clip-path="url(#clip0)" fill="#fff"><path d="M55.161 15.484H43.548v-5.59l-2.8-.715a7.08 7.08 0 00-.058-.141l1.473-2.484-5.168-5.169-2.484 1.474-.142-.06L33.654 0h-7.309l-.715 2.8c-.048.02-.095.038-.142.059l-2.484-1.475-5.167 5.169 1.473 2.484-.06.14-2.798.716v5.59H4.839A4.844 4.844 0 000 20.324v29.032a4.844 4.844 0 004.839 4.839h12.58v3.87h-3.87V60h32.903v-1.935H42.58v-3.871h12.58A4.844 4.844 0 0060 49.353V20.324a4.844 4.844 0 00-4.839-4.84zm-36.774-4.087l2.33-.594.173-.488c.11-.315.239-.622.382-.921l.223-.466-1.229-2.07 3.044-3.042 2.068 1.227.466-.223c.3-.143.607-.27.923-.383l.487-.172.594-2.33h4.303l.594 2.329.487.172c.316.113.623.24.923.383l.466.223 2.068-1.227 3.044 3.042-1.228 2.07.222.466c.142.3.27.606.382.921l.172.488 2.332.595V15.7l-2.33.594-.173.487c-.11.316-.239.623-.382.922l-.223.466 1.229 2.07-3.044 3.042-2.068-1.227-.466.223c-.3.143-.607.27-.923.383l-.487.172-.594 2.33H27.85l-.594-2.329-.487-.172a9.698 9.698 0 01-.923-.384l-.466-.222-2.068 1.227-3.044-3.043 1.228-2.069-.222-.466a9.57 9.57 0 01-.382-.922l-.172-.487-2.332-.595v-4.303zM36.774 38.71v3.87h-3.216l-1.53-3.827 1.067-2.135 2.132 1.706 2.75-6.417 2.692.979a2.914 2.914 0 011.912 2.729v6.966H38.71V38.71h-1.936zm-15.484 0v3.87h-3.87v-6.965a2.91 2.91 0 011.91-2.728l2.693-.98 2.75 6.418 2.132-1.706 1.067 2.135-1.53 3.827h-3.216V38.71H21.29zm10.646-10L30 31.29l-1.936-2.58v-1.613h3.872v1.613zm-1.567 9.032h-.738l-1.18-2.36L30 34.143l1.55 1.24-1.18 2.36zm-3.616-7.555l1.91 2.547-3.114 2.49-1.705-3.98 2.91-1.057zm2.934 9.49h.624l1.162 2.904h-2.947l1.161-2.904zm4.764-4.453l-3.114-2.49 1.91-2.547 2.909 1.058-1.705 3.979zM4.839 17.419h12.458l1.953.499.06.141-1.473 2.484 5.167 5.169 2.484-1.474.142.059.517 2.021h-.018v2.037l-7.46 2.712a4.852 4.852 0 00-3.185 4.548v8.901h29.032v-8.901a4.852 4.852 0 00-3.185-4.548l-7.46-2.712v-2.037h-.018l.517-2.021.142-.059 2.484 1.474 5.167-5.169-1.472-2.484.059-.141 1.953-.499H55.16c1.6 0 2.904 1.303 2.904 2.904v26.129H1.934v-26.13c0-1.6 1.303-2.903 2.904-2.903zm35.806 40.645h-21.29v-3.87h21.29v3.87zm14.516-5.806H4.84a2.907 2.907 0 01-2.904-2.903v-.968h56.13v.968c0 1.6-1.303 2.903-2.904 2.903z"/><path d="M30 21.29c4.269 0 7.742-3.473 7.742-7.742S34.269 5.806 30 5.806s-7.742 3.473-7.742 7.742c0 4.27 3.473 7.742 7.742 7.742zm0-13.548a5.812 5.812 0 015.806 5.806A5.812 5.812 0 0130 19.355a5.812 5.812 0 01-5.806-5.807A5.812 5.812 0 0130 7.742z"/><path d="M30 17.42a3.875 3.875 0 003.871-3.872A3.875 3.875 0 0030 9.678a3.875 3.875 0 00-3.871 3.87A3.875 3.875 0 0030 17.42zm0-5.807c1.067 0 1.936.868 1.936 1.936A1.937 1.937 0 0130 15.484a1.937 1.937 0 01-1.936-1.935c0-1.068.869-1.936 1.936-1.936zM3.871 42.58h9.677v1.936H3.871v-1.935zm0-3.87h9.677v1.935H3.871V38.71zm0-3.871h9.677v1.935H3.871V34.84zm42.581-15.484h9.677v1.935h-9.677v-1.935zm0 3.871h9.677v1.935h-9.677v-1.935zm0 3.871h9.677v1.935h-9.677v-1.935zm0 3.871h9.677v1.935h-9.677v-1.935zm-42.581 0h9.677v1.935H3.871v-1.935z"/></g><defs><clipPath id="clip0"><path fill="#fff" d="M0 0h60v60H0z"/></clipPath></defs></svg>