<svg width="45" height="45" fill="none" xmlns="http://www.w3.org/2000/svg"><g opacity=".5"><circle cx="22.5" cy="22.5" r="22.5" fill="#284D73"/><path d="M34.444 18.233c0-.242 0-.488-.015-.724a11.691 11.691 0 002.797-2.892 11.03 11.03 0 01-3.214.868 5.552 5.552 0 002.45-3.068 11.018 11.018 0 01-3.54 1.34A5.567 5.567 0 0028.849 12c-3.405 0-6.238 3.069-5.45 6.86a15.833 15.833 0 01-11.5-5.83 5.468 5.468 0 00-.759 2.812 5.58 5.58 0 002.486 4.64 5.583 5.583 0 01-2.516-.707v.07a5.575 5.575 0 004.465 5.474c-.884.226-1.658.226-2.516.1a5.58 5.58 0 005.213 3.868 11.19 11.19 0 01-6.926 2.38c-.462 0-.894-.02-1.346-.07a15.82 15.82 0 008.568 2.501c10.26 0 15.876-8.493 15.876-15.865z" fill="#fff"/></g></svg>