<svg width="45" height="45" fill="none" xmlns="http://www.w3.org/2000/svg"><g opacity=".5" clip-path="url(#clip0)"><path d="M0 21.563C0 11.398 0 6.316 3.158 3.157 6.316 0 11.398 0 21.562 0h1.875c10.165 0 15.247 0 18.405 3.158C45 6.316 45 11.398 45 21.562v1.875c0 10.165 0 15.247-3.158 18.405C38.685 45 33.602 45 23.438 45h-1.875c-10.165 0-15.247 0-18.405-3.158C0 38.685 0 33.602 0 23.438v-1.875z" fill="#284D73"/><path fill-rule="evenodd" clip-rule="evenodd" d="M12.188 14.063H8.906c-.937 0-1.125.44-1.125.927 0 .87 1.113 5.18 5.18 10.881 2.713 3.894 6.534 6.004 10.011 6.004 2.086 0 2.344-.469 2.344-1.276v-2.943c0-.937.198-1.124.859-1.124.486 0 1.32.243 3.268 2.12 2.226 2.225 2.592 3.223 3.844 3.223h3.282c.938 0 1.407-.469 1.136-1.394-.296-.922-1.358-2.26-2.768-3.845-.765-.904-1.912-1.877-2.26-2.364-.487-.626-.348-.904 0-1.46 0 0 3.998-5.632 4.416-7.543.208-.696 0-1.207-.993-1.207h-3.282c-.834 0-1.22.442-1.428.928 0 0-1.669 4.068-4.033 6.71-.765.764-1.113 1.008-1.53 1.008-.209 0-.51-.244-.51-.939v-6.5c0-.835-.243-1.207-.938-1.207H19.22c-.521 0-.835.388-.835.755 0 .79 1.182.973 1.304 3.198v4.832c0 1.06-.191 1.251-.609 1.251-1.112 0-3.819-4.085-5.424-8.76-.314-.908-.63-1.275-1.469-1.275z" fill="#fff"/></g><defs><clipPath id="clip0"><path fill="#fff" d="M0 0h45v45H0z"/></clipPath></defs></svg>