<svg width="80" height="80" fill="none" xmlns="http://www.w3.org/2000/svg"><path d="M11.25 6.25v67.5A3.754 3.754 0 0015 77.5h50a3.754 3.754 0 003.75-3.75V19.785a3.727 3.727 0 00-1.098-2.651L54.116 3.598A3.725 3.725 0 0051.465 2.5H15a3.754 3.754 0 00-3.75 3.75zm54.634 12.652a1.243 1.243 0 01.366.883V73.75A1.252 1.252 0 0165 75H15a1.252 1.252 0 01-1.25-1.25V6.25A1.252 1.252 0 0115 5h36.25v11.25A3.754 3.754 0 0055 20h7.5v-2.5H55a1.252 1.252 0 01-1.25-1.25V6.768l12.134 12.134z" fill="#5B9FD1"/><path d="M31.25 35c2.27.003 4.498-.617 6.44-1.791l3.926 3.925c.234.234.553.366.884.366h6.25V35h-5.732l-3.308-3.308a12.502 12.502 0 003.74-6.475l1.916 1.917c.234.234.553.366.884.366H55V25h-8.232l-3.032-3.031a12.501 12.501 0 00-5.67-9.94L39.419 10H42.5V7.5h-3.75a1.25 1.25 0 00-1.04.557l-1.878 2.817A12.5 12.5 0 1031.25 35zm9.432-9.182l-7.19-3.594 6.1-5.229a9.97 9.97 0 011.09 8.823zM32.5 12.581a9.967 9.967 0 015.466 2.516L32.5 19.782v-7.201zm-2.5 0V22.5a1.25 1.25 0 00.691 1.118l8.87 4.435A9.997 9.997 0 1130 12.581zM45 7.5h2.5V10H45V7.5zM57.5 25H60v2.5h-2.5V25zm-6.25 10h2.5v2.5h-2.5V35zm7.5 13.75H47.5V45a1.25 1.25 0 00-1.25-1.25h-7.5V40a1.25 1.25 0 00-1.25-1.25h-15v-2.5H20v22.5h2.5v-2.5h36.25A1.25 1.25 0 0060 55v-5a1.25 1.25 0 00-1.25-1.25zm-13.75 0H22.5v-2.5H45v2.5zm-8.75-7.5v2.5H22.5v-2.5h13.75zm21.25 12.5h-35v-2.5h35v2.5zM20 62.5h6.25V65H20v-2.5zm8.75 0H45V65H28.75v-2.5zm-8.75 5h10V70H20v-2.5zm12.5 0h8.75V70H32.5v-2.5zm15-5H55V65h-7.5v-2.5z" fill="#284D73"/></svg>