<svg width="140" height="140" fill="none" xmlns="http://www.w3.org/2000/svg"><path d="M35.637 36.355l-3.434-2.71a48.134 48.134 0 000 59.585l3.434-2.71a43.759 43.759 0 010-54.165zM70 19.688a43.297 43.297 0 0127.082 9.387l2.71-3.434a48.134 48.134 0 00-59.585 0l2.71 3.434A43.297 43.297 0 0170 19.688z" fill="#5B9FD1"/><path d="M70 98.438a34.983 34.983 0 01-28.29-55.586l-3.533-2.579a39.043 39.043 0 00-7.552 23.165c0 21.711 17.663 39.375 39.375 39.375s39.375-17.664 39.375-39.375a39.048 39.048 0 00-7.551-23.165l-3.534 2.579A34.983 34.983 0 0170 98.438zm23.164-66.824a39.305 39.305 0 00-46.329 0l2.58 3.534a34.93 34.93 0 0141.17 0l2.58-3.534z" fill="#5B9FD1"/><path d="M116.578 94.703l-2.828 2.828-5.25-5.25a48.085 48.085 0 00-.703-58.636l-3.434 2.71a43.3 43.3 0 019.387 27.083c0 24.123-19.626 43.749-43.75 43.749A43.294 43.294 0 0142.918 97.8l-2.71 3.434a48.08 48.08 0 0058.636.703l5.25 5.25-2.828 2.829a2.183 2.183 0 000 3.093l21.875 21.875 3.093-3.093-20.328-20.329 12.219-12.218 13.766 13.765 3.093-3.093-15.312-15.313a2.188 2.188 0 00-3.094 0zm-14.344 4.438a48.535 48.535 0 003.469-3.47l4.953 4.954-3.469 3.469-4.953-4.953z" fill="#5B9FD1"/><path d="M65.625 59.063a2.188 2.188 0 100-4.376 2.188 2.188 0 000 4.376zm8.75 0a2.188 2.188 0 100-4.376 2.188 2.188 0 000 4.376z" fill="#284D73"/><path d="M85.047 72.188a6.831 6.831 0 004.83-11.657 8.088 8.088 0 01-.791-.916 6.546 6.546 0 00-1.586-7.626v-1.676a17.5 17.5 0 00-35 0v1.676a6.546 6.546 0 00-1.586 7.626c-.24.325-.504.63-.79.916a6.83 6.83 0 004.829 11.657h8.484v2.187a20.11 20.11 0 00-17.076 9.822l3.763 2.231a15.726 15.726 0 0113.47-7.678h.22a6.56 6.56 0 0012.371 0h.222a15.725 15.725 0 0113.47 7.678l3.762-2.231a20.11 20.11 0 00-17.076-9.822v-2.188h8.484zm1.734-8.562a2.452 2.452 0 01-1.734 4.186h-5.266a13.07 13.07 0 002.592-4.374h.752a6.516 6.516 0 002.88-.668c.244.298.503.584.776.856zm-1.469-6.751a2.19 2.19 0 01-2.187 2.188v-4.376a2.19 2.19 0 012.188 2.188zM70 37.187a13.14 13.14 0 0113.125 13.126h-2.188a3.878 3.878 0 01-3.683-2.656l-1.028-3.084a6.564 6.564 0 00-12.452 0l-1.028 3.084a3.879 3.879 0 01-3.684 2.656h-2.187A13.14 13.14 0 0170 37.187zm-13.125 17.5v4.376a2.188 2.188 0 010-4.376zm-1.922 13.126a2.45 2.45 0 01-1.734-4.187c.273-.273.533-.56.777-.856a6.5 6.5 0 002.879.667h.744a13.026 13.026 0 002.6 4.376h-5.266zm18.547-.73a2.184 2.184 0 00-1.313 2.004v7.475a2.188 2.188 0 01-4.374 0v-7.475a2.19 2.19 0 00-1.313-2.005 8.769 8.769 0 01-5.25-8.02v-4.67a8.24 8.24 0 005.646-5.351l1.029-3.084a2.188 2.188 0 014.15 0l1.028 3.084a8.24 8.24 0 005.647 5.351v4.67a8.754 8.754 0 01-5.25 8.02z" fill="#284D73"/><path d="M107.828 22.516l-17.5 17.5 3.094 3.093L110.28 26.25h25.344v-4.375h-26.25c-.58 0-1.137.23-1.547.64zm1.547-18.141h8.75V8.75h-8.75V4.375zm13.125 0h13.125V8.75H122.5V4.375zm-15.312 8.75h8.75V17.5h-8.75v-4.375zm13.124 0h15.313V17.5h-15.313v-4.375zM46.578 43.11l3.094-3.094-17.5-17.5a2.19 2.19 0 00-1.547-.641H4.375v4.375h25.344l16.86 16.86zM8.75 4.375h8.75V8.75H8.75V4.375zm13.125 0H35V8.75H21.875V4.375zm-17.5 8.75h8.75V17.5h-8.75v-4.375zm13.125 0H35V17.5H17.5v-4.375zm16.86 89.047l6.562-6.563-3.094-3.093-5.922 5.921H4.376v4.376h28.438a2.19 2.19 0 001.546-.641zm-23.422 5.016h13.124v4.374H10.938v-4.374zm17.5 0h10.937v4.374H28.437v-4.374zm-24.063 8.75H17.5v4.374H4.375v-4.374zm17.5 0h8.75v4.374h-8.75v-4.374z" fill="#5B9FD1"/></svg>