<svg width="150" height="150" fill="none" xmlns="http://www.w3.org/2000/svg"><path d="M110.843 35.843L87.405 59.28l3.315 3.315 22.751-22.751h31.842v-4.688H112.5c-.621 0-1.218.247-1.657.687zm6.345-19.437h9.374v4.688h-9.374v-4.688zm14.062 0h14.062v4.688H131.25v-4.688zm-16.406 9.375h9.375v4.688h-9.375V25.78zm14.062 0h16.406v4.688h-16.406V25.78zM90.72 87.405l-3.315 3.315 25.782 25.781a2.34 2.34 0 001.657.686h30.469V112.5h-29.498L90.72 87.405zm24.124 34.47h14.062v4.687h-14.062v-4.687zm18.75 0h11.718v4.687h-11.718v-4.687zm-25.782 9.375h14.063v4.688h-14.063v-4.688zm18.75 0h9.376v4.688h-9.376v-4.688zM45.218 48.532l3.314-3.314-9.375-9.375a2.345 2.345 0 00-1.657-.687H4.687v4.688H36.53l8.689 8.688zM14.063 16.406h9.374v4.688h-9.375v-4.688zm14.062 0h14.063v4.688H28.124v-4.688zm-16.406 9.375h9.375v4.688h-9.375V25.78zm14.062 0h16.407v4.688H25.78V25.78zm11.033 90.72l18.75-18.75-3.315-3.315L34.185 112.5H4.687v4.687h30.47c.62 0 1.217-.246 1.657-.686zm-25.095 5.374H25.78v4.687H11.72v-4.687zm18.75 0h11.718v4.687H30.47v-4.687zM4.688 131.25H18.75v4.688H4.687v-4.688zm18.75 0h9.375v4.688h-9.376v-4.688z" fill="#284D73"/><path d="M39.75 47.785a44.523 44.523 0 00-8.666 19.796l4.623.775a39.818 39.818 0 017.75-17.704l-3.708-2.867zM75 35.156a39.46 39.46 0 0124.348 8.302l2.867-3.708a44.541 44.541 0 00-54.43 0l2.868 3.708A39.46 39.46 0 0175 35.156zm31.542 64.192l3.708 2.867a44.538 44.538 0 000-54.43l-3.708 2.867a39.85 39.85 0 010 48.696zM75 114.844a39.462 39.462 0 01-24.347-8.302l-2.868 3.708a44.543 44.543 0 0054.43 0l-2.867-3.708A39.462 39.462 0 0175 114.844zM31.084 82.419a44.525 44.525 0 008.665 19.796l3.709-2.867a39.818 39.818 0 01-7.751-17.704l-4.623.775z" fill="#5B9FD1"/><path d="M95.091 46.147a35.168 35.168 0 00-54.438 21.322l4.58 1A30.478 30.478 0 0192.409 49.99l2.682-3.844zm4.918 11.444a30.489 30.489 0 010 34.818l3.844 2.682a35.167 35.167 0 000-40.182l-3.844 2.682zm-42.418 42.418l-2.682 3.844a35.167 35.167 0 0040.182 0l-2.682-3.844a30.489 30.489 0 01-34.818 0zm-7.599-7.6a30.171 30.171 0 01-4.76-10.878l-4.579 1a34.835 34.835 0 005.494 12.56l3.845-2.682z" fill="#5B9FD1"/><path d="M75 49.219a25.675 25.675 0 00-24.6 18.047l4.472 1.405a21.109 21.109 0 0130.673-11.944l2.347-4.058A25.774 25.774 0 0075 49.22zm18.273 15.236a21.122 21.122 0 010 21.09l4.058 2.347a25.81 25.81 0 000-25.784l-4.058 2.347zM75 96.094a21.007 21.007 0 01-20.128-14.765l-4.473 1.405A25.797 25.797 0 0087.892 97.33l-2.347-4.058A21.08 21.08 0 0175 96.093z" fill="#5B9FD1"/><path d="M75 58.594a16.466 16.466 0 00-14.209 8.201l4.058 2.347a11.719 11.719 0 110 11.716l-4.058 2.347a16.408 16.408 0 1014.21-24.611z" fill="#5B9FD1"/><path d="M75 79.688a4.678 4.678 0 01-3.124-1.194l-3.127 3.493a9.375 9.375 0 100-13.974l3.127 3.493A4.687 4.687 0 1175 79.687z" fill="#5B9FD1"/><path d="M75 72.656H31.44l-6.345-6.345a2.344 2.344 0 00-1.658-.686H7.031a2.343 2.343 0 00-1.657 4.001L10.748 75l-5.374 5.374a2.344 2.344 0 001.657 4.001h16.406c.622 0 1.218-.247 1.658-.686l6.345-6.345H75v-4.688zm-52.533 7.031H12.69l3.03-3.03a2.344 2.344 0 000-3.314l-3.03-3.03h9.777L27.154 75l-4.687 4.688z" fill="#284D73"/></svg>