<svg width="226" height="226" fill="none" xmlns="http://www.w3.org/2000/svg"><path d="M173.031 173.031h35.313v7.063h-35.313v-7.063zm14.125 14.125h7.063v7.063h-7.063v-7.063zm14.125 0h7.063v7.063h-7.063v-7.063zm-28.25 0h7.063v7.063h-7.063v-7.063zM17.656 31.781H52.97v7.063H17.656V31.78zm28.25 14.125h7.063v7.063h-7.063v-7.063zm-28.25 0h7.063v7.063h-7.063v-7.063zm14.125 0h7.063v7.063H31.78v-7.063z" fill="#284D73"/><path d="M173.031 126.168v-23.762h38.844c5.841 0 10.594-4.753 10.594-10.594V14.126c0-5.84-4.753-10.594-10.594-10.594h-91.813c-5.84 0-10.593 4.753-10.593 10.594v24.719H67.094V17.656H3.53v49.438h63.563V45.906h42.375v7.063h-9.637l-3.093 9.654a52.74 52.74 0 00-7.872 3.245l-9-4.633L61.241 79.86l4.634 9.001a53.025 53.025 0 00-3.246 7.871l-9.661 3.101v23.762H14.125c-5.84 0-10.594 4.753-10.594 10.594v77.687c0 5.841 4.753 10.594 10.594 10.594h91.813c5.84 0 10.593-4.753 10.593-10.594v-24.719h42.375v21.188h63.563v-49.438h-63.563v21.188h-42.375v-7.063h9.637l3.093-9.654a52.873 52.873 0 007.872-3.245l9.001 4.633 18.624-18.624-4.633-9.001a53.124 53.124 0 003.245-7.872l9.661-3.1zm-113-66.137H10.594V24.72H60.03v35.31zM165.97 165.97h49.437v35.312H165.97V165.97zM144.781 113c0 16.328-12.384 29.811-28.25 31.573v-10.385c0-5.841-4.753-10.594-10.593-10.594H83.062c-1.2-3.39-1.843-6.939-1.843-10.594 0-16.329 12.384-29.81 28.25-31.573v10.385c0 5.841 4.753 10.594 10.593 10.594h22.876A31.6 31.6 0 01144.781 113zm-3.248-17.656c1.197-8.31 6.525-15.276 13.842-18.769v1.112c0 5.841 4.753 10.594 10.594 10.594 5.84 0 10.593-4.753 10.593-10.594v-1.112c7.317 3.493 12.646 10.46 13.843 18.769h-48.872zm6.779-54.364c0-7.02 5.711-12.73 12.731-12.73h1.395v8.411l-8.271 4.136a10.538 10.538 0 00-4.869 5.021c-.629-1.53-.986-3.16-.986-4.838zm14.126 33.459c1.158-.166 2.33-.283 3.531-.283 1.2 0 2.373.117 3.531.283v3.249a3.535 3.535 0 01-3.531 3.53 3.535 3.535 0 01-3.531-3.53v-3.25zm20.202-28.625a10.54 10.54 0 00-4.87-5.021l-8.27-4.132V28.25h1.395c7.02 0 12.73 5.71 12.73 12.73 0 1.678-.353 3.309-.985 4.834zm-20.202 21.28a7.07 7.07 0 01-7.063-7.063v-9.76a3.51 3.51 0 011.953-3.157l8.641-4.322 8.641 4.322a3.509 3.509 0 011.952 3.157v9.76a7.07 7.07 0 01-7.062 7.063h-7.062zm-45.907-52.969a3.535 3.535 0 013.531-3.531h91.813a3.535 3.535 0 013.531 3.531v77.688a3.535 3.535 0 01-3.531 3.53h-14.333c-1.247-11.207-8.348-20.647-18.165-25.24 2.617-2.568 4.248-6.127 4.248-10.072V57.57l3.74-5.608a19.738 19.738 0 003.323-10.978c0-10.915-8.882-19.797-19.793-19.797h-9.849c-10.915 0-19.796 8.882-19.796 19.793a19.73 19.73 0 003.323 10.979l3.739 5.611v2.461c0 3.945 1.632 7.504 4.249 10.071-9.817 4.594-16.919 14.034-18.165 25.242h-14.334a3.535 3.535 0 01-3.531-3.531V14.124zm-56.5 90.856l8.32-2.667.515-1.825a45.94 45.94 0 014.068-9.874l.93-1.652-3.991-7.751 11.342-11.34 7.748 3.988 1.656-.926a45.528 45.528 0 019.877-4.071l1.826-.516 2.659-8.316h4.488v14.305C89.701 76.126 74.156 92.773 74.156 113c0 3.627.533 7.165 1.505 10.594H60.03v-18.613zm-21.187 78.644v-17.656c0-10.477 7.652-19.178 17.656-20.87v8.094l-8.27 4.135a10.535 10.535 0 00-5.855 9.474v9.76c0 3.945 1.631 7.504 4.248 10.072a31.696 31.696 0 00-5.572 3.344c-1.406-1.822-2.207-4.026-2.207-6.353zm17.656 0a7.07 7.07 0 01-7.063-7.063v-9.76a3.51 3.51 0 011.953-3.157l8.641-4.322 8.641 4.322a3.51 3.51 0 011.953 3.157v9.76a7.07 7.07 0 01-7.063 7.063H56.5zm3.531 7.063c2.832 0 5.54.501 8.076 1.38l-2.525 5.682H54.48l-2.525-5.682a24.584 24.584 0 018.076-1.38zm2.412 14.124l-2.412 5.428-2.412-5.428h4.824zm11.946-9.488c6.261 4.492 10.361 11.809 10.361 20.082H65.466l8.923-20.082zm6.83-11.699c0 2.327-.802 4.531-2.207 6.349a31.94 31.94 0 00-5.573-3.344c2.617-2.564 4.249-6.123 4.249-10.068v-9.76a10.54 10.54 0 00-5.855-9.474l-8.27-4.135v-8.094c10.004 1.688 17.656 10.389 17.656 20.87v17.656zm-35.546 11.699l8.924 20.082H35.312c0-8.273 4.1-15.59 10.361-20.082zm63.796 16.551a3.534 3.534 0 01-3.531 3.531H91.812c0-7.85-2.874-15.029-7.61-20.58a17.397 17.397 0 004.08-11.201v-17.656c0-15.577-12.674-28.25-28.25-28.25-15.577 0-28.25 12.673-28.25 28.25v17.656c0 4.146 1.458 8.065 4.078 11.201-4.736 5.551-7.61 12.73-7.61 20.58H14.125a3.534 3.534 0 01-3.531-3.531v-77.687a3.535 3.535 0 013.531-3.532h91.813a3.535 3.535 0 013.531 3.532v77.687zm48.18-88.193l-.515 1.826a45.972 45.972 0 01-4.068 9.873l-.929 1.653 3.99 7.751-11.342 11.339-7.751-3.987-1.653.925a45.436 45.436 0 01-9.877 4.072l-1.826.515-2.659 8.32h-4.488v-14.305c19.768-1.791 35.313-18.437 35.313-38.664 0-3.627-.533-7.165-1.505-10.594h15.63v18.613l-8.32 2.663z" fill="#5B9FD1"/><path d="M17.656 137.719h7.063v7.062h-7.063v-7.062zm77.688 0h7.062v7.062h-7.062v-7.062zm28.25-120.063h7.062v7.063h-7.062v-7.063zm77.687 0h7.063v7.063h-7.063v-7.063z" fill="#284D73"/></svg>