<svg width="152" height="151" fill="none" xmlns="http://www.w3.org/2000/svg"><path d="M16 72.5H1v5h15v-5zM78.5.001h-5v15h5v-15zM151 72.502h-15v5h15v-5zm-72.501 62.499h-5v15h5v-15zm70.002-99.999h-10a2.502 2.502 0 01-2.5-2.5v-17.5h-17.5a2.497 2.497 0 01-2.5-2.5v-10a2.5 2.5 0 012.5-2.5h30a2.501 2.501 0 012.5 2.5v30a2.503 2.503 0 01-2.5 2.5zm-7.5-5h5v-25h-25v5h17.5a2.5 2.5 0 012.5 2.5v17.5zm7.498 120h-30a2.5 2.5 0 01-2.5-2.5v-10a2.5 2.5 0 012.5-2.5h17.5v-17.5a2.505 2.505 0 012.501-2.5h9.999a2.5 2.5 0 012.5 2.5v30a2.5 2.5 0 01-2.5 2.5zm-27.5-5h25v-25h-5v17.5a2.5 2.5 0 01-2.5 2.5h-17.5v5zM33.498 150h-30a2.499 2.499 0 01-2.5-2.5l.001-30a2.501 2.501 0 012.5-2.5h10a2.503 2.503 0 012.5 2.5V135l17.5.001a2.499 2.499 0 012.5 2.5v10a2.5 2.5 0 01-2.5 2.499zm-27.5-5h25v-5h-17.5a2.499 2.499 0 01-2.5-2.5V120h-5v25zM13.5 35h-10A2.5 2.5 0 011 32.5v-30A2.5 2.5 0 013.502 0h30a2.5 2.5 0 012.5 2.5v10a2.5 2.5 0 01-2.5 2.5H16v17.5a2.5 2.5 0 01-2.5 2.5zM6 30h5V12.5a2.5 2.5 0 012.5-2.5H31V5H6v25z" fill="#5B9FD1"/><path d="M31 62.5a2.5 2.5 0 100-5 2.5 2.5 0 000 5zm10 0a2.5 2.5 0 100-5 2.5 2.5 0 000 5zm-12.5 35h-5V110h5V97.5zm19.999 0h-5v12.501h5v-12.5zM71 62.501a2.5 2.5 0 100-5 2.5 2.5 0 000 5zm10 0a2.5 2.5 0 100-5 2.5 2.5 0 000 5zm-12.5 35h-5V110h5V97.5zm20 0h-5v12.5h5v-12.5z" fill="#284D73"/><path d="M128.243 79.78l-4.744-1.581v-2.703a14.987 14.987 0 006.641-7.994h.859a7.5 7.5 0 002.501-14.569v-7.93a7.5 7.5 0 00-4.438-6.85A7.494 7.494 0 00121 39.418a7.47 7.47 0 00-5-1.915h-10a7.51 7.51 0 00-7.5 7.5v7.93a7.47 7.47 0 00-2.5 1.485 7.415 7.415 0 00-2.628-1.528 17.5 17.5 0 00-34.744 0A7.417 7.417 0 0056 54.415a7.415 7.415 0 00-2.628-1.528 17.5 17.5 0 00-34.744 0A7.499 7.499 0 0021 67.5h.859a14.988 14.988 0 006.64 7.994v2.703l-4.743 1.581A14.985 14.985 0 0013.499 94.01V110h5V94.01a9.985 9.985 0 016.838-9.488l3.89-1.297a7.501 7.501 0 0013.544 0l3.89 1.298A9.985 9.985 0 0153.5 94.01v15.991h5v-15.99a9.985 9.985 0 016.838-9.488l3.89-1.297a7.502 7.502 0 0013.544 0l3.89 1.297a9.985 9.985 0 016.838 9.488V110h5V94.01a9.982 9.982 0 016.838-9.487l3.89-1.297A7.508 7.508 0 00116 87.501a7.5 7.5 0 006.772-4.275l3.891 1.297a9.99 9.99 0 016.837 9.487v15.991h5v-15.99a14.982 14.982 0 00-10.256-14.232zM131 57.502a2.497 2.497 0 012.5 2.5 2.5 2.5 0 01-2.5 2.5v-5zM21 62.5a2.5 2.5 0 110-5v5zm105-19.998a2.504 2.504 0 012.5 2.5v7.072a7.515 7.515 0 01-5-7.072 2.502 2.502 0 012.5-2.5zm-22.5 2.5a2.502 2.502 0 012.5-2.5h10a2.504 2.504 0 012.5 2.5 7.511 7.511 0 01-7.5 7.5h-7.5v-7.5zm-2.5 12.5v5a2.501 2.501 0 010-5zm-10 0a2.5 2.5 0 110 5v-5zm-15-15a12.521 12.521 0 0112.25 10H83.5v-5h-5v5h-5v-5h-5v5l-4.75-.001a12.521 12.521 0 0112.25-10zM61 57.5v5a2.5 2.5 0 010-5zm-10 0a2.5 2.5 0 110 5v-5zm-27.25-5.004a12.504 12.504 0 0124.5 0 11.486 11.486 0 01-9.331-5.125l-.838-1.259a2.503 2.503 0 00-4.162 0l-.838 1.26a11.486 11.486 0 01-9.331 5.124zM40 71.67a2.495 2.495 0 00-1.5 2.29v6.042a2.5 2.5 0 11-5 0V73.96a2.496 2.496 0 00-1.5-2.29 10.008 10.008 0 01-6-9.17v-5.19a16.458 16.458 0 0010-5.531 16.458 16.458 0 0010 5.531v5.19a10.008 10.008 0 01-6 9.17zm16 14.044a14.984 14.984 0 00-7.757-5.934L43.5 78.198v-2.704a14.987 14.987 0 006.641-7.993H51a7.469 7.469 0 005-1.916 7.472 7.472 0 002.5 1.485v.43a5.007 5.007 0 01-5 5 2.498 2.498 0 00-2 4 27.542 27.542 0 006.859 6.454 14.837 14.837 0 00-2.36 2.76zm12.5-7.515l-4.744 1.581c-.197.066-.394.134-.588.21a22.602 22.602 0 01-5.084-3.6 10.056 10.056 0 005.044-6.185 15.03 15.03 0 005.371 5.29v2.704zM80 71.67a2.497 2.497 0 00-1.5 2.29v6.041a2.5 2.5 0 01-5 0v-6.04A2.496 2.496 0 0072 71.67a10.007 10.007 0 01-6-9.169v-5h20v5a10.007 10.007 0 01-6 9.169zm8.827 8.319c-.19-.075-.387-.144-.584-.21l-4.744-1.58v-2.704a15.03 15.03 0 005.372-5.29 10.057 10.057 0 005.044 6.184 22.624 22.624 0 01-5.088 3.6zm19.672-1.79l-4.743 1.58a14.984 14.984 0 00-7.757 5.935 14.837 14.837 0 00-2.36-2.76 27.535 27.535 0 006.86-6.452 2.5 2.5 0 00-2-4 5.007 5.007 0 01-5-5v-.432a7.467 7.467 0 002.5-1.484 7.47 7.47 0 005 1.916h.86a14.985 14.985 0 006.64 7.993V78.2zm11.5-6.528a2.498 2.498 0 00-1.5 2.29v6.04a2.499 2.499 0 11-5 0v-6.04a2.494 2.494 0 00-1.5-2.29A10.01 10.01 0 01106 62.5v-5h5a12.478 12.478 0 0010-5.008 12.541 12.541 0 005 3.965v6.044a10.01 10.01 0 01-6.001 9.169z" fill="#284D73"/><path d="M111 62.502a2.5 2.5 0 100-5 2.5 2.5 0 000 5zm9.999 0a2.5 2.5 0 100-5 2.5 2.5 0 000 5zm-12.5 35h-5v12.5h5v-12.5zm20.001 0h-5l-.001 12.5h5l.001-12.5z" fill="#284D73"/></svg>