<svg width="139" height="139" fill="none" xmlns="http://www.w3.org/2000/svg"><path d="M106.422 106.422h21.719v4.344h-21.719v-4.344zm8.687 8.687h4.344v4.344h-4.344v-4.344zm8.688 0h4.344v4.344h-4.344v-4.344zm-17.375 0h4.344v4.344h-4.344v-4.344zM10.86 19.547h21.718v4.344H10.86v-4.344zm17.374 8.687h4.344v4.344h-4.344v-4.344zm-17.374 0h4.343v4.344H10.86v-4.344zm8.687 0h4.344v4.344h-4.344v-4.344z" fill="#284D73"/><path d="M106.422 77.599V62.984h23.89a6.523 6.523 0 006.516-6.515V8.687a6.523 6.523 0 00-6.516-6.515H73.844a6.524 6.524 0 00-6.516 6.515v15.204H41.266V10.859H2.172v30.407h39.094V28.234h26.062v4.344h-5.927l-1.903 5.938a32.442 32.442 0 00-4.84 1.996l-5.537-2.85-11.454 11.455 2.85 5.536a32.61 32.61 0 00-1.997 4.841l-5.942 1.907v14.615H8.688a6.524 6.524 0 00-6.516 6.515v47.781a6.523 6.523 0 006.515 6.516h56.47a6.523 6.523 0 006.515-6.516v-15.203h26.062v13.032h39.094V97.734H97.734v13.032H71.672v-4.344h5.927l1.902-5.938a32.48 32.48 0 004.842-1.996l5.536 2.85 11.454-11.455-2.85-5.536a32.654 32.654 0 001.997-4.841l5.942-1.907zm-69.5-40.677H6.516V15.203h30.406v21.719zm65.156 65.156h30.406v21.719h-30.406v-21.719zM89.047 69.5c0 10.043-7.617 18.335-17.375 19.419V82.53a6.524 6.524 0 00-6.516-6.515h-14.07a19.442 19.442 0 01-1.133-6.516c0-10.043 7.617-18.335 17.375-19.419v6.388a6.524 6.524 0 006.516 6.515h14.07a19.442 19.442 0 011.133 6.516zm-1.998-10.86c.736-5.11 4.013-9.395 8.513-11.543v.684a6.524 6.524 0 006.516 6.516 6.524 6.524 0 006.516-6.516v-.684c4.5 2.148 7.777 6.433 8.513 11.544H87.049zm4.17-33.435c0-4.318 3.512-7.83 7.83-7.83h.857v5.173l-5.086 2.544a6.482 6.482 0 00-2.995 3.088 7.816 7.816 0 01-.606-2.975zm8.687 20.578a15.265 15.265 0 012.172-.174c.739 0 1.46.072 2.172.174v1.998a2.174 2.174 0 01-2.172 2.172 2.174 2.174 0 01-2.172-2.172v-1.998zm12.426-17.605a6.483 6.483 0 00-2.995-3.088l-5.087-2.542v-5.173h.858c4.318 0 7.83 3.512 7.83 7.83a7.77 7.77 0 01-.606 2.973zM99.906 41.266a4.348 4.348 0 01-4.344-4.344v-6.003c0-.828.46-1.573 1.201-1.942l5.315-2.658 5.315 2.658a2.16 2.16 0 011.201 1.942v6.003a4.348 4.348 0 01-4.344 4.344h-4.344zM71.672 8.688c0-1.197.973-2.172 2.172-2.172h56.468c1.199 0 2.172.975 2.172 2.171V56.47a2.174 2.174 0 01-2.172 2.172h-8.815c-.767-6.894-5.134-12.7-11.172-15.525a8.653 8.653 0 002.613-6.194v-1.514l2.3-3.449a12.145 12.145 0 002.043-6.752c0-6.713-5.462-12.176-12.173-12.176H99.05c-6.713 0-12.175 5.463-12.175 12.174 0 2.41.706 4.745 2.044 6.752l2.3 3.451v1.514a8.651 8.651 0 002.613 6.194c-6.038 2.826-10.406 8.631-11.173 15.525h-8.815a2.174 2.174 0 01-2.172-2.172V8.687zm-34.75 55.88l5.117-1.64.317-1.123a28.253 28.253 0 012.502-6.072l.571-1.017-2.454-4.767 6.976-6.974 4.765 2.452 1.019-.57a28.002 28.002 0 016.074-2.503l1.123-.317 1.636-5.115h2.76v8.798C55.17 46.821 45.61 57.06 45.61 69.5c0 2.23.328 4.407.926 6.516h-9.613V64.568zm-13.031 48.37v-10.86c0-6.444 4.706-11.795 10.859-12.836v4.978l-5.087 2.543a6.48 6.48 0 00-3.6 5.828v6.003a8.65 8.65 0 002.612 6.194 19.51 19.51 0 00-3.427 2.057c-.864-1.121-1.357-2.476-1.357-3.907zm10.859 0a4.349 4.349 0 01-4.344-4.344v-6.003c0-.828.46-1.573 1.201-1.942l5.315-2.658 5.315 2.658a2.158 2.158 0 011.2 1.942v6.003a4.349 4.349 0 01-4.343 4.344H34.75zm2.172 4.343c1.742 0 3.408.309 4.967.849l-1.553 3.495h-6.828l-1.553-3.495c1.56-.54 3.225-.849 4.967-.849zm1.483 8.688l-1.483 3.338-1.483-3.338h2.966zm7.348-5.836c3.85 2.763 6.372 7.263 6.372 12.351h-11.86l5.488-12.351zm4.2-7.195c0 1.431-.493 2.786-1.357 3.905a19.57 19.57 0 00-3.427-2.057 8.643 8.643 0 002.612-6.192v-6.003a6.483 6.483 0 00-3.6-5.828l-5.087-2.543v-4.978c6.153 1.038 10.86 6.39 10.86 12.836v10.86zm-21.862 7.195l5.488 12.351H21.72c0-5.088 2.521-9.588 6.372-12.351zm39.237 10.179a2.174 2.174 0 01-2.172 2.172H56.47c0-4.828-1.768-9.243-4.68-12.657a10.702 10.702 0 002.508-6.889v-10.86c0-9.58-7.795-17.375-17.375-17.375s-17.375 7.795-17.375 17.375v10.86c0 2.549.897 4.96 2.508 6.889-2.912 3.414-4.68 7.829-4.68 12.657H8.687a2.174 2.174 0 01-2.171-2.172v-47.78c0-1.197.973-2.173 2.171-2.173h56.47c1.198 0 2.171.976 2.171 2.172v47.781zM96.961 76.07l-.317 1.123a28.251 28.251 0 01-2.502 6.072l-.571 1.017 2.454 4.767-6.976 6.974-4.767-2.452-1.017.569a27.928 27.928 0 01-6.074 2.504l-1.123.317-1.636 5.117h-2.76V93.28C83.83 92.179 93.39 81.94 93.39 69.5c0-2.23-.328-4.407-.926-6.516h9.613v11.448L96.96 76.07z" fill="#5B9FD1"/><path d="M10.86 84.703h4.343v4.344H10.86v-4.344zm47.78 0h4.344v4.344h-4.343v-4.344zM76.016 10.86h4.343v4.343h-4.343V10.86zm47.781 0h4.344v4.343h-4.344V10.86z" fill="#284D73"/></svg>