<svg width="167" height="167" fill="none" xmlns="http://www.w3.org/2000/svg"><path d="M125.25 147.517h-2.783V83.499H116.9v69.584H50.1v-11.134h-5.566v5.568H41.75v-5.568h-5.566v16.701a8.361 8.361 0 008.35 8.35h77.933a8.36 8.36 0 008.35-8.35V83.5h-5.567v64.017zm-2.783 13.916H44.534a2.782 2.782 0 01-2.784-2.783v-5.567h2.784v2.784a2.783 2.783 0 002.783 2.783h72.367a2.783 2.783 0 002.783-2.783v-2.784h2.783v5.567a2.786 2.786 0 01-2.783 2.783zM41.75 19.483h2.784v66.8H50.1V13.917h11.53a11.152 11.152 0 0010.78 8.35h22.267a11.15 11.15 0 0010.781-8.35H116.9v11.132h5.567v-5.566h2.783v5.566h5.567V8.35a8.363 8.363 0 00-8.35-8.35H44.534a8.36 8.36 0 00-8.35 8.35v77.933h5.566v-66.8zm2.784-13.916h77.933a2.786 2.786 0 012.783 2.783v5.567h-2.783v-2.784a2.783 2.783 0 00-2.783-2.783h-16.657a2.784 2.784 0 00-2.783 2.783 5.575 5.575 0 01-5.567 5.567H72.41a5.573 5.573 0 01-5.566-5.567A2.783 2.783 0 0064.06 8.35H47.317a2.783 2.783 0 00-2.783 2.783v2.784H41.75V8.35a2.786 2.786 0 012.784-2.783z" fill="#5B9FD1"/><path d="M77.934 8.35h11.133v5.567H77.934V8.35zm16.699 5.567a2.783 2.783 0 100-5.567 2.783 2.783 0 000 5.567z" fill="#5B9FD1"/><path d="M72.367 133.599V94.633a2.783 2.783 0 00-2.784-2.784h-66.8A2.783 2.783 0 000 94.632V133.6a2.783 2.783 0 002.783 2.784h66.8a2.784 2.784 0 002.784-2.784zm-5.567-2.783H5.567v-33.4H66.8v33.4z" fill="#284D73"/><path d="M16.7 102.983h11.134v5.566H16.7v-5.566zm16.7 0h16.7v5.566H33.4v-5.566zm22.266 0h5.567v5.566h-5.566v-5.566zm-44.532 8.35H33.4v5.566H11.134v-5.566zm27.832 0h22.267v5.566H38.966v-5.566zm-27.832 8.35h11.133v5.566H11.134v-5.566zm16.7 0h16.7v5.566h-16.7v-5.566zm22.266 0h11.133v5.566H50.1v-5.566zm114.116-89.067h-52.883a2.784 2.784 0 00-2.783 2.783v41.75a2.783 2.783 0 002.783 2.784h52.883A2.784 2.784 0 00167 75.148V33.4a2.783 2.783 0 00-2.784-2.783zm-2.783 41.75h-47.317V36.182h47.317v36.184z" fill="#284D73"/><path d="M130.817 51.252l4.414 4.414-3.599 3.599 3.936 3.936 9.166-9.165 9.165 9.165 3.936-3.936-11.133-11.134a2.784 2.784 0 00-3.937 0l-3.598 3.599-6.382-6.382a2.783 2.783 0 00-3.936 0l-11.134 11.133 3.937 3.937 9.165-9.166zm-25.05 4.414a22.268 22.268 0 00-32.291-19.883 22.267 22.267 0 00-3.216 37.785 6.892 6.892 0 00.728 7.148A6.944 6.944 0 0075.15 91.71v2.924a8.35 8.35 0 1016.7 0V91.71a6.942 6.942 0 004.162-10.993 6.892 6.892 0 00.728-7.148 22.203 22.203 0 009.027-17.902zm-38.967 0a16.7 16.7 0 1125.524 14.178 6.923 6.923 0 00-1.866-.261h-.889l2.243-13.46a2.784 2.784 0 00-2.745-3.24H77.933a2.785 2.785 0 00-2.745 3.24l2.243 13.46h-.89c-.63.002-1.258.09-1.865.261A16.654 16.654 0 0166.8 55.666zm23.658 22.267H76.542a1.392 1.392 0 010-2.784h13.916a1.392 1.392 0 110 2.784zm-9.24-19.484h4.563l-1.856 11.134h-.85l-1.856-11.134zM83.5 97.416a2.787 2.787 0 01-2.783-2.783v-2.784h5.566v2.784a2.786 2.786 0 01-2.783 2.783zm6.958-11.133H76.542a1.392 1.392 0 010-2.784h13.916a1.392 1.392 0 010 2.784zM80.716 25.05h5.567v5.566h-5.567v-5.567zM99.23 35.994l3.936-3.936 3.936 3.936-3.936 3.936-3.935-3.936zm-39.359-.009l3.936-3.936 3.935 3.936-3.935 3.935-3.936-3.935z" fill="#284D73"/></svg>