<svg width="260" height="402" fill="none" xmlns="http://www.w3.org/2000/svg"><g filter="url(#filter0_b)"><path d="M121.363 234.958V103.727a4.14 4.14 0 00-4.167-4.148H9.389a4.14 4.14 0 00-4.167 4.148v117.008c0 63.871 51.986 115.56 116.141 115.56v-34.108c0-2.173-1.719-4.017-3.902-4.149-30.887-2.041-55.359-27.589-55.359-58.866h55.094c2.249 0 4.167-1.909 4.167-4.214z" fill="url(#paint0_linear)"/><path d="M121.363 336.045h-.25v.25h.25v-.25zm-59.26-96.623l-.001-.25v.25h0z" stroke="url(#paint1_linear)" stroke-width=".5"/></g><g filter="url(#filter1_b)"><path d="M143 300.369V104.148a4.14 4.14 0 014.167-4.148h107.742a4.14 4.14 0 014.166 4.148v181.998c0 63.871-51.986 115.56-116.075 115.56v-34.174c0-2.173 1.72-4.017 3.902-4.149 30.888-2.041 55.359-27.589 55.359-58.866h-55.094c-2.249 0-4.167-1.843-4.167-4.148z" fill="url(#paint2_linear)"/><path d="M258.825 286.146c0 63.648-51.737 115.175-115.575 115.309v-33.923c0-2.042 1.617-3.775 3.667-3.899h.002c31.016-2.05 55.592-27.705 55.592-59.116v-.25h-55.344c-2.115 0-3.917-1.735-3.917-3.898V104.148a3.89 3.89 0 013.917-3.898h107.742a3.89 3.89 0 013.916 3.898v181.998z" stroke="url(#paint3_linear)" stroke-width=".5"/></g><path d="M211.659 9.165h-.001v64.932c0 2.033-1.672 3.7-3.718 3.7H56.281c-2.045 0-3.718-1.667-3.718-3.7V9.172c0-2.034 1.673-3.701 3.718-3.701H207.94c2.053 0 3.78 1.672 3.719 3.693zM101.653 53.67h.25V29.598H77.725v24.073h23.928zm84.593 0h.25V29.598h-24.178v24.073h23.928z" fill="url(#paint4_linear)" stroke="url(#paint5_linear)" stroke-width=".5"/><g filter="url(#filter2_b)"><path d="M116.141 229.736V98.506a4.14 4.14 0 00-4.166-4.149H4.167A4.14 4.14 0 000 98.505v117.009c0 63.87 51.986 115.559 116.141 115.559v-34.108c0-2.173-1.719-4.017-3.902-4.148-30.887-2.042-55.359-27.59-55.359-58.867h55.095c2.248 0 4.166-1.909 4.166-4.214z" fill="url(#paint6_linear)"/><path d="M116.141 330.823h-.25v.25h.25v-.25zM56.881 234.2v-.25.25h0z" stroke="url(#paint7_linear)" stroke-width=".5"/></g><g filter="url(#filter3_b)"><path d="M137.703 294.792V98.572a4.14 4.14 0 014.167-4.15h107.741a4.14 4.14 0 014.167 4.15v181.997c0 63.871-51.986 115.56-116.075 115.56v-34.174c0-2.173 1.72-4.017 3.902-4.149 30.887-2.041 55.359-27.589 55.359-58.866H141.87c-2.249 0-4.167-1.844-4.167-4.148z" fill="url(#paint8_linear)"/><path d="M253.528 280.569c0 63.648-51.737 115.175-115.575 115.309v-33.923c0-2.042 1.617-3.776 3.667-3.899h.002c31.016-2.05 55.592-27.705 55.592-59.116v-.25H141.87c-2.115 0-3.917-1.735-3.917-3.898V98.572a3.89 3.89 0 013.917-3.9h107.741a3.89 3.89 0 013.917 3.9v181.997z" stroke="url(#paint9_linear)" stroke-width=".5"/></g><g filter="url(#filter4_b)"><path d="M202.718 0H51.06c-2.183 0-3.969 1.778-3.969 3.95v64.925c0 2.173 1.786 3.95 3.969 3.95h151.658c2.183 0 3.969-1.777 3.969-3.95V3.95c.066-2.172-1.786-3.95-3.969-3.95zM96.432 48.2H72.754V24.625h23.678V48.2zm84.593 0h-23.679V24.625h23.679V48.2z" fill="url(#paint10_linear)"/><path d="M206.437 3.943h0v64.932c0 2.034-1.673 3.7-3.719 3.7H51.06c-2.046 0-3.719-1.666-3.719-3.7V3.95c0-2.034 1.673-3.701 3.719-3.701h151.658c2.053 0 3.78 1.672 3.719 3.693zM96.432 48.45h.25V24.376H72.504V48.45h23.928zm84.593 0h.25V24.376h-24.179V48.45h23.929z" stroke="url(#paint11_linear)" stroke-width=".5"/></g><defs><linearGradient id="paint0_linear" x1="44.385" y1="118.534" x2="72.583" y2="324.794" gradientUnits="userSpaceOnUse"><stop stop-color="#284D73" stop-opacity=".6"/><stop offset="1" stop-color="#fff" stop-opacity=".42"/></linearGradient><linearGradient id="paint1_linear" x1="95.036" y1="120.623" x2="63.292" y2="336.295" gradientUnits="userSpaceOnUse"><stop stop-color="#fff" stop-opacity=".51"/><stop offset="1" stop-color="#fff" stop-opacity=".2"/></linearGradient><linearGradient id="paint2_linear" x1="201.038" y1="100" x2="201.038" y2="401.706" gradientUnits="userSpaceOnUse"><stop stop-color="#284D73"/><stop offset=".151" stop-color="#5B9FD1"/><stop offset="1" stop-color="#fff" stop-opacity=".31"/></linearGradient><linearGradient id="paint3_linear" x1="252.287" y1="126.722" x2="165.606" y2="336.115" gradientUnits="userSpaceOnUse"><stop stop-color="#fff"/><stop offset="1" stop-color="#fff" stop-opacity=".1"/></linearGradient><linearGradient id="paint4_linear" x1="138.377" y1="14.099" x2="156.653" y2="82.504" gradientUnits="userSpaceOnUse"><stop offset=".344" stop-color="#284D73"/><stop offset="1" stop-color="#5B9FD1"/></linearGradient><linearGradient id="paint5_linear" x1="176.496" y1="80.415" x2="87.204" y2="9.921" gradientUnits="userSpaceOnUse"><stop stop-color="#fff"/><stop offset="1" stop-color="#fff" stop-opacity="0"/></linearGradient><linearGradient id="paint6_linear" x1="58.484" y1="102.347" x2="75.194" y2="298.163" gradientUnits="userSpaceOnUse"><stop stop-color="#284D73"/><stop offset="1" stop-color="#284D73" stop-opacity=".29"/></linearGradient><linearGradient id="paint7_linear" x1="111.224" y1="99.736" x2="0" y2="245.423" gradientUnits="userSpaceOnUse"><stop stop-color="#fff"/><stop offset="1" stop-color="#fff" stop-opacity=".1"/></linearGradient><linearGradient id="paint8_linear" x1="195.741" y1="94.423" x2="195.741" y2="396.129" gradientUnits="userSpaceOnUse"><stop stop-color="#F3FAFF"/><stop offset="1" stop-color="#5B9FD1" stop-opacity=".3"/></linearGradient><linearGradient id="paint9_linear" x1="253.778" y1="119.579" x2="159.786" y2="336.804" gradientUnits="userSpaceOnUse"><stop stop-color="#fff"/><stop offset="1" stop-color="#fff" stop-opacity=".1"/></linearGradient><linearGradient id="paint10_linear" x1="126.89" y1="0" x2="126.89" y2="72.826" gradientUnits="userSpaceOnUse"><stop stop-color="#fff"/><stop offset="1" stop-color="#fff" stop-opacity=".2"/></linearGradient><linearGradient id="paint11_linear" x1="182.762" y1="53.262" x2="113.835" y2="17.754" gradientUnits="userSpaceOnUse"><stop stop-color="#fff"/><stop offset="1" stop-color="#284D73" stop-opacity=".1"/></linearGradient><filter id="filter0_b" x=".222" y="94.579" width="126.141" height="246.716" filterUnits="userSpaceOnUse" color-interpolation-filters="sRGB"><feFlood flood-opacity="0" result="BackgroundImageFix"/><feGaussianBlur in="BackgroundImage" stdDeviation="2.5"/><feComposite in2="SourceAlpha" operator="in" result="effect1_backgroundBlur"/><feBlend in="SourceGraphic" in2="effect1_backgroundBlur" result="shape"/></filter><filter id="filter1_b" x="139" y="96" width="124.075" height="309.706" filterUnits="userSpaceOnUse" color-interpolation-filters="sRGB"><feFlood flood-opacity="0" result="BackgroundImageFix"/><feGaussianBlur in="BackgroundImage" stdDeviation="2"/><feComposite in2="SourceAlpha" operator="in" result="effect1_backgroundBlur"/><feBlend in="SourceGraphic" in2="effect1_backgroundBlur" result="shape"/></filter><filter id="filter2_b" x="-4" y="90.357" width="124.141" height="244.716" filterUnits="userSpaceOnUse" color-interpolation-filters="sRGB"><feFlood flood-opacity="0" result="BackgroundImageFix"/><feGaussianBlur in="BackgroundImage" stdDeviation="2"/><feComposite in2="SourceAlpha" operator="in" result="effect1_backgroundBlur"/><feBlend in="SourceGraphic" in2="effect1_backgroundBlur" result="shape"/></filter><filter id="filter3_b" x="133.703" y="90.423" width="124.075" height="309.706" filterUnits="userSpaceOnUse" color-interpolation-filters="sRGB"><feFlood flood-opacity="0" result="BackgroundImageFix"/><feGaussianBlur in="BackgroundImage" stdDeviation="2"/><feComposite in2="SourceAlpha" operator="in" result="effect1_backgroundBlur"/><feBlend in="SourceGraphic" in2="effect1_backgroundBlur" result="shape"/></filter><filter id="filter4_b" x="41.091" y="-6" width="171.597" height="84.826" filterUnits="userSpaceOnUse" color-interpolation-filters="sRGB"><feFlood flood-opacity="0" result="BackgroundImageFix"/><feGaussianBlur in="BackgroundImage" stdDeviation="3"/><feComposite in2="SourceAlpha" operator="in" result="effect1_backgroundBlur"/><feBlend in="SourceGraphic" in2="effect1_backgroundBlur" result="shape"/></filter></defs></svg>