<svg width="90" height="168" fill="none" xmlns="http://www.w3.org/2000/svg"><path d="M81.563 97.674H56.25V72.558a8.34 8.34 0 00-2.471-5.92 8.471 8.471 0 00-5.967-2.452 8.471 8.471 0 00-5.966 2.452 8.34 8.34 0 00-2.471 5.92v25.124a14.06 14.06 0 00-8.438-2.798c-.745 0-1.46.294-1.988.817a2.78 2.78 0 00-.824 1.973v33.489c0 .633.217 1.248.616 1.743l10.634 13.189v4.603h-2.813c-.745 0-1.46.294-1.988.817a2.781 2.781 0 00-.824 1.974v13.953h5.625v-11.163H78.75v11.163h5.625v-13.953c0-.741-.296-1.45-.824-1.974a2.825 2.825 0 00-1.989-.817H78.75v-4.603l10.634-13.189a2.776 2.776 0 00.616-1.743v-25.117a8.35 8.35 0 00-2.474-5.917 8.482 8.482 0 00-5.963-2.455zm2.812 32.51l-9.79 12.142H67.5v5.581h5.625v2.791H45v-2.791h5.625v-5.581h-7.086l-9.789-12.142v-29.241a8.448 8.448 0 014.074 3.062 8.34 8.34 0 011.551 4.832V120H45V72.558c0-.74.296-1.45.824-1.973a2.823 2.823 0 011.989-.818c.745 0 1.46.294 1.988.818a2.78 2.78 0 01.824 1.973v36.279h5.625v-5.581h25.313c.745.001 1.46.295 1.987.818.528.523.824 1.233.825 1.972v24.138z" fill="#284D73"/><path d="M28.125 72.558a19.346 19.346 0 003.283 10.804l4.684-3.09a13.864 13.864 0 01-.67-14.31 14 14 0 015.172-5.376 14.145 14.145 0 017.218-1.979c2.543 0 5.038.684 7.22 1.98a14 14 0 015.17 5.374 13.866 13.866 0 01-.67 14.31l4.685 3.091a19.442 19.442 0 003.143-8.464 19.394 19.394 0 00-1.025-8.963 19.522 19.522 0 00-4.973-7.55 19.725 19.725 0 00-7.862-4.53 19.836 19.836 0 00-9.075-.54 19.766 19.766 0 00-8.352 3.561 19.574 19.574 0 00-5.849 6.905 19.412 19.412 0 00-2.099 8.777z" fill="#284D73"/><path d="M37.689 49.53l-2.253-5.114a30.933 30.933 0 00-11.115 8.162 30.628 30.628 0 00-6.424 12.15 30.478 30.478 0 00-.448 13.715 30.593 30.593 0 005.615 12.538l4.497-3.352a25.033 25.033 0 01-4.592-10.26 24.938 24.938 0 01.368-11.22 25.06 25.06 0 015.257-9.941 25.31 25.31 0 019.095-6.678zm30.377 7.96l4.497-3.353a30.93 30.93 0 00-18.566-11.663l-1.119 5.47a25.306 25.306 0 0115.188 9.545z" fill="#284D73"/><path d="M81.563 0H8.436a8.48 8.48 0 00-5.963 2.455A8.349 8.349 0 000 8.372v128.372a8.347 8.347 0 002.474 5.917 8.476 8.476 0 005.963 2.455h22.5v-5.581h-22.5a2.828 2.828 0 01-1.987-.818 2.786 2.786 0 01-.825-1.973v-5.581h2.813v2.79c0 .741.296 1.45.823 1.974a2.825 2.825 0 001.989.817H22.5v-5.581h-8.438V13.953H22.9a11.177 11.177 0 004.007 6.031 11.326 11.326 0 006.887 2.342h22.5a11.326 11.326 0 006.887-2.342 11.177 11.177 0 004.007-6.03h8.75v78.139h5.624V19.535h2.813v72.558H90V8.373a8.35 8.35 0 00-2.474-5.918A8.48 8.48 0 0081.563 0zM5.624 125.581V19.535h2.813v106.046H5.624zM81.563 13.954v-2.791c0-.74-.297-1.45-.824-1.973a2.824 2.824 0 00-1.989-.818H64.731c-.745 0-1.46.294-1.988.818a2.78 2.78 0 00-.824 1.973 5.566 5.566 0 01-1.65 3.945 5.654 5.654 0 01-3.975 1.636h-22.5a5.653 5.653 0 01-3.976-1.636 5.566 5.566 0 01-1.65-3.945c0-.74-.295-1.45-.823-1.973a2.824 2.824 0 00-1.989-.818H11.25c-.746 0-1.461.294-1.989.818a2.78 2.78 0 00-.823 1.973v2.79H5.624v-5.58c0-.74.297-1.45.825-1.973a2.827 2.827 0 011.987-.819h73.126c.745.001 1.46.296 1.987.819a2.78 2.78 0 01.825 1.972v5.582h-2.813z" fill="#5B9FD1"/><path d="M50.625 8.372h-11.25v5.582h11.25V8.372zm5.625 5.582c1.553 0 2.813-1.25 2.813-2.791s-1.26-2.79-2.813-2.79c-1.553 0-2.813 1.249-2.813 2.79s1.26 2.79 2.813 2.79z" fill="#5B9FD1"/></svg>