<svg width="298" height="94" fill="none" xmlns="http://www.w3.org/2000/svg"><path d="M95.232 15.64l-1.806 4.25h-.08c.142-2.03.457-4.562.457-6.78V4.452h-3.284v19.922h3.74l5.593-11.203 1.807-4.25h.078c-.141 2.125-.455 4.515-.455 6.734v8.719h3.283V4.453h-3.739l-5.594 11.188zm19.876-11.187h-6.583v19.922h3.567v-7.313h3.016c4.321 0 7.637-2 7.637-6.468 0-4.61-3.253-6.14-7.637-6.14zm-.282 9.781h-2.734V7.297h2.734c2.906 0 4.399.844 4.399 3.312 0 2.422-1.43 3.625-4.399 3.625zm15.335 1.406l-1.807 4.25h-.079c.142-2.03.456-4.562.456-6.78V4.452h-3.284v19.922h3.74l5.593-11.203 1.807-4.25h.079c-.142 2.125-.456 4.515-.456 6.734v8.719h3.284V4.453h-3.739l-5.594 11.188zm23.207-3.187h-6.851v-8h-3.582v19.922h3.582v-8.828h6.851v8.828h3.582V4.453h-3.582v8zm18.839 11.922h3.787l-6.489-19.922h-4.196l-6.489 19.922h3.645L164.021 19h6.662l1.524 5.375zm-7.385-8.172l.692-2.406c.597-2.094 1.194-4.36 1.759-6.563h.126c.55 2.204 1.194 4.47 1.791 6.563l.692 2.406h-5.06zm-63.415 29.235c-.738.14-1.697.265-3.064.265-2.875 0-4.32-1.031-4.32-4.078v-4.75h-3.489v4.734c0 5.11 2.829 6.922 7.464 6.922 1.492 0 2.467-.093 3.425-.234v8.437h3.567V36.875h-3.567v8.563h-.016zm11.549 2.452h7.825v-2.968h-7.825v-5.078h9.239v-2.969h-12.79v19.86h13.104v-2.97h-9.553v-5.874zm19.955-11.015h-6.568v19.844h3.551v-7.297h3.017c4.305 0 7.604-2 7.604-6.438 0-4.578-3.236-6.109-7.604-6.109zm-.283 9.734h-2.734v-6.906h2.734c2.907 0 4.383.844 4.383 3.297 0 2.422-1.429 3.61-4.383 3.61zm21.007-1.765h-6.819v-7.969h-3.582v19.86h3.582v-8.797h6.819v8.796h3.567V36.875h-3.567v7.969zm13.984-8.328c-4.635 0-7.856 3.672-7.856 10.203 0 6.656 3.221 10.375 7.856 10.375s7.856-3.735 7.856-10.375c0-6.532-3.221-10.203-7.856-10.203zm0 17.5c-2.545 0-4.195-2.625-4.195-7.313 0-4.547 1.65-7.125 4.195-7.125 2.545 0 4.195 2.578 4.195 7.125 0 4.688-1.65 7.313-4.195 7.313zm11.941 2.718h3.567v-16.89h9.113v-2.969h-12.68v19.86zm22.878-20.218c-4.635 0-7.857 3.672-7.857 10.203 0 6.656 3.222 10.375 7.857 10.375s7.856-3.735 7.856-10.375c-.016-6.532-3.237-10.203-7.856-10.203zm0 17.5c-2.546 0-4.196-2.625-4.196-7.313 0-4.547 1.65-7.125 4.196-7.125 2.545 0 4.195 2.578 4.195 7.125 0 4.688-1.666 7.313-4.195 7.313zm17.487-17.141h-6.567v19.844h3.551v-7.297h3.016c4.306 0 7.605-2 7.605-6.438 0-4.578-3.237-6.109-7.605-6.109zm-.282 9.734h-2.734v-6.906h2.734c2.906 0 4.383.844 4.383 3.297 0 2.422-1.414 3.61-4.383 3.61zm24.448-9.734h-3.551v16.89h-6.741v-16.89h-3.551v19.86h12.806v5.703h2.938l.33-6.516v-2.156h-2.231V36.875zm8.092 11.015h7.825v-2.968h-7.825v-5.078h9.239v-2.969h-12.79v19.86h13.104v-2.97h-9.553v-5.874zm23.144-1.702v-.126c2.357-.609 3.457-2.437 3.457-4.312 0-3.64-2.97-4.875-7.086-4.875h-6.191v19.844h6.709c4.415 0 7.605-1.86 7.605-5.828 0-2.688-1.603-4.22-4.494-4.703zm-6.285-6.485h2.42c2.577 0 3.849.672 3.849 2.484 0 1.844-1.147 2.86-3.928 2.86h-2.341v-5.344zm2.813 14.203h-2.813v-6.203h2.813c2.985 0 4.493.86 4.493 2.953 0 2.25-1.571 3.25-4.493 3.25zm22.374 2.828H298l-6.473-19.843h-4.196l-6.473 19.843h3.629l1.54-5.359h6.631l1.571 5.36zm-7.353-8.156l.691-2.406a262.699 262.699 0 001.76-6.547h.125a219.22 219.22 0 001.776 6.547l.691 2.406h-5.043zM27.59 54.516V23.375a.983.983 0 00-.989-.984H.99c-.55 0-.99.437-.99.984v27.766c0 15.156 12.35 27.422 27.59 27.422v-8.094a.992.992 0 00-.926-.985C19.326 69 13.513 62.938 13.513 55.516H26.6c.534 0 .99-.453.99-1zm5.123 15.437V23.391c0-.547.44-.985.99-.985h25.595c.55 0 .99.438.99.985v43.187C60.288 81.734 47.938 94 32.713 94v-8.11c0-.515.408-.953.927-.984 7.338-.484 13.151-6.547 13.151-13.969H33.703a.993.993 0 01-.99-.984zM48.158 0H12.13a.943.943 0 00-.943.938v15.406c0 .515.424.937.943.937h36.028a.943.943 0 00.943-.937V.937C49.117.422 48.677 0 48.158 0zm-25.25 11.438h-5.625V5.843h5.625v5.593zm20.097 0H37.38V5.843h5.625v5.593zm47.514 71.781h2.624v-7.922h-2.624v-1.375h6.897v1.375h-2.624v7.922h2.624v1.375H90.52v-1.375zm11.957-7.922h-3.457v-1.375h8.563v1.375h-3.456v9.297h-1.65v-9.297zm13.732 3.328h-7.164v1.188h7.164v-1.188zm2.279-2h1.335l.126.969h.047c.723-.672 1.728-1.156 2.671-1.156 2.121 0 3.284 1.593 3.284 4.062 0 2.703-1.697 4.297-3.598 4.297-.739 0-1.587-.36-2.278-.984h-.032l.079 1.453v2.593h-1.634V76.625zm5.797 3.875c0-1.672-.612-2.703-2.042-2.703-.66 0-1.383.328-2.106 1.062v3.766c.66.594 1.415.813 1.933.813 1.241 0 2.215-1.063 2.215-2.938zm3.159.094c0-2.594 1.964-4.156 4.101-4.156 2.341 0 3.676 1.53 3.676 3.75 0 .343-.047.671-.078.874h-6.584v-1.187h5.562l-.345.39c0-1.718-.833-2.593-2.2-2.593-1.398 0-2.545 1.031-2.545 2.906 0 1.953 1.241 2.922 2.954 2.922.895 0 1.618-.266 2.341-.703l.565 1.031a5.716 5.716 0 01-3.111.938c-2.419.015-4.336-1.516-4.336-4.172zm9.914-3.969h1.634v3.188h2.703l3.284 4.765h-1.807l-2.294-3.484h-1.886v3.484h-1.634v-7.953zm3.19 3.844l1.257-2.328c.707-1.36 1.272-1.688 2.231-1.688.22 0 .44.031.597.11l-.267 1.515c-.126-.031-.22-.078-.362-.078-.408 0-.659.172-1.115 1.016l-.943 1.734-1.398-.281zm5.939-3.844h1.336l.125.969h.047c.723-.672 1.729-1.156 2.672-1.156 2.121 0 3.283 1.593 3.283 4.062 0 2.703-1.697 4.297-3.598 4.297-.738 0-1.587-.36-2.278-.984h-.047l.078 1.453v2.593h-1.634V76.625h.016zm5.798 3.875c0-1.672-.613-2.703-2.043-2.703-.66 0-1.382.328-2.105 1.062v3.766c.66.594 1.414.813 1.932.813 1.242 0 2.216-1.063 2.216-2.938zm3.189 7.266l.315-1.266c.204.063.455.11.691.11 1.068 0 1.697-.626 2.058-1.516l.205-.547-3.646-7.906h1.634l1.792 4.125c.298.718.628 1.546.942 2.328h.063c.267-.766.566-1.594.817-2.328l1.587-4.125h1.556l-3.441 8.453c-.644 1.687-1.603 2.828-3.488 2.828-.377 0-.786-.063-1.085-.156zm12.335-9.844h-3.08v-1.297h7.793v1.297h-3.079v6.672h-1.634v-6.672zm6.3 2.672c0-2.594 1.964-4.156 4.101-4.156 2.341 0 3.677 1.53 3.677 3.75 0 .343-.047.671-.079.874h-6.583v-1.187h5.562l-.346.39c0-1.718-.848-2.593-2.199-2.593-1.399 0-2.546 1.031-2.546 2.906 0 1.953 1.241 2.922 2.954 2.922.896 0 1.619-.266 2.341-.703l.566 1.031a5.719 5.719 0 01-3.111.938c-2.42.015-4.337-1.516-4.337-4.172zm9.71-3.969h1.336l.126.969h.047c.723-.672 1.728-1.156 2.671-1.156 2.121 0 3.284 1.593 3.284 4.062 0 2.703-1.697 4.297-3.598 4.297-.739 0-1.587-.36-2.279-.984h-.047l.079 1.453v2.593h-1.634V76.625h.015zm5.783 3.875c0-1.672-.613-2.703-2.043-2.703-.66 0-1.383.328-2.105 1.062v3.766c.66.594 1.414.813 1.932.813 1.257 0 2.216-1.063 2.216-2.938z" fill="#fff"/></svg>