<svg width="190" height="60" fill="none" xmlns="http://www.w3.org/2000/svg"><path d="M60.719 9.983l-1.152 2.713h-.05c.09-1.296.29-2.912.29-4.328V2.842h-2.094V15.56h2.384l3.567-7.151 1.152-2.713h.05c-.09 1.356-.29 2.882-.29 4.298v5.566h2.093V2.841h-2.384l-3.566 7.141zm12.672-7.141h-4.197V15.56h2.274v-4.67h1.923c2.755 0 4.87-1.277 4.87-4.129 0-2.942-2.075-3.92-4.87-3.92zm-.18 6.244h-1.743V4.658h1.743c1.853 0 2.805.538 2.805 2.114 0 1.546-.912 2.314-2.805 2.314zm9.778.897l-1.153 2.713h-.05c.09-1.296.29-2.912.29-4.328V2.842h-2.093V15.56h2.384l3.567-7.151 1.152-2.713h.05c-.09 1.356-.29 2.882-.29 4.298v5.566h2.093V2.841h-2.384l-3.567 7.141zm14.796-2.034h-4.368V2.842h-2.284V15.56h2.284V9.924h4.368v5.635h2.284V2.841h-2.284V7.95zm12.011 7.61h2.415l-4.138-12.717h-2.674l-4.138 12.716h2.324l.992-3.43h4.248l.971 3.43zm-4.708-5.217l.441-1.536a167.38 167.38 0 001.122-4.188h.08c.351 1.406.761 2.852 1.142 4.188l.441 1.536h-3.226zM64.656 29.003a10.1 10.1 0 01-1.954.17c-1.833 0-2.755-.659-2.755-2.604v-3.032h-2.224v3.022c0 3.261 1.803 4.418 4.759 4.418a14 14 0 002.184-.15v5.386h2.274V23.537h-2.274v5.466h-.01zm7.363 1.566h4.989v-1.895h-4.99v-3.242h5.891v-1.895h-8.154v12.676h8.355v-1.895h-6.091v-3.75zm12.723-7.032h-4.188v12.666h2.264v-4.657h1.924c2.745 0 4.848-1.277 4.848-4.11 0-2.921-2.063-3.899-4.848-3.899zm-.18 6.214h-1.744v-4.409h1.743c1.854 0 2.795.539 2.795 2.105 0 1.546-.911 2.304-2.795 2.304zm13.393-1.127h-4.347v-5.087h-2.285v12.676h2.285v-5.615h4.347v5.615h2.274V23.537h-2.274v5.087zm8.916-5.316c-2.955 0-5.009 2.344-5.009 6.512 0 4.25 2.054 6.623 5.009 6.623 2.956 0 5.009-2.384 5.009-6.622 0-4.17-2.053-6.513-5.009-6.513zm0 11.17c-1.623 0-2.675-1.675-2.675-4.668 0-2.902 1.052-4.547 2.675-4.547 1.623 0 2.675 1.645 2.675 4.547 0 2.993-1.052 4.668-2.675 4.668zm7.614 1.735h2.274v-10.78h5.81v-1.896h-8.084v12.676zm14.586-12.905c-2.955 0-5.009 2.344-5.009 6.512 0 4.25 2.054 6.623 5.009 6.623 2.955 0 5.009-2.384 5.009-6.622-.01-4.17-2.064-6.513-5.009-6.513zm0 11.17c-1.623 0-2.675-1.675-2.675-4.668 0-2.902 1.052-4.547 2.675-4.547 1.623 0 2.675 1.645 2.675 4.547 0 2.993-1.062 4.668-2.675 4.668zm11.15-10.941h-4.188v12.666h2.265v-4.657h1.923c2.745 0 4.849-1.277 4.849-4.11 0-2.921-2.064-3.899-4.849-3.899zm-.18 6.214h-1.743v-4.409h1.743c1.853 0 2.795.539 2.795 2.105 0 1.546-.902 2.304-2.795 2.304zm15.587-6.214h-2.264V34.32h-4.297V23.537h-2.264v12.676h8.164v3.64h1.874l.21-4.158v-1.377h-1.423v-10.78zm5.16 7.032h4.989v-1.895h-4.989v-3.242h5.89v-1.895h-8.154v12.676h8.355v-1.895h-6.091v-3.75zm14.756-1.088v-.08c1.503-.388 2.204-1.555 2.204-2.752 0-2.324-1.893-3.112-4.518-3.112h-3.947v12.666h4.278c2.815 0 4.848-1.186 4.848-3.72 0-1.715-1.022-2.692-2.865-3.002zm-4.007-4.139h1.543c1.643 0 2.454.43 2.454 1.586 0 1.177-.731 1.825-2.504 1.825h-1.493v-3.41zm1.793 9.066h-1.793v-3.96h1.793c1.904 0 2.865.55 2.865 1.886 0 1.436-1.002 2.074-2.865 2.074zm14.266 1.806H190l-4.127-12.667h-2.675l-4.128 12.667h2.315l.981-3.421h4.228l1.002 3.42zm-4.689-5.207l.441-1.536c.381-1.336.761-2.772 1.122-4.178h.08a142.98 142.98 0 001.132 4.178l.441 1.536h-3.216zm-165.316 3.79V14.92a.626.626 0 00-.63-.628H.63c-.35 0-.631.28-.631.628v17.723c0 9.674 7.874 17.503 17.591 17.503V44.98c0-.33-.26-.608-.59-.628-4.679-.31-8.386-4.18-8.386-8.916h8.345c.341 0 .631-.29.631-.639z" fill="#284D73"/><path d="M20.857 44.65V14.93c0-.349.28-.628.631-.628h16.32c.35 0 .63.28.63.628v27.567C38.439 52.17 30.566 60 20.859 60v-5.176c0-.33.26-.609.59-.628 4.679-.31 8.385-4.18 8.385-8.917h-8.345a.634.634 0 01-.63-.628z" fill="#5B9FD1"/><path d="M30.705 0H7.734c-.33 0-.601.27-.601.598v9.834a.6.6 0 00.6.599h22.972c.33 0 .601-.27.601-.599V.598A.595.595 0 0030.705 0zM14.606 7.3H11.02V3.73h3.586V7.3zm12.813 0h-3.586V3.73h3.586V7.3z" fill="#284D73"/><path d="M57.713 53.118h1.673v-5.056h-1.673v-.878h4.398v.878h-1.673v5.056h1.673v.878h-4.398v-.878zm7.624-5.056h-2.204v-.878h5.46v.878h-2.204v5.934h-1.052v-5.934zm8.756 2.124h-4.569v.758h4.569v-.758zm1.452-1.276h.852l.08.618h.03c.46-.429 1.102-.738 1.703-.738 1.352 0 2.094 1.017 2.094 2.593 0 1.725-1.082 2.743-2.294 2.743-.471 0-1.012-.23-1.453-.629h-.02l.05.928v1.656h-1.042V48.91zm3.697 2.473c0-1.067-.39-1.725-1.303-1.725-.42 0-.881.209-1.342.678v2.403c.42.38.902.519 1.232.519.792 0 1.413-.678 1.413-1.875zm2.013.06c0-1.656 1.253-2.653 2.615-2.653 1.493 0 2.344.977 2.344 2.394 0 .219-.03.428-.05.558h-4.197v-.758h3.546l-.22.25c0-1.098-.531-1.656-1.403-1.656-.891 0-1.623.658-1.623 1.855 0 1.246.792 1.865 1.884 1.865.57 0 1.031-.17 1.492-.449l.36.658a3.643 3.643 0 01-1.983.599c-1.542.01-2.765-.968-2.765-2.663zm6.322-2.533h1.042v2.034h1.723l2.093 3.042h-1.152l-1.462-2.224h-1.202v2.224h-1.042V48.91zm2.033 2.453l.802-1.486c.45-.868.811-1.077 1.422-1.077.14 0 .28.02.381.07l-.17.967c-.08-.02-.14-.05-.23-.05-.261 0-.421.11-.712.649l-.601 1.107-.892-.18zm3.787-2.453h.852l.08.618h.03c.46-.429 1.102-.738 1.703-.738 1.352 0 2.094 1.017 2.094 2.593 0 1.725-1.082 2.743-2.294 2.743-.471 0-1.012-.23-1.453-.629h-.03l.05.928v1.656h-1.042V48.91h.01zm3.697 2.473c0-1.067-.391-1.725-1.303-1.725-.42 0-.881.209-1.342.678v2.403c.42.38.902.519 1.232.519.792 0 1.413-.678 1.413-1.875zm2.033 4.637l.2-.807c.131.04.291.07.442.07.681 0 1.081-.4 1.312-.968l.13-.349-2.324-5.046h1.042l1.142 2.633c.19.458.401.987.601 1.486h.04c.17-.49.361-1.018.521-1.486l1.012-2.633h.992l-2.194 5.395c-.411 1.077-1.022 1.805-2.224 1.805-.24 0-.501-.04-.692-.1zm7.864-6.283h-1.963v-.828h4.969v.828h-1.964v4.259h-1.042v-4.259zm4.018 1.706c0-1.656 1.252-2.653 2.614-2.653 1.493 0 2.345.977 2.345 2.394 0 .219-.031.428-.051.558h-4.197v-.758h3.546l-.22.25c0-1.098-.541-1.656-1.403-1.656-.891 0-1.623.658-1.623 1.855 0 1.246.792 1.865 1.884 1.865.571 0 1.032-.17 1.493-.449l.36.658a3.642 3.642 0 01-1.983.599c-1.543.01-2.765-.968-2.765-2.663zm6.191-2.533h.851l.08.618h.03c.461-.429 1.102-.738 1.703-.738 1.353 0 2.094 1.017 2.094 2.593 0 1.725-1.082 2.743-2.294 2.743-.471 0-1.012-.23-1.452-.629h-.031l.051.928v1.656h-1.042V48.91h.01zm3.686 2.473c0-1.067-.39-1.725-1.302-1.725-.421 0-.882.209-1.342.678v2.403c.42.38.901.519 1.232.519.801 0 1.412-.678 1.412-1.875z" fill="#5B9FD1"/></svg>